G04 #@! TF.GenerationSoftware,KiCad,Pcbnew,(5.1.5)-3*
G04 #@! TF.CreationDate,2020-04-21T21:54:19-04:00*
G04 #@! TF.ProjectId,Tape and Crossbones 001,54617065-2061-46e6-9420-43726f737362,rev?*
G04 #@! TF.SameCoordinates,Original*
G04 #@! TF.FileFunction,Profile,NP*
%FSLAX46Y46*%
G04 Gerber Fmt 4.6, Leading zero omitted, Abs format (unit mm)*
G04 Created by KiCad (PCBNEW (5.1.5)-3) date 2020-04-21 21:54:19*
%MOMM*%
%LPD*%
G04 APERTURE LIST*
%ADD10C,0.150000*%
%ADD11C,0.100000*%
G04 APERTURE END LIST*
D10*
X101490835Y-73662216D02*
X99553014Y-72172402D01*
X56752450Y-42848050D02*
X59000000Y-42848050D01*
X95644649Y-42830510D02*
X85780000Y-42848050D01*
X85780000Y-34000000D02*
X84780000Y-33000000D01*
X59000000Y-34000000D02*
X60000000Y-33000000D01*
X60000000Y-33000000D02*
X84780000Y-33000000D01*
X85780000Y-34000000D02*
X85780000Y-42848050D01*
X59000000Y-34000000D02*
X59000000Y-42848050D01*
X44924422Y-73707272D02*
X45549036Y-72580619D01*
D11*
X56752450Y-42848050D02*
X51742420Y-42861990D01*
X51742420Y-42861990D02*
X50334237Y-42869790D01*
X50334237Y-42869790D02*
X49947698Y-42873390D01*
X49947698Y-42873390D02*
X49775615Y-42879590D01*
X49775615Y-42879590D02*
X49553031Y-42910992D01*
X49553031Y-42910992D02*
X49330519Y-42962121D01*
X49330519Y-42962121D02*
X49108924Y-43032226D01*
X49108924Y-43032226D02*
X48889090Y-43120556D01*
X48889090Y-43120556D02*
X48671860Y-43226359D01*
X48671860Y-43226359D02*
X48458080Y-43348885D01*
X48458080Y-43348885D02*
X48248593Y-43487381D01*
X48248593Y-43487381D02*
X48044244Y-43641096D01*
X48044244Y-43641096D02*
X47654334Y-43991177D01*
X47654334Y-43991177D02*
X47295105Y-44393119D01*
X47295105Y-44393119D02*
X46973309Y-44840909D01*
X46973309Y-44840909D02*
X46828559Y-45080118D01*
X46828559Y-45080118D02*
X46695700Y-45328536D01*
X46695700Y-45328536D02*
X46520000Y-45682001D01*
X46520000Y-45682001D02*
X46513800Y-54352275D01*
X46513800Y-54352275D02*
X46500360Y-60590137D01*
X46500360Y-60590137D02*
X46488480Y-62592599D01*
X46488480Y-62592599D02*
X46475040Y-63445777D01*
X46475040Y-63445777D02*
X46447650Y-63823014D01*
X46447650Y-63823014D02*
X46168081Y-63934118D01*
X46168081Y-63934118D02*
X45871458Y-64072612D01*
X45871458Y-64072612D02*
X45757008Y-64138923D01*
X45757008Y-64138923D02*
X45664236Y-64221440D01*
X45664236Y-64221440D02*
X45628138Y-64279220D01*
X45628138Y-64279220D02*
X45613596Y-64328927D01*
X45613596Y-64328927D02*
X45591896Y-64447783D01*
X45591896Y-64447783D02*
X45555206Y-64811066D01*
X45555206Y-64811066D02*
X45506116Y-66035799D01*
X45506116Y-66035799D02*
X45489642Y-67825703D01*
X45489642Y-67825703D02*
X45508216Y-70039688D01*
X45508216Y-70039688D02*
X45549036Y-72580619D01*
X99553014Y-72172402D02*
X99566954Y-71426195D01*
X99566954Y-71426195D02*
X99568554Y-68385553D01*
X99568554Y-68385553D02*
X99543234Y-65109784D01*
X99543234Y-65109784D02*
X99515844Y-64504652D01*
X99515844Y-64504652D02*
X99498630Y-64352792D01*
X99498630Y-64352792D02*
X99453314Y-64240585D01*
X99453314Y-64240585D02*
X99373692Y-64150996D01*
X99373692Y-64150996D02*
X99271931Y-64072638D01*
X99271931Y-64072638D02*
X99011997Y-63912441D01*
X99011997Y-63912441D02*
X98773769Y-63785832D01*
X98773769Y-63785832D02*
X98744829Y-62779694D01*
X98744829Y-62779694D02*
X98719880Y-60139082D01*
X98719880Y-60139082D02*
X98703489Y-55299529D01*
X98703489Y-55299529D02*
X98683693Y-50334452D01*
X98683693Y-50334452D02*
X98650779Y-47371847D01*
X98650779Y-47371847D02*
X98625530Y-46548827D01*
X98625530Y-46548827D02*
X98598069Y-46039631D01*
X98598069Y-46039631D02*
X98556605Y-45722270D01*
X98556605Y-45722270D02*
X98492649Y-45492893D01*
X98492649Y-45492893D02*
X98331928Y-45119937D01*
X98331928Y-45119937D02*
X98120727Y-44750887D01*
X98120727Y-44750887D02*
X97867981Y-44398856D01*
X97867981Y-44398856D02*
X97582628Y-44076959D01*
X97582628Y-44076959D02*
X97274865Y-43785622D01*
X97274865Y-43785622D02*
X96969419Y-43546788D01*
X96969419Y-43546788D02*
X96620469Y-43328350D01*
X96620469Y-43328350D02*
X96182196Y-43098207D01*
X96182196Y-43098207D02*
X95644649Y-42830510D01*
X103903578Y-72461260D02*
X103505726Y-72494369D01*
X103505726Y-72494369D02*
X103122486Y-72575036D01*
X103122486Y-72575036D02*
X102755726Y-72702417D01*
X102755726Y-72702417D02*
X102407313Y-72875669D01*
X102407313Y-72875669D02*
X102079115Y-73093949D01*
X102079115Y-73093949D02*
X101773000Y-73356412D01*
X101773000Y-73356412D02*
X101490835Y-73662216D01*
X44924422Y-73707272D02*
X44785320Y-73557751D01*
X44785320Y-73557751D02*
X44632801Y-73422063D01*
X44632801Y-73422063D02*
X44466616Y-73299063D01*
X44466616Y-73299063D02*
X44286513Y-73187605D01*
X44286513Y-73187605D02*
X44092240Y-73086542D01*
X44092240Y-73086542D02*
X43749502Y-72950672D01*
X43749502Y-72950672D02*
X43400727Y-72871486D01*
X43400727Y-72871486D02*
X43028094Y-72846084D01*
X43028094Y-72846084D02*
X42613778Y-72871568D01*
X42613778Y-72871568D02*
X42276300Y-72921162D01*
X42276300Y-72921162D02*
X41960226Y-72991427D01*
X41960226Y-72991427D02*
X41664316Y-73083046D01*
X41664316Y-73083046D02*
X41387333Y-73196706D01*
X41387333Y-73196706D02*
X41128037Y-73333092D01*
X41128037Y-73333092D02*
X40885189Y-73492889D01*
X40885189Y-73492889D02*
X40657551Y-73676783D01*
X40657551Y-73676783D02*
X40443884Y-73885459D01*
X40443884Y-73885459D02*
X40295377Y-74054934D01*
X40295377Y-74054934D02*
X40161490Y-74230889D01*
X40161490Y-74230889D02*
X40042240Y-74414082D01*
X40042240Y-74414082D02*
X39937644Y-74605273D01*
X39937644Y-74605273D02*
X39847720Y-74805221D01*
X39847720Y-74805221D02*
X39772486Y-75014686D01*
X39772486Y-75014686D02*
X39711958Y-75234429D01*
X39711958Y-75234429D02*
X39666154Y-75465207D01*
X39666154Y-75465207D02*
X39634729Y-75707741D01*
X39634729Y-75707741D02*
X39617151Y-75962928D01*
X39617151Y-75962928D02*
X39622471Y-76515347D01*
X39622471Y-76515347D02*
X39679993Y-77130645D01*
X39679993Y-77130645D02*
X39787593Y-77817001D01*
X39787593Y-77817001D02*
X39945723Y-78684133D01*
X39945723Y-78684133D02*
X39798962Y-78926494D01*
X39798962Y-78926494D02*
X39549659Y-79284754D01*
X39549659Y-79284754D02*
X39176261Y-79771920D01*
X39176261Y-79771920D02*
X38765844Y-80301414D01*
X38765844Y-80301414D02*
X38425326Y-80784473D01*
X38425326Y-80784473D02*
X38132647Y-81254894D01*
X38132647Y-81254894D02*
X37865747Y-81746476D01*
X37865747Y-81746476D02*
X37630955Y-82229489D01*
X37630955Y-82229489D02*
X37458933Y-82644662D01*
X37458933Y-82644662D02*
X37351051Y-83007229D01*
X37351051Y-83007229D02*
X37321589Y-83173548D01*
X37321589Y-83173548D02*
X37308675Y-83332428D01*
X37308675Y-83332428D02*
X37313272Y-83484611D01*
X37313272Y-83484611D02*
X37335827Y-83630362D01*
X37335827Y-83630362D02*
X37375738Y-83770867D01*
X37375738Y-83770867D02*
X37432404Y-83907312D01*
X37432404Y-83907312D02*
X37593595Y-84172772D01*
X37593595Y-84172772D02*
X37814587Y-84436235D01*
X37814587Y-84436235D02*
X38057825Y-84671689D01*
X38057825Y-84671689D02*
X38316125Y-84875764D01*
X38316125Y-84875764D02*
X38589555Y-85048544D01*
X38589555Y-85048544D02*
X38878183Y-85190115D01*
X38878183Y-85190115D02*
X39182076Y-85300560D01*
X39182076Y-85300560D02*
X39501301Y-85379965D01*
X39501301Y-85379965D02*
X39835926Y-85428415D01*
X39835926Y-85428415D02*
X40186019Y-85445994D01*
X40186019Y-85445994D02*
X40539986Y-85434718D01*
X40539986Y-85434718D02*
X40865374Y-85394774D01*
X40865374Y-85394774D02*
X41168419Y-85323512D01*
X41168419Y-85323512D02*
X41455356Y-85218283D01*
X41455356Y-85218283D02*
X41732423Y-85076438D01*
X41732423Y-85076438D02*
X42005853Y-84895328D01*
X42005853Y-84895328D02*
X42281885Y-84672303D01*
X42281885Y-84672303D02*
X42566752Y-84404713D01*
X42566752Y-84404713D02*
X42955207Y-83990299D01*
X42955207Y-83990299D02*
X43302869Y-83556673D01*
X43302869Y-83556673D02*
X43636456Y-83067639D01*
X43636456Y-83067639D02*
X43982686Y-82487000D01*
X43982686Y-82487000D02*
X44371293Y-81832778D01*
X44371293Y-81832778D02*
X44479739Y-81679692D01*
X44479739Y-81679692D02*
X44530973Y-81619354D01*
X44530973Y-81619354D02*
X44570763Y-81610054D01*
X44570763Y-81610054D02*
X44736644Y-81603854D01*
X44736644Y-81603854D02*
X45334024Y-81643124D01*
X45334024Y-81643124D02*
X46225742Y-81754633D01*
X46225742Y-81754633D02*
X47361807Y-81931997D01*
X47361807Y-81931997D02*
X49076431Y-82187793D01*
X49076431Y-82187793D02*
X51028309Y-82460163D01*
X51028309Y-82460163D02*
X52490693Y-82683887D01*
X52490693Y-82683887D02*
X55756128Y-83176364D01*
X55756128Y-83176364D02*
X58861362Y-83640935D01*
X58861362Y-83640935D02*
X61066913Y-83955644D01*
X61066913Y-83955644D02*
X62233365Y-84115620D01*
X62233365Y-84115620D02*
X63014082Y-84236763D01*
X63014082Y-84236763D02*
X63453330Y-84326683D01*
X63453330Y-84326683D02*
X63541180Y-84356143D01*
X63541180Y-84356143D02*
X63545280Y-84379403D01*
X63545280Y-84379403D02*
X63547380Y-84496709D01*
X63547380Y-84496709D02*
X63547380Y-84498809D01*
X63547380Y-84498809D02*
X63543280Y-84562889D01*
X63543280Y-84562889D02*
X60961523Y-84949945D01*
X60961523Y-84949945D02*
X56195925Y-85668762D01*
X56195925Y-85668762D02*
X53214107Y-86116715D01*
X53214107Y-86116715D02*
X51443567Y-86370640D01*
X51443567Y-86370640D02*
X50482247Y-86484984D01*
X50482247Y-86484984D02*
X49928089Y-86514191D01*
X49928089Y-86514191D02*
X49400989Y-86518291D01*
X49400989Y-86518291D02*
X49201519Y-85670281D01*
X49201519Y-85670281D02*
X49010456Y-84904790D01*
X49010456Y-84904790D02*
X48861488Y-84392840D01*
X48861488Y-84392840D02*
X48748929Y-84116319D01*
X48748929Y-84116319D02*
X48616485Y-83855640D01*
X48616485Y-83855640D02*
X48465484Y-83612642D01*
X48465484Y-83612642D02*
X48297254Y-83389168D01*
X48297254Y-83389168D02*
X48113125Y-83187056D01*
X48113125Y-83187056D02*
X47914425Y-83008149D01*
X47914425Y-83008149D02*
X47702483Y-82854287D01*
X47702483Y-82854287D02*
X47478626Y-82727310D01*
X47478626Y-82727310D02*
X47280600Y-82638407D01*
X47280600Y-82638407D02*
X47104931Y-82583375D01*
X47104931Y-82583375D02*
X46921806Y-82555869D01*
X46921806Y-82555869D02*
X46701413Y-82549541D01*
X46701413Y-82549541D02*
X46487083Y-82561464D01*
X46487083Y-82561464D02*
X46268291Y-82593604D01*
X46268291Y-82593604D02*
X46046567Y-82644678D01*
X46046567Y-82644678D02*
X45823441Y-82713403D01*
X45823441Y-82713403D02*
X45379102Y-82898679D01*
X45379102Y-82898679D02*
X44947515Y-83139171D01*
X44947515Y-83139171D02*
X44541475Y-83425314D01*
X44541475Y-83425314D02*
X44175200Y-83749677D01*
X44175200Y-83749677D02*
X44011465Y-83923984D01*
X44011465Y-83923984D02*
X43863061Y-84105200D01*
X43863061Y-84105200D02*
X43731784Y-84292440D01*
X43731784Y-84292440D02*
X43619430Y-84484823D01*
X43619430Y-84484823D02*
X43453820Y-84852358D01*
X43453820Y-84852358D02*
X43341392Y-85231055D01*
X43341392Y-85231055D02*
X43277162Y-85641908D01*
X43277162Y-85641908D02*
X43256145Y-86105914D01*
X43256145Y-86105914D02*
X43267267Y-86448971D01*
X43267267Y-86448971D02*
X43302576Y-86794759D01*
X43302576Y-86794759D02*
X43363523Y-87149167D01*
X43363523Y-87149167D02*
X43451559Y-87518084D01*
X43451559Y-87518084D02*
X43568138Y-87907399D01*
X43568138Y-87907399D02*
X43714709Y-88323001D01*
X43714709Y-88323001D02*
X43892726Y-88770781D01*
X43892726Y-88770781D02*
X44103639Y-89256626D01*
X44103639Y-89256626D02*
X44416281Y-89955808D01*
X44416281Y-89955808D02*
X44418381Y-90494794D01*
X44418381Y-90494794D02*
X44395131Y-92770107D01*
X44395131Y-92770107D02*
X44369811Y-94516254D01*
X44369811Y-94516254D02*
X44529491Y-94820628D01*
X44529491Y-94820628D02*
X44646670Y-95022059D01*
X44646670Y-95022059D02*
X44776496Y-95205650D01*
X44776496Y-95205650D02*
X44918651Y-95370979D01*
X44918651Y-95370979D02*
X45072821Y-95517624D01*
X45072821Y-95517624D02*
X45238688Y-95645164D01*
X45238688Y-95645164D02*
X45415937Y-95753176D01*
X45415937Y-95753176D02*
X45604251Y-95841240D01*
X45604251Y-95841240D02*
X45803315Y-95908933D01*
X45803315Y-95908933D02*
X45918554Y-95942003D01*
X45918554Y-95942003D02*
X45929924Y-95916683D01*
X45929924Y-95916683D02*
X46107542Y-95947927D01*
X46107542Y-95947927D02*
X46323319Y-95968940D01*
X46323319Y-95968940D02*
X46973271Y-95979213D01*
X46973271Y-95979213D02*
X47451441Y-95970207D01*
X47451441Y-95970207D02*
X47752552Y-95949763D01*
X47752552Y-95949763D02*
X47962984Y-95902766D01*
X47962984Y-95902766D02*
X48143225Y-95824705D01*
X48143225Y-95824705D02*
X48325500Y-95714084D01*
X48325500Y-95714084D02*
X48495379Y-95574694D01*
X48495379Y-95574694D02*
X48652407Y-95408124D01*
X48652407Y-95408124D02*
X48796133Y-95215965D01*
X48796133Y-95215965D02*
X48926103Y-94999808D01*
X48926103Y-94999808D02*
X49041863Y-94761243D01*
X49041863Y-94761243D02*
X49142963Y-94501862D01*
X49142963Y-94501862D02*
X49228947Y-94223254D01*
X49228947Y-94223254D02*
X49336303Y-93687335D01*
X49336303Y-93687335D02*
X49439787Y-92967515D01*
X49439787Y-92967515D02*
X49513929Y-92410959D01*
X49513929Y-92410959D02*
X49580347Y-92053358D01*
X49580347Y-92053358D02*
X49649534Y-91833979D01*
X49649534Y-91833979D02*
X49740544Y-91674570D01*
X49740544Y-91674570D02*
X49850041Y-91561310D01*
X49850041Y-91561310D02*
X50029932Y-91463213D01*
X50029932Y-91463213D02*
X50315188Y-91370251D01*
X50315188Y-91370251D02*
X50729114Y-91279764D01*
X50729114Y-91279764D02*
X51288274Y-91165548D01*
X51288274Y-91165548D02*
X51797266Y-91045669D01*
X51797266Y-91045669D02*
X52234447Y-90942738D01*
X52234447Y-90942738D02*
X52637006Y-90865834D01*
X52637006Y-90865834D02*
X53078381Y-90785935D01*
X53078381Y-90785935D02*
X53580619Y-90678250D01*
X53580619Y-90678250D02*
X55674031Y-90240550D01*
X55674031Y-90240550D02*
X61232913Y-89113271D01*
X61232913Y-89113271D02*
X65025914Y-88326456D01*
X65025914Y-88326456D02*
X69186066Y-87484651D01*
X69186066Y-87484651D02*
X73482762Y-86641285D01*
X73482762Y-86641285D02*
X74223035Y-86515405D01*
X74223035Y-86515405D02*
X74503329Y-86481708D01*
X74503329Y-86481708D02*
X74747287Y-86466990D01*
X74747287Y-86466990D02*
X74972577Y-86470861D01*
X74972577Y-86470861D02*
X75196866Y-86492933D01*
X75196866Y-86492933D02*
X75713118Y-86590125D01*
X75713118Y-86590125D02*
X77324906Y-86928088D01*
X77324906Y-86928088D02*
X79109809Y-87307392D01*
X79109809Y-87307392D02*
X80584655Y-87619518D01*
X80584655Y-87619518D02*
X82472912Y-88012260D01*
X82472912Y-88012260D02*
X85534643Y-88660468D01*
X85534643Y-88660468D02*
X87730990Y-89107799D01*
X87730990Y-89107799D02*
X89799079Y-89541364D01*
X89799079Y-89541364D02*
X91787589Y-89957361D01*
X91787589Y-89957361D02*
X92716977Y-90151698D01*
X92716977Y-90151698D02*
X93338397Y-90309278D01*
X93338397Y-90309278D02*
X93545697Y-90379376D01*
X93545697Y-90379376D02*
X93689704Y-90442519D01*
X93689704Y-90442519D02*
X93812787Y-90523733D01*
X93812787Y-90523733D02*
X93867567Y-90705634D01*
X93867567Y-90705634D02*
X93920277Y-91092174D01*
X93920277Y-91092174D02*
X94025840Y-92127877D01*
X94025840Y-92127877D02*
X94081181Y-92506369D01*
X94081181Y-92506369D02*
X94145070Y-92818684D01*
X94145070Y-92818684D02*
X94223279Y-93083624D01*
X94223279Y-93083624D02*
X94320059Y-93317571D01*
X94320059Y-93317571D02*
X94438253Y-93536944D01*
X94438253Y-93536944D02*
X94580703Y-93758161D01*
X94580703Y-93758161D02*
X94761027Y-93995686D01*
X94761027Y-93995686D02*
X94955629Y-94197342D01*
X94955629Y-94197342D02*
X95168827Y-94363506D01*
X95168827Y-94363506D02*
X95404941Y-94494552D01*
X95404941Y-94494552D02*
X95666595Y-94591522D01*
X95666595Y-94591522D02*
X95956509Y-94657272D01*
X95956509Y-94657272D02*
X96279147Y-94694889D01*
X96279147Y-94694889D02*
X96638974Y-94707457D01*
X96638974Y-94707457D02*
X97109338Y-94686442D01*
X97109338Y-94686442D02*
X97549714Y-94620460D01*
X97549714Y-94620460D02*
X97961051Y-94508705D01*
X97961051Y-94508705D02*
X98344298Y-94350373D01*
X98344298Y-94350373D02*
X98532566Y-94246710D01*
X98532566Y-94246710D02*
X98708602Y-94126767D01*
X98708602Y-94126767D02*
X98872583Y-93990016D01*
X98872583Y-93990016D02*
X99024686Y-93835933D01*
X99024686Y-93835933D02*
X99165089Y-93663988D01*
X99165089Y-93663988D02*
X99293968Y-93473656D01*
X99293968Y-93473656D02*
X99411502Y-93264411D01*
X99411502Y-93264411D02*
X99517868Y-93035724D01*
X99517868Y-93035724D02*
X99613756Y-92786899D01*
X99613756Y-92786899D02*
X99700055Y-92516956D01*
X99700055Y-92516956D02*
X99845811Y-91909927D01*
X99845811Y-91909927D02*
X99958983Y-91207051D01*
X99958983Y-91207051D02*
X100043418Y-90400744D01*
X100043418Y-90400744D02*
X100111085Y-89588547D01*
X100111085Y-89588547D02*
X100138380Y-89352138D01*
X100138380Y-89352138D02*
X100170542Y-89195649D01*
X100170542Y-89195649D02*
X100213377Y-89088904D01*
X100213377Y-89088904D02*
X100279580Y-88990494D01*
X100279580Y-88990494D02*
X100539512Y-88689737D01*
X100539512Y-88689737D02*
X101061483Y-88052121D01*
X101061483Y-88052121D02*
X101500693Y-87457770D01*
X101500693Y-87457770D02*
X101830809Y-86945566D01*
X101830809Y-86945566D02*
X101947383Y-86728289D01*
X101947383Y-86728289D02*
X102027793Y-86539481D01*
X102027793Y-86539481D02*
X102103192Y-86360975D01*
X102103192Y-86360975D02*
X102178171Y-86219087D01*
X102178171Y-86219087D02*
X102217787Y-86143963D01*
X102217787Y-86143963D02*
X102244978Y-86061908D01*
X102244978Y-86061908D02*
X102277901Y-85873371D01*
X102277901Y-85873371D02*
X102297061Y-85652417D01*
X102297061Y-85652417D02*
X102301161Y-85410867D01*
X102301161Y-85410867D02*
X102291235Y-85162729D01*
X102291235Y-85162729D02*
X102267149Y-84921931D01*
X102267149Y-84921931D02*
X102226867Y-84700421D01*
X102226867Y-84700421D02*
X102168353Y-84510148D01*
X102168353Y-84510148D02*
X102018527Y-84201260D01*
X102018527Y-84201260D02*
X101826957Y-83918388D01*
X101826957Y-83918388D02*
X101594212Y-83661903D01*
X101594212Y-83661903D02*
X101320861Y-83432177D01*
X101320861Y-83432177D02*
X101079131Y-83263292D01*
X101079131Y-83263292D02*
X100848242Y-83121997D01*
X100848242Y-83121997D02*
X100623653Y-83006728D01*
X100623653Y-83006728D02*
X100400821Y-82915922D01*
X100400821Y-82915922D02*
X100175204Y-82848016D01*
X100175204Y-82848016D02*
X99942259Y-82801447D01*
X99942259Y-82801447D02*
X99697446Y-82774652D01*
X99697446Y-82774652D02*
X99436221Y-82766068D01*
X99436221Y-82766068D02*
X99042881Y-82786818D01*
X99042881Y-82786818D02*
X98698216Y-82855198D01*
X98698216Y-82855198D02*
X98377743Y-82978620D01*
X98377743Y-82978620D02*
X98056977Y-83164493D01*
X98056977Y-83164493D02*
X97849255Y-83317281D01*
X97849255Y-83317281D02*
X97616966Y-83512515D01*
X97616966Y-83512515D02*
X97115521Y-83991930D01*
X97115521Y-83991930D02*
X96626306Y-84525943D01*
X96626306Y-84525943D02*
X96409303Y-84789427D01*
X96409303Y-84789427D02*
X96222981Y-85037764D01*
X96222981Y-85037764D02*
X95968713Y-85375946D01*
X95968713Y-85375946D02*
X95783730Y-85564865D01*
X95783730Y-85564865D02*
X95707908Y-85615278D01*
X95707908Y-85615278D02*
X95633834Y-85645690D01*
X95633834Y-85645690D02*
X95451450Y-85664595D01*
X95451450Y-85664595D02*
X95080415Y-85627385D01*
X95080415Y-85627385D02*
X94268062Y-85516281D01*
X94268062Y-85516281D02*
X91490453Y-85094086D01*
X91490453Y-85094086D02*
X88941772Y-84707545D01*
X88941772Y-84707545D02*
X88162008Y-84586366D01*
X88162008Y-84586366D02*
X87650936Y-84489335D01*
X87650936Y-84489335D02*
X87339959Y-84404257D01*
X87339959Y-84404257D02*
X87160483Y-84318938D01*
X87160483Y-84318938D02*
X87113973Y-84281728D01*
X87113973Y-84281728D02*
X87205688Y-84237576D01*
X87205688Y-84237576D02*
X87361986Y-84183747D01*
X87361986Y-84183747D02*
X87863799Y-84061068D01*
X87863799Y-84061068D02*
X89367384Y-83781457D01*
X89367384Y-83781457D02*
X94154887Y-82936073D01*
X94154887Y-82936073D02*
X97730897Y-82287534D01*
X97730897Y-82287534D02*
X99408829Y-81983160D01*
X99408829Y-81983160D02*
X100725028Y-81742863D01*
X100725028Y-81742863D02*
X101238693Y-81635376D01*
X101238693Y-81635376D02*
X101441782Y-81719096D01*
X101441782Y-81719096D02*
X101560414Y-81776955D01*
X101560414Y-81776955D02*
X101658822Y-81861722D01*
X101658822Y-81861722D02*
X101790082Y-82027381D01*
X101790082Y-82027381D02*
X101986966Y-82314924D01*
X101986966Y-82314924D02*
X102307200Y-82781314D01*
X102307200Y-82781314D02*
X102565356Y-83118040D01*
X102565356Y-83118040D02*
X102811173Y-83384325D01*
X102811173Y-83384325D02*
X103094393Y-83639391D01*
X103094393Y-83639391D02*
X103363093Y-83850445D01*
X103363093Y-83850445D02*
X103633643Y-84030099D01*
X103633643Y-84030099D02*
X103908684Y-84179312D01*
X103908684Y-84179312D02*
X104190854Y-84299045D01*
X104190854Y-84299045D02*
X104482792Y-84390258D01*
X104482792Y-84390258D02*
X104787137Y-84453913D01*
X104787137Y-84453913D02*
X105106529Y-84490970D01*
X105106529Y-84490970D02*
X105443605Y-84502388D01*
X105443605Y-84502388D02*
X105823919Y-84482515D01*
X105823919Y-84482515D02*
X106199397Y-84426965D01*
X106199397Y-84426965D02*
X106560780Y-84339362D01*
X106560780Y-84339362D02*
X106898813Y-84223334D01*
X106898813Y-84223334D02*
X107205119Y-84083268D01*
X107205119Y-84083268D02*
X107470347Y-83920418D01*
X107470347Y-83920418D02*
X107683774Y-83733714D01*
X107683774Y-83733714D02*
X107767710Y-83631082D01*
X107767710Y-83631082D02*
X107834673Y-83522085D01*
X107834673Y-83522085D02*
X107884798Y-83394001D01*
X107884798Y-83394001D02*
X107918380Y-83243238D01*
X107918380Y-83243238D02*
X107953529Y-82885432D01*
X107953529Y-82885432D02*
X107959019Y-82491067D01*
X107959019Y-82491067D02*
X107924069Y-82129406D01*
X107924069Y-82129406D02*
X107878837Y-81946266D01*
X107878837Y-81946266D02*
X107803503Y-81730093D01*
X107803503Y-81730093D02*
X107564349Y-81198203D01*
X107564349Y-81198203D02*
X107210241Y-80532856D01*
X107210241Y-80532856D02*
X106744813Y-79733170D01*
X106744813Y-79733170D02*
X106327637Y-79023635D01*
X106327637Y-79023635D02*
X106099892Y-78584402D01*
X106099892Y-78584402D02*
X106040643Y-78432753D01*
X106040643Y-78432753D02*
X106007359Y-78304935D01*
X106007359Y-78304935D02*
X105990854Y-78043351D01*
X105990854Y-78043351D02*
X106054934Y-77533821D01*
X106054934Y-77533821D02*
X106209448Y-76720950D01*
X106209448Y-76720950D02*
X106324930Y-76164977D01*
X106324930Y-76164977D02*
X106393446Y-75755836D01*
X106393446Y-75755836D02*
X106427066Y-75401114D01*
X106427066Y-75401114D02*
X106437857Y-75008395D01*
X106437857Y-75008395D02*
X106431681Y-74661515D01*
X106431681Y-74661515D02*
X106406621Y-74349842D01*
X106406621Y-74349842D02*
X106361320Y-74069928D01*
X106361320Y-74069928D02*
X106294418Y-73818325D01*
X106294418Y-73818325D02*
X106204558Y-73591587D01*
X106204558Y-73591587D02*
X106090379Y-73386266D01*
X106090379Y-73386266D02*
X105950524Y-73198915D01*
X105950524Y-73198915D02*
X105783633Y-73026086D01*
X105783633Y-73026086D02*
X105561088Y-72847024D01*
X105561088Y-72847024D02*
X105321321Y-72713454D01*
X105321321Y-72713454D02*
X105034432Y-72611660D01*
X105034432Y-72611660D02*
X104670523Y-72527926D01*
X104670523Y-72527926D02*
X104282380Y-72473656D01*
X104282380Y-72473656D02*
X103903647Y-72461266D01*
X103903647Y-72461266D02*
X103903578Y-72461260D01*
M02*
