G04 #@! TF.GenerationSoftware,KiCad,Pcbnew,(5.1.5)-3*
G04 #@! TF.CreationDate,2020-04-21T21:54:19-04:00*
G04 #@! TF.ProjectId,Tape and Crossbones 001,54617065-2061-46e6-9420-43726f737362,rev?*
G04 #@! TF.SameCoordinates,Original*
G04 #@! TF.FileFunction,Legend,Bot*
G04 #@! TF.FilePolarity,Positive*
%FSLAX46Y46*%
G04 Gerber Fmt 4.6, Leading zero omitted, Abs format (unit mm)*
G04 Created by KiCad (PCBNEW (5.1.5)-3) date 2020-04-21 21:54:19*
%MOMM*%
%LPD*%
G04 APERTURE LIST*
%ADD10C,0.150000*%
%ADD11C,0.010000*%
%ADD12C,0.100000*%
%ADD13C,0.500000*%
%ADD14C,1.000000*%
%ADD15R,9.400000X2.600000*%
%ADD16O,23.400000X7.400000*%
%ADD17C,2.900000*%
%ADD18R,2.570000X2.570000*%
%ADD19R,2.200000X2.200000*%
%ADD20C,2.200000*%
G04 APERTURE END LIST*
D10*
X49042857Y-90002380D02*
X49614285Y-90002380D01*
X49328571Y-90002380D02*
X49328571Y-89002380D01*
X49423809Y-89145238D01*
X49519047Y-89240476D01*
X49614285Y-89288095D01*
X48423809Y-89002380D02*
X48328571Y-89002380D01*
X48233333Y-89050000D01*
X48185714Y-89097619D01*
X48138095Y-89192857D01*
X48090476Y-89383333D01*
X48090476Y-89621428D01*
X48138095Y-89811904D01*
X48185714Y-89907142D01*
X48233333Y-89954761D01*
X48328571Y-90002380D01*
X48423809Y-90002380D01*
X48519047Y-89954761D01*
X48566666Y-89907142D01*
X48614285Y-89811904D01*
X48661904Y-89621428D01*
X48661904Y-89383333D01*
X48614285Y-89192857D01*
X48566666Y-89097619D01*
X48519047Y-89050000D01*
X48423809Y-89002380D01*
X47471428Y-89002380D02*
X47376190Y-89002380D01*
X47280952Y-89050000D01*
X47233333Y-89097619D01*
X47185714Y-89192857D01*
X47138095Y-89383333D01*
X47138095Y-89621428D01*
X47185714Y-89811904D01*
X47233333Y-89907142D01*
X47280952Y-89954761D01*
X47376190Y-90002380D01*
X47471428Y-90002380D01*
X47566666Y-89954761D01*
X47614285Y-89907142D01*
X47661904Y-89811904D01*
X47709523Y-89621428D01*
X47709523Y-89383333D01*
X47661904Y-89192857D01*
X47614285Y-89097619D01*
X47566666Y-89050000D01*
X47471428Y-89002380D01*
X46566666Y-89430952D02*
X46661904Y-89383333D01*
X46709523Y-89335714D01*
X46757142Y-89240476D01*
X46757142Y-89192857D01*
X46709523Y-89097619D01*
X46661904Y-89050000D01*
X46566666Y-89002380D01*
X46376190Y-89002380D01*
X46280952Y-89050000D01*
X46233333Y-89097619D01*
X46185714Y-89192857D01*
X46185714Y-89240476D01*
X46233333Y-89335714D01*
X46280952Y-89383333D01*
X46376190Y-89430952D01*
X46566666Y-89430952D01*
X46661904Y-89478571D01*
X46709523Y-89526190D01*
X46757142Y-89621428D01*
X46757142Y-89811904D01*
X46709523Y-89907142D01*
X46661904Y-89954761D01*
X46566666Y-90002380D01*
X46376190Y-90002380D01*
X46280952Y-89954761D01*
X46233333Y-89907142D01*
X46185714Y-89811904D01*
X46185714Y-89621428D01*
X46233333Y-89526190D01*
X46280952Y-89478571D01*
X46376190Y-89430952D01*
D11*
G36*
X91288187Y-65172115D02*
G01*
X91184831Y-65036981D01*
X91037165Y-64877993D01*
X90992635Y-64834592D01*
X90824704Y-64677504D01*
X90704445Y-64582897D01*
X90598228Y-64534930D01*
X90472426Y-64517763D01*
X90315302Y-64515555D01*
X89972445Y-64515555D01*
X89972445Y-65362222D01*
X90649778Y-65362222D01*
X90936475Y-65360881D01*
X91128845Y-65354953D01*
X91245436Y-65341584D01*
X91304798Y-65317915D01*
X91325478Y-65281092D01*
X91327112Y-65257925D01*
X91288187Y-65172115D01*
G37*
X91288187Y-65172115D02*
X91184831Y-65036981D01*
X91037165Y-64877993D01*
X90992635Y-64834592D01*
X90824704Y-64677504D01*
X90704445Y-64582897D01*
X90598228Y-64534930D01*
X90472426Y-64517763D01*
X90315302Y-64515555D01*
X89972445Y-64515555D01*
X89972445Y-65362222D01*
X90649778Y-65362222D01*
X90936475Y-65360881D01*
X91128845Y-65354953D01*
X91245436Y-65341584D01*
X91304798Y-65317915D01*
X91325478Y-65281092D01*
X91327112Y-65257925D01*
X91288187Y-65172115D01*
G36*
X90282889Y-50065777D02*
G01*
X89972445Y-49759189D01*
X89972445Y-51589777D01*
X90593334Y-51589777D01*
X90593334Y-50372366D01*
X90282889Y-50065777D01*
G37*
X90282889Y-50065777D02*
X89972445Y-49759189D01*
X89972445Y-51589777D01*
X90593334Y-51589777D01*
X90593334Y-50372366D01*
X90282889Y-50065777D01*
G36*
X92702200Y-70931453D02*
G01*
X92607525Y-70803816D01*
X92464176Y-70645884D01*
X92292439Y-70477071D01*
X92112605Y-70316790D01*
X91944960Y-70184456D01*
X91809793Y-70099481D01*
X91756618Y-70079961D01*
X91483327Y-69974399D01*
X91251732Y-69783113D01*
X91082305Y-69531253D01*
X90995517Y-69243972D01*
X90988445Y-69136187D01*
X90975708Y-69027340D01*
X90926940Y-68920497D01*
X90826308Y-68791385D01*
X90657976Y-68615735D01*
X90632122Y-68590027D01*
X90275799Y-68236872D01*
X90166455Y-68357531D01*
X90105607Y-68485317D01*
X90062716Y-68695921D01*
X90038483Y-68960602D01*
X90033611Y-69250617D01*
X90048802Y-69537222D01*
X90084758Y-69791674D01*
X90127577Y-69949082D01*
X90312703Y-70305064D01*
X90581998Y-70625180D01*
X90912914Y-70893309D01*
X91282899Y-71093331D01*
X91669405Y-71209127D01*
X91921665Y-71231587D01*
X92146337Y-71215666D01*
X92369928Y-71174838D01*
X92561849Y-71117534D01*
X92691508Y-71052184D01*
X92727910Y-71009381D01*
X92702200Y-70931453D01*
G37*
X92702200Y-70931453D02*
X92607525Y-70803816D01*
X92464176Y-70645884D01*
X92292439Y-70477071D01*
X92112605Y-70316790D01*
X91944960Y-70184456D01*
X91809793Y-70099481D01*
X91756618Y-70079961D01*
X91483327Y-69974399D01*
X91251732Y-69783113D01*
X91082305Y-69531253D01*
X90995517Y-69243972D01*
X90988445Y-69136187D01*
X90975708Y-69027340D01*
X90926940Y-68920497D01*
X90826308Y-68791385D01*
X90657976Y-68615735D01*
X90632122Y-68590027D01*
X90275799Y-68236872D01*
X90166455Y-68357531D01*
X90105607Y-68485317D01*
X90062716Y-68695921D01*
X90038483Y-68960602D01*
X90033611Y-69250617D01*
X90048802Y-69537222D01*
X90084758Y-69791674D01*
X90127577Y-69949082D01*
X90312703Y-70305064D01*
X90581998Y-70625180D01*
X90912914Y-70893309D01*
X91282899Y-71093331D01*
X91669405Y-71209127D01*
X91921665Y-71231587D01*
X92146337Y-71215666D01*
X92369928Y-71174838D01*
X92561849Y-71117534D01*
X92691508Y-71052184D01*
X92727910Y-71009381D01*
X92702200Y-70931453D01*
G36*
X91946290Y-66481173D02*
G01*
X91826920Y-66345144D01*
X91681656Y-66196414D01*
X91358868Y-65870222D01*
X90028889Y-65870222D01*
X90028889Y-66716889D01*
X91016667Y-66716889D01*
X91407362Y-66715536D01*
X91693134Y-66707321D01*
X91881948Y-66686012D01*
X91981769Y-66645373D01*
X92000562Y-66579171D01*
X91946290Y-66481173D01*
G37*
X91946290Y-66481173D02*
X91826920Y-66345144D01*
X91681656Y-66196414D01*
X91358868Y-65870222D01*
X90028889Y-65870222D01*
X90028889Y-66716889D01*
X91016667Y-66716889D01*
X91407362Y-66715536D01*
X91693134Y-66707321D01*
X91881948Y-66686012D01*
X91981769Y-66645373D01*
X92000562Y-66579171D01*
X91946290Y-66481173D01*
G36*
X92624094Y-64360333D02*
G01*
X92622051Y-63984708D01*
X92615879Y-63702674D01*
X92603924Y-63494959D01*
X92584534Y-63342291D01*
X92556053Y-63225401D01*
X92518366Y-63128384D01*
X92365629Y-62917123D01*
X92147817Y-62778208D01*
X91890984Y-62717359D01*
X91621185Y-62740292D01*
X91364474Y-62852729D01*
X91339722Y-62869687D01*
X91230359Y-62964653D01*
X91145744Y-63088549D01*
X91066956Y-63273397D01*
X91019688Y-63411308D01*
X90993996Y-63449811D01*
X90945314Y-63443623D01*
X90859635Y-63383119D01*
X90722950Y-63258668D01*
X90547482Y-63086753D01*
X90366982Y-62910839D01*
X90214885Y-62769192D01*
X90109233Y-62678202D01*
X90069974Y-62652889D01*
X90052116Y-62705187D01*
X90038179Y-62845533D01*
X90030115Y-63049102D01*
X90028889Y-63175705D01*
X90028889Y-63698522D01*
X91695367Y-65362222D01*
X91948000Y-65362222D01*
X91948000Y-64536676D01*
X91778667Y-64374444D01*
X91675215Y-64258405D01*
X91624854Y-64138420D01*
X91609713Y-63965936D01*
X91609334Y-63914314D01*
X91618606Y-63725234D01*
X91652876Y-63616407D01*
X91718512Y-63557986D01*
X91820902Y-63512031D01*
X91887429Y-63515845D01*
X91925706Y-63584690D01*
X91943346Y-63733830D01*
X91947960Y-63978527D01*
X91948000Y-64018116D01*
X91948000Y-64536676D01*
X91948000Y-65362222D01*
X92625334Y-65362222D01*
X92624094Y-64360333D01*
G37*
X92624094Y-64360333D02*
X92622051Y-63984708D01*
X92615879Y-63702674D01*
X92603924Y-63494959D01*
X92584534Y-63342291D01*
X92556053Y-63225401D01*
X92518366Y-63128384D01*
X92365629Y-62917123D01*
X92147817Y-62778208D01*
X91890984Y-62717359D01*
X91621185Y-62740292D01*
X91364474Y-62852729D01*
X91339722Y-62869687D01*
X91230359Y-62964653D01*
X91145744Y-63088549D01*
X91066956Y-63273397D01*
X91019688Y-63411308D01*
X90993996Y-63449811D01*
X90945314Y-63443623D01*
X90859635Y-63383119D01*
X90722950Y-63258668D01*
X90547482Y-63086753D01*
X90366982Y-62910839D01*
X90214885Y-62769192D01*
X90109233Y-62678202D01*
X90069974Y-62652889D01*
X90052116Y-62705187D01*
X90038179Y-62845533D01*
X90030115Y-63049102D01*
X90028889Y-63175705D01*
X90028889Y-63698522D01*
X91695367Y-65362222D01*
X91948000Y-65362222D01*
X91948000Y-64536676D01*
X91778667Y-64374444D01*
X91675215Y-64258405D01*
X91624854Y-64138420D01*
X91609713Y-63965936D01*
X91609334Y-63914314D01*
X91618606Y-63725234D01*
X91652876Y-63616407D01*
X91718512Y-63557986D01*
X91820902Y-63512031D01*
X91887429Y-63515845D01*
X91925706Y-63584690D01*
X91943346Y-63733830D01*
X91947960Y-63978527D01*
X91948000Y-64018116D01*
X91948000Y-64536676D01*
X91948000Y-65362222D01*
X92625334Y-65362222D01*
X92624094Y-64360333D01*
G36*
X91882773Y-62236693D02*
G01*
X91775213Y-62106169D01*
X91633579Y-61964990D01*
X91476888Y-61831812D01*
X91324159Y-61725293D01*
X91194412Y-61664089D01*
X91173224Y-61658990D01*
X90979339Y-61568398D01*
X90827283Y-61389922D01*
X90734285Y-61145854D01*
X90722009Y-61075181D01*
X90676637Y-60913784D01*
X90573338Y-60753479D01*
X90424512Y-60593170D01*
X90156221Y-60328914D01*
X90092555Y-60511546D01*
X90054817Y-60695598D01*
X90036973Y-60943134D01*
X90039429Y-61206443D01*
X90062588Y-61437815D01*
X90083905Y-61532882D01*
X90225573Y-61827102D01*
X90451104Y-62094937D01*
X90731479Y-62308532D01*
X91025514Y-62436757D01*
X91225469Y-62464434D01*
X91478828Y-62463811D01*
X91730479Y-62437700D01*
X91919591Y-62391150D01*
X91937239Y-62337906D01*
X91882773Y-62236693D01*
G37*
X91882773Y-62236693D02*
X91775213Y-62106169D01*
X91633579Y-61964990D01*
X91476888Y-61831812D01*
X91324159Y-61725293D01*
X91194412Y-61664089D01*
X91173224Y-61658990D01*
X90979339Y-61568398D01*
X90827283Y-61389922D01*
X90734285Y-61145854D01*
X90722009Y-61075181D01*
X90676637Y-60913784D01*
X90573338Y-60753479D01*
X90424512Y-60593170D01*
X90156221Y-60328914D01*
X90092555Y-60511546D01*
X90054817Y-60695598D01*
X90036973Y-60943134D01*
X90039429Y-61206443D01*
X90062588Y-61437815D01*
X90083905Y-61532882D01*
X90225573Y-61827102D01*
X90451104Y-62094937D01*
X90731479Y-62308532D01*
X91025514Y-62436757D01*
X91225469Y-62464434D01*
X91478828Y-62463811D01*
X91730479Y-62437700D01*
X91919591Y-62391150D01*
X91937239Y-62337906D01*
X91882773Y-62236693D01*
G36*
X92017426Y-59212431D02*
G01*
X91903134Y-59077946D01*
X91742159Y-58924226D01*
X91558646Y-58772164D01*
X91376742Y-58642654D01*
X91220593Y-58556591D01*
X91174918Y-58540149D01*
X90953259Y-58436249D01*
X90790634Y-58278739D01*
X90710615Y-58092833D01*
X90706223Y-58038777D01*
X90673917Y-57938595D01*
X90591482Y-57792725D01*
X90480641Y-57630968D01*
X90363117Y-57483125D01*
X90260633Y-57378996D01*
X90202027Y-57347111D01*
X90129368Y-57398490D01*
X90076808Y-57535533D01*
X90045619Y-57732592D01*
X90037070Y-57964024D01*
X90052434Y-58204183D01*
X90092980Y-58427425D01*
X90141424Y-58570004D01*
X90295397Y-58819145D01*
X90513990Y-59051174D01*
X90760505Y-59231209D01*
X90910723Y-59301229D01*
X91071844Y-59339654D01*
X91279656Y-59365285D01*
X91506706Y-59377988D01*
X91725540Y-59377633D01*
X91908702Y-59364085D01*
X92028741Y-59337212D01*
X92060889Y-59306788D01*
X92017426Y-59212431D01*
G37*
X92017426Y-59212431D02*
X91903134Y-59077946D01*
X91742159Y-58924226D01*
X91558646Y-58772164D01*
X91376742Y-58642654D01*
X91220593Y-58556591D01*
X91174918Y-58540149D01*
X90953259Y-58436249D01*
X90790634Y-58278739D01*
X90710615Y-58092833D01*
X90706223Y-58038777D01*
X90673917Y-57938595D01*
X90591482Y-57792725D01*
X90480641Y-57630968D01*
X90363117Y-57483125D01*
X90260633Y-57378996D01*
X90202027Y-57347111D01*
X90129368Y-57398490D01*
X90076808Y-57535533D01*
X90045619Y-57732592D01*
X90037070Y-57964024D01*
X90052434Y-58204183D01*
X90092980Y-58427425D01*
X90141424Y-58570004D01*
X90295397Y-58819145D01*
X90513990Y-59051174D01*
X90760505Y-59231209D01*
X90910723Y-59301229D01*
X91071844Y-59339654D01*
X91279656Y-59365285D01*
X91506706Y-59377988D01*
X91725540Y-59377633D01*
X91908702Y-59364085D01*
X92028741Y-59337212D01*
X92060889Y-59306788D01*
X92017426Y-59212431D01*
G36*
X91946290Y-55813173D02*
G01*
X91826920Y-55677144D01*
X91681656Y-55528414D01*
X91358868Y-55202222D01*
X90028889Y-55202222D01*
X90028889Y-56048889D01*
X91016667Y-56048889D01*
X91407362Y-56047536D01*
X91693134Y-56039321D01*
X91881948Y-56018012D01*
X91981769Y-55977373D01*
X92000562Y-55911171D01*
X91946290Y-55813173D01*
G37*
X91946290Y-55813173D02*
X91826920Y-55677144D01*
X91681656Y-55528414D01*
X91358868Y-55202222D01*
X90028889Y-55202222D01*
X90028889Y-56048889D01*
X91016667Y-56048889D01*
X91407362Y-56047536D01*
X91693134Y-56039321D01*
X91881948Y-56018012D01*
X91981769Y-55977373D01*
X92000562Y-55911171D01*
X91946290Y-55813173D01*
G36*
X91312933Y-53481923D02*
G01*
X91162680Y-53316420D01*
X91057364Y-53210788D01*
X90731171Y-52888000D01*
X90028889Y-52888000D01*
X90028889Y-53734666D01*
X90706223Y-53734666D01*
X91028846Y-53730590D01*
X91244763Y-53712326D01*
X91360040Y-53670827D01*
X91380741Y-53597043D01*
X91312933Y-53481923D01*
G37*
X91312933Y-53481923D02*
X91162680Y-53316420D01*
X91057364Y-53210788D01*
X90731171Y-52888000D01*
X90028889Y-52888000D01*
X90028889Y-53734666D01*
X90706223Y-53734666D01*
X91028846Y-53730590D01*
X91244763Y-53712326D01*
X91360040Y-53670827D01*
X91380741Y-53597043D01*
X91312933Y-53481923D01*
G36*
X92060889Y-48880444D02*
G01*
X92060889Y-49804866D01*
X92058092Y-50186671D01*
X92047735Y-50468162D01*
X92026865Y-50661820D01*
X91992533Y-50780128D01*
X91941788Y-50835566D01*
X91871680Y-50840614D01*
X91819742Y-50824899D01*
X91781509Y-50788944D01*
X91754010Y-50703633D01*
X91734697Y-50551624D01*
X91721019Y-50315573D01*
X91713810Y-50104258D01*
X91702900Y-49804440D01*
X91687758Y-49593397D01*
X91664317Y-49447016D01*
X91628511Y-49341184D01*
X91576275Y-49251787D01*
X91568112Y-49240181D01*
X91366094Y-49040084D01*
X91122903Y-48924908D01*
X90860756Y-48890407D01*
X90601868Y-48932332D01*
X90368456Y-49046438D01*
X90182735Y-49228477D01*
X90066921Y-49474204D01*
X90054304Y-49529555D01*
X90047061Y-49625594D01*
X90076606Y-49715297D01*
X90158108Y-49824407D01*
X90306736Y-49978666D01*
X90335874Y-50007405D01*
X90649778Y-50315921D01*
X90649778Y-50056650D01*
X90676915Y-49837417D01*
X90756499Y-49713193D01*
X90885793Y-49687488D01*
X90929292Y-49698029D01*
X90979496Y-49721805D01*
X91012630Y-49768748D01*
X91032206Y-49859325D01*
X91041737Y-50014000D01*
X91044733Y-50253241D01*
X91044889Y-50371678D01*
X91047195Y-50657437D01*
X91056782Y-50856352D01*
X91077656Y-50994424D01*
X91113825Y-51097651D01*
X91169294Y-51192031D01*
X91171889Y-51195871D01*
X91304742Y-51345438D01*
X91477703Y-51485317D01*
X91524667Y-51514963D01*
X91790527Y-51612087D01*
X92055306Y-51606175D01*
X92296793Y-51505085D01*
X92492777Y-51316676D01*
X92590692Y-51137808D01*
X92625639Y-51025892D01*
X92650881Y-50879339D01*
X92667731Y-50680251D01*
X92677499Y-50410730D01*
X92681498Y-50052879D01*
X92681778Y-49895302D01*
X92681778Y-48880444D01*
X92060889Y-48880444D01*
G37*
X92060889Y-48880444D02*
X92060889Y-49804866D01*
X92058092Y-50186671D01*
X92047735Y-50468162D01*
X92026865Y-50661820D01*
X91992533Y-50780128D01*
X91941788Y-50835566D01*
X91871680Y-50840614D01*
X91819742Y-50824899D01*
X91781509Y-50788944D01*
X91754010Y-50703633D01*
X91734697Y-50551624D01*
X91721019Y-50315573D01*
X91713810Y-50104258D01*
X91702900Y-49804440D01*
X91687758Y-49593397D01*
X91664317Y-49447016D01*
X91628511Y-49341184D01*
X91576275Y-49251787D01*
X91568112Y-49240181D01*
X91366094Y-49040084D01*
X91122903Y-48924908D01*
X90860756Y-48890407D01*
X90601868Y-48932332D01*
X90368456Y-49046438D01*
X90182735Y-49228477D01*
X90066921Y-49474204D01*
X90054304Y-49529555D01*
X90047061Y-49625594D01*
X90076606Y-49715297D01*
X90158108Y-49824407D01*
X90306736Y-49978666D01*
X90335874Y-50007405D01*
X90649778Y-50315921D01*
X90649778Y-50056650D01*
X90676915Y-49837417D01*
X90756499Y-49713193D01*
X90885793Y-49687488D01*
X90929292Y-49698029D01*
X90979496Y-49721805D01*
X91012630Y-49768748D01*
X91032206Y-49859325D01*
X91041737Y-50014000D01*
X91044733Y-50253241D01*
X91044889Y-50371678D01*
X91047195Y-50657437D01*
X91056782Y-50856352D01*
X91077656Y-50994424D01*
X91113825Y-51097651D01*
X91169294Y-51192031D01*
X91171889Y-51195871D01*
X91304742Y-51345438D01*
X91477703Y-51485317D01*
X91524667Y-51514963D01*
X91790527Y-51612087D01*
X92055306Y-51606175D01*
X92296793Y-51505085D01*
X92492777Y-51316676D01*
X92590692Y-51137808D01*
X92625639Y-51025892D01*
X92650881Y-50879339D01*
X92667731Y-50680251D01*
X92677499Y-50410730D01*
X92681498Y-50052879D01*
X92681778Y-49895302D01*
X92681778Y-48880444D01*
X92060889Y-48880444D01*
G36*
X91155112Y-59875649D02*
G01*
X91148069Y-59728667D01*
X91138087Y-59662552D01*
X91136449Y-59661333D01*
X91017602Y-59692815D01*
X90853862Y-59774386D01*
X90673374Y-59886738D01*
X90504286Y-60010562D01*
X90374742Y-60126548D01*
X90312889Y-60215387D01*
X90311112Y-60227550D01*
X90347779Y-60283450D01*
X90443395Y-60393474D01*
X90562328Y-60518438D01*
X90715883Y-60661134D01*
X90808895Y-60715043D01*
X90842966Y-60696583D01*
X90912938Y-60617472D01*
X91015083Y-60554896D01*
X91088757Y-60513198D01*
X91131481Y-60453158D01*
X91151615Y-60346688D01*
X91157523Y-60165700D01*
X91157778Y-60075606D01*
X91155112Y-59875649D01*
G37*
X91155112Y-59875649D02*
X91148069Y-59728667D01*
X91138087Y-59662552D01*
X91136449Y-59661333D01*
X91017602Y-59692815D01*
X90853862Y-59774386D01*
X90673374Y-59886738D01*
X90504286Y-60010562D01*
X90374742Y-60126548D01*
X90312889Y-60215387D01*
X90311112Y-60227550D01*
X90347779Y-60283450D01*
X90443395Y-60393474D01*
X90562328Y-60518438D01*
X90715883Y-60661134D01*
X90808895Y-60715043D01*
X90842966Y-60696583D01*
X90912938Y-60617472D01*
X91015083Y-60554896D01*
X91088757Y-60513198D01*
X91131481Y-60453158D01*
X91151615Y-60346688D01*
X91157523Y-60165700D01*
X91157778Y-60075606D01*
X91155112Y-59875649D01*
G36*
X91928749Y-56556889D02*
G01*
X91509071Y-56566373D01*
X91178859Y-56598050D01*
X90916031Y-56656760D01*
X90698506Y-56747339D01*
X90514409Y-56866780D01*
X90369484Y-57006300D01*
X90321894Y-57142657D01*
X90371944Y-57295292D01*
X90519940Y-57483648D01*
X90524190Y-57488222D01*
X90734445Y-57714000D01*
X90888893Y-57565988D01*
X90993288Y-57480554D01*
X91113168Y-57420180D01*
X91269509Y-57380776D01*
X91483289Y-57358252D01*
X91775485Y-57348518D01*
X92011500Y-57347111D01*
X92625334Y-57347111D01*
X92625334Y-56556889D01*
X91928749Y-56556889D01*
G37*
X91928749Y-56556889D02*
X91509071Y-56566373D01*
X91178859Y-56598050D01*
X90916031Y-56656760D01*
X90698506Y-56747339D01*
X90514409Y-56866780D01*
X90369484Y-57006300D01*
X90321894Y-57142657D01*
X90371944Y-57295292D01*
X90519940Y-57483648D01*
X90524190Y-57488222D01*
X90734445Y-57714000D01*
X90888893Y-57565988D01*
X90993288Y-57480554D01*
X91113168Y-57420180D01*
X91269509Y-57380776D01*
X91483289Y-57358252D01*
X91775485Y-57348518D01*
X92011500Y-57347111D01*
X92625334Y-57347111D01*
X92625334Y-56556889D01*
X91928749Y-56556889D01*
G36*
X91604982Y-67604544D02*
G01*
X91593253Y-67417978D01*
X91576142Y-67304514D01*
X91562944Y-67281333D01*
X91486218Y-67298269D01*
X91343027Y-67341361D01*
X91252827Y-67371194D01*
X91095266Y-67445437D01*
X90911795Y-67561841D01*
X90727709Y-67700112D01*
X90568304Y-67839960D01*
X90458873Y-67961094D01*
X90424000Y-68036083D01*
X90461846Y-68103424D01*
X90563048Y-68226716D01*
X90709107Y-68384174D01*
X90783045Y-68458891D01*
X90961010Y-68629284D01*
X91077396Y-68723890D01*
X91145332Y-68751556D01*
X91176810Y-68724262D01*
X91245377Y-68639018D01*
X91372342Y-68540154D01*
X91410433Y-68516426D01*
X91609334Y-68399071D01*
X91609334Y-67840202D01*
X91604982Y-67604544D01*
G37*
X91604982Y-67604544D02*
X91593253Y-67417978D01*
X91576142Y-67304514D01*
X91562944Y-67281333D01*
X91486218Y-67298269D01*
X91343027Y-67341361D01*
X91252827Y-67371194D01*
X91095266Y-67445437D01*
X90911795Y-67561841D01*
X90727709Y-67700112D01*
X90568304Y-67839960D01*
X90458873Y-67961094D01*
X90424000Y-68036083D01*
X90461846Y-68103424D01*
X90563048Y-68226716D01*
X90709107Y-68384174D01*
X90783045Y-68458891D01*
X90961010Y-68629284D01*
X91077396Y-68723890D01*
X91145332Y-68751556D01*
X91176810Y-68724262D01*
X91245377Y-68639018D01*
X91372342Y-68540154D01*
X91410433Y-68516426D01*
X91609334Y-68399071D01*
X91609334Y-67840202D01*
X91604982Y-67604544D01*
G36*
X92060889Y-51928444D02*
G01*
X92060889Y-52888000D01*
X91552889Y-52888000D01*
X91293763Y-52892713D01*
X91132989Y-52908199D01*
X91056371Y-52936480D01*
X91044889Y-52960322D01*
X91082878Y-53031493D01*
X91183707Y-53155922D01*
X91327671Y-53309861D01*
X91369445Y-53351502D01*
X91595939Y-53553166D01*
X91773536Y-53663391D01*
X91863334Y-53688401D01*
X92032667Y-53706444D01*
X92048976Y-54200333D01*
X92065284Y-54694222D01*
X92681778Y-54694222D01*
X92681778Y-51928444D01*
X92060889Y-51928444D01*
G37*
X92060889Y-51928444D02*
X92060889Y-52888000D01*
X91552889Y-52888000D01*
X91293763Y-52892713D01*
X91132989Y-52908199D01*
X91056371Y-52936480D01*
X91044889Y-52960322D01*
X91082878Y-53031493D01*
X91183707Y-53155922D01*
X91327671Y-53309861D01*
X91369445Y-53351502D01*
X91595939Y-53553166D01*
X91773536Y-53663391D01*
X91863334Y-53688401D01*
X92032667Y-53706444D01*
X92048976Y-54200333D01*
X92065284Y-54694222D01*
X92681778Y-54694222D01*
X92681778Y-51928444D01*
X92060889Y-51928444D01*
G36*
X92709927Y-60925585D02*
G01*
X92679978Y-60732372D01*
X92640428Y-60557975D01*
X92597295Y-60434970D01*
X92561177Y-60395111D01*
X92516242Y-60350155D01*
X92512445Y-60321899D01*
X92467012Y-60227751D01*
X92348473Y-60100809D01*
X92183469Y-59961145D01*
X91998641Y-59828828D01*
X91820628Y-59723931D01*
X91676073Y-59666522D01*
X91635641Y-59661333D01*
X91622919Y-59713094D01*
X91613688Y-59849671D01*
X91609726Y-60043002D01*
X91609691Y-60070555D01*
X91612406Y-60283654D01*
X91626861Y-60414106D01*
X91663209Y-60492144D01*
X91731605Y-60547997D01*
X91779534Y-60576223D01*
X91952996Y-60735476D01*
X92040489Y-60955943D01*
X92040296Y-61174191D01*
X91984843Y-61334537D01*
X91885351Y-61488434D01*
X91769557Y-61600347D01*
X91679889Y-61635913D01*
X91617227Y-61659157D01*
X91634160Y-61730761D01*
X91734448Y-61857730D01*
X91877445Y-62004096D01*
X92145556Y-62265936D01*
X92378756Y-62009784D01*
X92511627Y-61842182D01*
X92611013Y-61677109D01*
X92646867Y-61582372D01*
X92685743Y-61391494D01*
X92716941Y-61238138D01*
X92724254Y-61105033D01*
X92709927Y-60925585D01*
G37*
X92709927Y-60925585D02*
X92679978Y-60732372D01*
X92640428Y-60557975D01*
X92597295Y-60434970D01*
X92561177Y-60395111D01*
X92516242Y-60350155D01*
X92512445Y-60321899D01*
X92467012Y-60227751D01*
X92348473Y-60100809D01*
X92183469Y-59961145D01*
X91998641Y-59828828D01*
X91820628Y-59723931D01*
X91676073Y-59666522D01*
X91635641Y-59661333D01*
X91622919Y-59713094D01*
X91613688Y-59849671D01*
X91609726Y-60043002D01*
X91609691Y-60070555D01*
X91612406Y-60283654D01*
X91626861Y-60414106D01*
X91663209Y-60492144D01*
X91731605Y-60547997D01*
X91779534Y-60576223D01*
X91952996Y-60735476D01*
X92040489Y-60955943D01*
X92040296Y-61174191D01*
X91984843Y-61334537D01*
X91885351Y-61488434D01*
X91769557Y-61600347D01*
X91679889Y-61635913D01*
X91617227Y-61659157D01*
X91634160Y-61730761D01*
X91734448Y-61857730D01*
X91877445Y-62004096D01*
X92145556Y-62265936D01*
X92378756Y-62009784D01*
X92511627Y-61842182D01*
X92611013Y-61677109D01*
X92646867Y-61582372D01*
X92685743Y-61391494D01*
X92716941Y-61238138D01*
X92724254Y-61105033D01*
X92709927Y-60925585D01*
G36*
X92145556Y-65926666D02*
G01*
X91890132Y-65933564D01*
X91727023Y-65953435D01*
X91665982Y-65985048D01*
X91665778Y-65987301D01*
X91702432Y-66053862D01*
X91799853Y-66177193D01*
X91939227Y-66333996D01*
X91984815Y-66382412D01*
X92168961Y-66563965D01*
X92307111Y-66669358D01*
X92420304Y-66713258D01*
X92464592Y-66716889D01*
X92625334Y-66716889D01*
X92625334Y-65926666D01*
X92145556Y-65926666D01*
G37*
X92145556Y-65926666D02*
X91890132Y-65933564D01*
X91727023Y-65953435D01*
X91665982Y-65985048D01*
X91665778Y-65987301D01*
X91702432Y-66053862D01*
X91799853Y-66177193D01*
X91939227Y-66333996D01*
X91984815Y-66382412D01*
X92168961Y-66563965D01*
X92307111Y-66669358D01*
X92420304Y-66713258D01*
X92464592Y-66716889D01*
X92625334Y-66716889D01*
X92625334Y-65926666D01*
X92145556Y-65926666D01*
G36*
X92145556Y-55258666D02*
G01*
X91890132Y-55265564D01*
X91727023Y-55285435D01*
X91665982Y-55317048D01*
X91665778Y-55319301D01*
X91702432Y-55385862D01*
X91799853Y-55509193D01*
X91939227Y-55665996D01*
X91984815Y-55714412D01*
X92168961Y-55895965D01*
X92307111Y-56001358D01*
X92420304Y-56045258D01*
X92464592Y-56048889D01*
X92625334Y-56048889D01*
X92625334Y-55258666D01*
X92145556Y-55258666D01*
G37*
X92145556Y-55258666D02*
X91890132Y-55265564D01*
X91727023Y-55285435D01*
X91665982Y-55317048D01*
X91665778Y-55319301D01*
X91702432Y-55385862D01*
X91799853Y-55509193D01*
X91939227Y-55665996D01*
X91984815Y-55714412D01*
X92168961Y-55895965D01*
X92307111Y-56001358D01*
X92420304Y-56045258D01*
X92464592Y-56048889D01*
X92625334Y-56048889D01*
X92625334Y-55258666D01*
X92145556Y-55258666D01*
G36*
X92173778Y-58588889D02*
G01*
X91930615Y-58594555D01*
X91785942Y-58613040D01*
X91725857Y-58646570D01*
X91722223Y-58661211D01*
X91760086Y-58732396D01*
X91860644Y-58857237D01*
X92004350Y-59012055D01*
X92048415Y-59056322D01*
X92243142Y-59232750D01*
X92402036Y-59344434D01*
X92499971Y-59379111D01*
X92565598Y-59371037D01*
X92603174Y-59330518D01*
X92620454Y-59233105D01*
X92625196Y-59054351D01*
X92625334Y-58984000D01*
X92625334Y-58588889D01*
X92173778Y-58588889D01*
G37*
X92173778Y-58588889D02*
X91930615Y-58594555D01*
X91785942Y-58613040D01*
X91725857Y-58646570D01*
X91722223Y-58661211D01*
X91760086Y-58732396D01*
X91860644Y-58857237D01*
X92004350Y-59012055D01*
X92048415Y-59056322D01*
X92243142Y-59232750D01*
X92402036Y-59344434D01*
X92499971Y-59379111D01*
X92565598Y-59371037D01*
X92603174Y-59330518D01*
X92620454Y-59233105D01*
X92625196Y-59054351D01*
X92625334Y-58984000D01*
X92625334Y-58588889D01*
X92173778Y-58588889D01*
G36*
X93852724Y-68985516D02*
G01*
X93758594Y-68572141D01*
X93580830Y-68186773D01*
X93322450Y-67845511D01*
X92986473Y-67564452D01*
X92738223Y-67426422D01*
X92561138Y-67349313D01*
X92419928Y-67296841D01*
X92357223Y-67281884D01*
X92322242Y-67316049D01*
X92300121Y-67427838D01*
X92289213Y-67630212D01*
X92287366Y-67831666D01*
X92288065Y-68382000D01*
X92486826Y-68510767D01*
X92720978Y-68720144D01*
X92859974Y-68969623D01*
X92904046Y-69238935D01*
X92853426Y-69507809D01*
X92708347Y-69755974D01*
X92470180Y-69962444D01*
X92352826Y-70050188D01*
X92291364Y-70122991D01*
X92288841Y-70133408D01*
X92325744Y-70196194D01*
X92426453Y-70315940D01*
X92572899Y-70471889D01*
X92657411Y-70556741D01*
X93028156Y-70922000D01*
X93332567Y-70597152D01*
X93603143Y-70232718D01*
X93778016Y-69831902D01*
X93860204Y-69410802D01*
X93852724Y-68985516D01*
G37*
X93852724Y-68985516D02*
X93758594Y-68572141D01*
X93580830Y-68186773D01*
X93322450Y-67845511D01*
X92986473Y-67564452D01*
X92738223Y-67426422D01*
X92561138Y-67349313D01*
X92419928Y-67296841D01*
X92357223Y-67281884D01*
X92322242Y-67316049D01*
X92300121Y-67427838D01*
X92289213Y-67630212D01*
X92287366Y-67831666D01*
X92288065Y-68382000D01*
X92486826Y-68510767D01*
X92720978Y-68720144D01*
X92859974Y-68969623D01*
X92904046Y-69238935D01*
X92853426Y-69507809D01*
X92708347Y-69755974D01*
X92470180Y-69962444D01*
X92352826Y-70050188D01*
X92291364Y-70122991D01*
X92288841Y-70133408D01*
X92325744Y-70196194D01*
X92426453Y-70315940D01*
X92572899Y-70471889D01*
X92657411Y-70556741D01*
X93028156Y-70922000D01*
X93332567Y-70597152D01*
X93603143Y-70232718D01*
X93778016Y-69831902D01*
X93860204Y-69410802D01*
X93852724Y-68985516D01*
G36*
X95352187Y-60769448D02*
G01*
X95248831Y-60634315D01*
X95101165Y-60475327D01*
X95056635Y-60431925D01*
X94888704Y-60274838D01*
X94768445Y-60180230D01*
X94662228Y-60132263D01*
X94536426Y-60115096D01*
X94379302Y-60112889D01*
X94036445Y-60112889D01*
X94036445Y-60959555D01*
X94713778Y-60959555D01*
X95000475Y-60958214D01*
X95192845Y-60952287D01*
X95309436Y-60938917D01*
X95368798Y-60915249D01*
X95389478Y-60878426D01*
X95391112Y-60855258D01*
X95352187Y-60769448D01*
G37*
X95352187Y-60769448D02*
X95248831Y-60634315D01*
X95101165Y-60475327D01*
X95056635Y-60431925D01*
X94888704Y-60274838D01*
X94768445Y-60180230D01*
X94662228Y-60132263D01*
X94536426Y-60115096D01*
X94379302Y-60112889D01*
X94036445Y-60112889D01*
X94036445Y-60959555D01*
X94713778Y-60959555D01*
X95000475Y-60958214D01*
X95192845Y-60952287D01*
X95309436Y-60938917D01*
X95368798Y-60915249D01*
X95389478Y-60878426D01*
X95391112Y-60855258D01*
X95352187Y-60769448D01*
G36*
X96766200Y-74431009D02*
G01*
X96671525Y-74303372D01*
X96528176Y-74145440D01*
X96356439Y-73976626D01*
X96176605Y-73816346D01*
X96008960Y-73684011D01*
X95873793Y-73599037D01*
X95820618Y-73579517D01*
X95547327Y-73473955D01*
X95315732Y-73282669D01*
X95146305Y-73030809D01*
X95059517Y-72743528D01*
X95052445Y-72635742D01*
X95039708Y-72526896D01*
X94990940Y-72420052D01*
X94890308Y-72290940D01*
X94721976Y-72115290D01*
X94696122Y-72089583D01*
X94339799Y-71736427D01*
X94230455Y-71857087D01*
X94169607Y-71984872D01*
X94126716Y-72195477D01*
X94102483Y-72460158D01*
X94097611Y-72750172D01*
X94112802Y-73036777D01*
X94148758Y-73291229D01*
X94191577Y-73448638D01*
X94376703Y-73804620D01*
X94645998Y-74124735D01*
X94976914Y-74392864D01*
X95346899Y-74592887D01*
X95733405Y-74708683D01*
X95985665Y-74731143D01*
X96210337Y-74715222D01*
X96433928Y-74674394D01*
X96625849Y-74617089D01*
X96755508Y-74551739D01*
X96791910Y-74508937D01*
X96766200Y-74431009D01*
G37*
X96766200Y-74431009D02*
X96671525Y-74303372D01*
X96528176Y-74145440D01*
X96356439Y-73976626D01*
X96176605Y-73816346D01*
X96008960Y-73684011D01*
X95873793Y-73599037D01*
X95820618Y-73579517D01*
X95547327Y-73473955D01*
X95315732Y-73282669D01*
X95146305Y-73030809D01*
X95059517Y-72743528D01*
X95052445Y-72635742D01*
X95039708Y-72526896D01*
X94990940Y-72420052D01*
X94890308Y-72290940D01*
X94721976Y-72115290D01*
X94696122Y-72089583D01*
X94339799Y-71736427D01*
X94230455Y-71857087D01*
X94169607Y-71984872D01*
X94126716Y-72195477D01*
X94102483Y-72460158D01*
X94097611Y-72750172D01*
X94112802Y-73036777D01*
X94148758Y-73291229D01*
X94191577Y-73448638D01*
X94376703Y-73804620D01*
X94645998Y-74124735D01*
X94976914Y-74392864D01*
X95346899Y-74592887D01*
X95733405Y-74708683D01*
X95985665Y-74731143D01*
X96210337Y-74715222D01*
X96433928Y-74674394D01*
X96625849Y-74617089D01*
X96755508Y-74551739D01*
X96791910Y-74508937D01*
X96766200Y-74431009D01*
G36*
X94954489Y-69058764D02*
G01*
X94846649Y-68918911D01*
X94697522Y-68760810D01*
X94532152Y-68608484D01*
X94375581Y-68485957D01*
X94252851Y-68417254D01*
X94218253Y-68410222D01*
X94154379Y-68417704D01*
X94116924Y-68455922D01*
X94098881Y-68548534D01*
X94093245Y-68719198D01*
X94092889Y-68833555D01*
X94092889Y-69256889D01*
X94544445Y-69256889D01*
X94770985Y-69253989D01*
X94906876Y-69242002D01*
X94974283Y-69215990D01*
X94995369Y-69171020D01*
X94996000Y-69156344D01*
X94954489Y-69058764D01*
G37*
X94954489Y-69058764D02*
X94846649Y-68918911D01*
X94697522Y-68760810D01*
X94532152Y-68608484D01*
X94375581Y-68485957D01*
X94252851Y-68417254D01*
X94218253Y-68410222D01*
X94154379Y-68417704D01*
X94116924Y-68455922D01*
X94098881Y-68548534D01*
X94093245Y-68719198D01*
X94092889Y-68833555D01*
X94092889Y-69256889D01*
X94544445Y-69256889D01*
X94770985Y-69253989D01*
X94906876Y-69242002D01*
X94974283Y-69215990D01*
X94995369Y-69171020D01*
X94996000Y-69156344D01*
X94954489Y-69058764D01*
G36*
X95297618Y-66696532D02*
G01*
X95198257Y-66571161D01*
X95054264Y-66409122D01*
X94967778Y-66317674D01*
X94806692Y-66139923D01*
X94681611Y-65981165D01*
X94610542Y-65865287D01*
X94600889Y-65831018D01*
X94562525Y-65737194D01*
X94462786Y-65600677D01*
X94346889Y-65475111D01*
X94092889Y-65225829D01*
X94092889Y-66829777D01*
X94713778Y-66829777D01*
X95016116Y-66825250D01*
X95214130Y-66811083D01*
X95316048Y-66786402D01*
X95334667Y-66763741D01*
X95297618Y-66696532D01*
G37*
X95297618Y-66696532D02*
X95198257Y-66571161D01*
X95054264Y-66409122D01*
X94967778Y-66317674D01*
X94806692Y-66139923D01*
X94681611Y-65981165D01*
X94610542Y-65865287D01*
X94600889Y-65831018D01*
X94562525Y-65737194D01*
X94462786Y-65600677D01*
X94346889Y-65475111D01*
X94092889Y-65225829D01*
X94092889Y-66829777D01*
X94713778Y-66829777D01*
X95016116Y-66825250D01*
X95214130Y-66811083D01*
X95316048Y-66786402D01*
X95334667Y-66763741D01*
X95297618Y-66696532D01*
G36*
X95521705Y-63710655D02*
G01*
X95421301Y-63579003D01*
X95282954Y-63423701D01*
X95130385Y-63269289D01*
X94987316Y-63140303D01*
X94877468Y-63061282D01*
X94839142Y-63048000D01*
X94809828Y-63015477D01*
X94789348Y-62910254D01*
X94776700Y-62720852D01*
X94770883Y-62435791D01*
X94770223Y-62257777D01*
X94770223Y-61467555D01*
X94092889Y-61467555D01*
X94092889Y-63894666D01*
X94826667Y-63894666D01*
X95127495Y-63893387D01*
X95333197Y-63887926D01*
X95461524Y-63875853D01*
X95530226Y-63854734D01*
X95557054Y-63822139D01*
X95560445Y-63794122D01*
X95521705Y-63710655D01*
G37*
X95521705Y-63710655D02*
X95421301Y-63579003D01*
X95282954Y-63423701D01*
X95130385Y-63269289D01*
X94987316Y-63140303D01*
X94877468Y-63061282D01*
X94839142Y-63048000D01*
X94809828Y-63015477D01*
X94789348Y-62910254D01*
X94776700Y-62720852D01*
X94770883Y-62435791D01*
X94770223Y-62257777D01*
X94770223Y-61467555D01*
X94092889Y-61467555D01*
X94092889Y-63894666D01*
X94826667Y-63894666D01*
X95127495Y-63893387D01*
X95333197Y-63887926D01*
X95461524Y-63875853D01*
X95530226Y-63854734D01*
X95557054Y-63822139D01*
X95560445Y-63794122D01*
X95521705Y-63710655D01*
G36*
X96688094Y-59957666D02*
G01*
X96686051Y-59582042D01*
X96679879Y-59300007D01*
X96667924Y-59092292D01*
X96648534Y-58939625D01*
X96620053Y-58822734D01*
X96582366Y-58725718D01*
X96429629Y-58514457D01*
X96211817Y-58375542D01*
X95954984Y-58314692D01*
X95685185Y-58337626D01*
X95428474Y-58450062D01*
X95403722Y-58467021D01*
X95294384Y-58561956D01*
X95209788Y-58685799D01*
X95131016Y-58870567D01*
X95083667Y-59008697D01*
X95058341Y-59045338D01*
X95009658Y-59038574D01*
X94924349Y-58978953D01*
X94789148Y-58857026D01*
X94590787Y-58663340D01*
X94570376Y-58643054D01*
X94092889Y-58168048D01*
X94092889Y-59295856D01*
X94926128Y-60127705D01*
X95759367Y-60959555D01*
X96012000Y-60959555D01*
X96012000Y-60134009D01*
X95842667Y-59971777D01*
X95739215Y-59855738D01*
X95688854Y-59735754D01*
X95673713Y-59563269D01*
X95673334Y-59511648D01*
X95682606Y-59322567D01*
X95716876Y-59213741D01*
X95782512Y-59155319D01*
X95884902Y-59109364D01*
X95951429Y-59113178D01*
X95989706Y-59182023D01*
X96007346Y-59331163D01*
X96011960Y-59575860D01*
X96012000Y-59615449D01*
X96012000Y-60134009D01*
X96012000Y-60959555D01*
X96689334Y-60959555D01*
X96688094Y-59957666D01*
G37*
X96688094Y-59957666D02*
X96686051Y-59582042D01*
X96679879Y-59300007D01*
X96667924Y-59092292D01*
X96648534Y-58939625D01*
X96620053Y-58822734D01*
X96582366Y-58725718D01*
X96429629Y-58514457D01*
X96211817Y-58375542D01*
X95954984Y-58314692D01*
X95685185Y-58337626D01*
X95428474Y-58450062D01*
X95403722Y-58467021D01*
X95294384Y-58561956D01*
X95209788Y-58685799D01*
X95131016Y-58870567D01*
X95083667Y-59008697D01*
X95058341Y-59045338D01*
X95009658Y-59038574D01*
X94924349Y-58978953D01*
X94789148Y-58857026D01*
X94590787Y-58663340D01*
X94570376Y-58643054D01*
X94092889Y-58168048D01*
X94092889Y-59295856D01*
X94926128Y-60127705D01*
X95759367Y-60959555D01*
X96012000Y-60959555D01*
X96012000Y-60134009D01*
X95842667Y-59971777D01*
X95739215Y-59855738D01*
X95688854Y-59735754D01*
X95673713Y-59563269D01*
X95673334Y-59511648D01*
X95682606Y-59322567D01*
X95716876Y-59213741D01*
X95782512Y-59155319D01*
X95884902Y-59109364D01*
X95951429Y-59113178D01*
X95989706Y-59182023D01*
X96007346Y-59331163D01*
X96011960Y-59575860D01*
X96012000Y-59615449D01*
X96012000Y-60134009D01*
X96012000Y-60959555D01*
X96689334Y-60959555D01*
X96688094Y-59957666D01*
G36*
X96766200Y-57328342D02*
G01*
X96671525Y-57200705D01*
X96528176Y-57042773D01*
X96356439Y-56873960D01*
X96176605Y-56713679D01*
X96008960Y-56581345D01*
X95873793Y-56496370D01*
X95820618Y-56476850D01*
X95547327Y-56371288D01*
X95315732Y-56180002D01*
X95146305Y-55928142D01*
X95059517Y-55640861D01*
X95052445Y-55533076D01*
X95039708Y-55424229D01*
X94990940Y-55317386D01*
X94890308Y-55188274D01*
X94721976Y-55012624D01*
X94696122Y-54986916D01*
X94339799Y-54633760D01*
X94230455Y-54754420D01*
X94169607Y-54882205D01*
X94126716Y-55092810D01*
X94102483Y-55357491D01*
X94097611Y-55647506D01*
X94112802Y-55934110D01*
X94148758Y-56188563D01*
X94191577Y-56345971D01*
X94376703Y-56701953D01*
X94645998Y-57022069D01*
X94976914Y-57290197D01*
X95346899Y-57490220D01*
X95733405Y-57606016D01*
X95985665Y-57628476D01*
X96210337Y-57612555D01*
X96433928Y-57571727D01*
X96625849Y-57514423D01*
X96755508Y-57449073D01*
X96791910Y-57406270D01*
X96766200Y-57328342D01*
G37*
X96766200Y-57328342D02*
X96671525Y-57200705D01*
X96528176Y-57042773D01*
X96356439Y-56873960D01*
X96176605Y-56713679D01*
X96008960Y-56581345D01*
X95873793Y-56496370D01*
X95820618Y-56476850D01*
X95547327Y-56371288D01*
X95315732Y-56180002D01*
X95146305Y-55928142D01*
X95059517Y-55640861D01*
X95052445Y-55533076D01*
X95039708Y-55424229D01*
X94990940Y-55317386D01*
X94890308Y-55188274D01*
X94721976Y-55012624D01*
X94696122Y-54986916D01*
X94339799Y-54633760D01*
X94230455Y-54754420D01*
X94169607Y-54882205D01*
X94126716Y-55092810D01*
X94102483Y-55357491D01*
X94097611Y-55647506D01*
X94112802Y-55934110D01*
X94148758Y-56188563D01*
X94191577Y-56345971D01*
X94376703Y-56701953D01*
X94645998Y-57022069D01*
X94976914Y-57290197D01*
X95346899Y-57490220D01*
X95733405Y-57606016D01*
X95985665Y-57628476D01*
X96210337Y-57612555D01*
X96433928Y-57571727D01*
X96625849Y-57514423D01*
X96755508Y-57449073D01*
X96791910Y-57406270D01*
X96766200Y-57328342D01*
G36*
X96010290Y-52878062D02*
G01*
X95890920Y-52742033D01*
X95745656Y-52593303D01*
X95422868Y-52267111D01*
X94092889Y-52267111D01*
X94092889Y-53113777D01*
X95080667Y-53113777D01*
X95471362Y-53112425D01*
X95757134Y-53104210D01*
X95945948Y-53082901D01*
X96045769Y-53042262D01*
X96064562Y-52976060D01*
X96010290Y-52878062D01*
G37*
X96010290Y-52878062D02*
X95890920Y-52742033D01*
X95745656Y-52593303D01*
X95422868Y-52267111D01*
X94092889Y-52267111D01*
X94092889Y-53113777D01*
X95080667Y-53113777D01*
X95471362Y-53112425D01*
X95757134Y-53104210D01*
X95945948Y-53082901D01*
X96045769Y-53042262D01*
X96064562Y-52976060D01*
X96010290Y-52878062D01*
G36*
X95376933Y-50546812D02*
G01*
X95226680Y-50381308D01*
X95121364Y-50275677D01*
X94795171Y-49952889D01*
X94092889Y-49952889D01*
X94092889Y-50799555D01*
X94770223Y-50799555D01*
X95092846Y-50795479D01*
X95308763Y-50777215D01*
X95424040Y-50735716D01*
X95444741Y-50661931D01*
X95376933Y-50546812D01*
G37*
X95376933Y-50546812D02*
X95226680Y-50381308D01*
X95121364Y-50275677D01*
X94795171Y-49952889D01*
X94092889Y-49952889D01*
X94092889Y-50799555D01*
X94770223Y-50799555D01*
X95092846Y-50795479D01*
X95308763Y-50777215D01*
X95424040Y-50735716D01*
X95444741Y-50661931D01*
X95376933Y-50546812D01*
G36*
X94952418Y-47340721D02*
G01*
X94867970Y-47223447D01*
X94739168Y-47076779D01*
X94587229Y-46922114D01*
X94433373Y-46780848D01*
X94298817Y-46674378D01*
X94204780Y-46624101D01*
X94193298Y-46622666D01*
X94141573Y-46636402D01*
X94111199Y-46692787D01*
X94096777Y-46814592D01*
X94092905Y-47024587D01*
X94092889Y-47046000D01*
X94092889Y-47469333D01*
X94512892Y-47469333D01*
X94735601Y-47461265D01*
X94896969Y-47439383D01*
X94971292Y-47407203D01*
X94952418Y-47340721D01*
G37*
X94952418Y-47340721D02*
X94867970Y-47223447D01*
X94739168Y-47076779D01*
X94587229Y-46922114D01*
X94433373Y-46780848D01*
X94298817Y-46674378D01*
X94204780Y-46624101D01*
X94193298Y-46622666D01*
X94141573Y-46636402D01*
X94111199Y-46692787D01*
X94096777Y-46814592D01*
X94092905Y-47024587D01*
X94092889Y-47046000D01*
X94092889Y-47469333D01*
X94512892Y-47469333D01*
X94735601Y-47461265D01*
X94896969Y-47439383D01*
X94971292Y-47407203D01*
X94952418Y-47340721D01*
G36*
X96685279Y-65553021D02*
G01*
X96670428Y-65247794D01*
X96640747Y-65019537D01*
X96592207Y-64850392D01*
X96520773Y-64722500D01*
X96422416Y-64618005D01*
X96380003Y-64582960D01*
X96129471Y-64448252D01*
X95865472Y-64425333D01*
X95617451Y-64502297D01*
X95473263Y-64568934D01*
X95374776Y-64585292D01*
X95266617Y-64551371D01*
X95164772Y-64502297D01*
X94929250Y-64422373D01*
X94750789Y-64425516D01*
X94587353Y-64487471D01*
X94415520Y-64599841D01*
X94265944Y-64736254D01*
X94169277Y-64870338D01*
X94149334Y-64942978D01*
X94187895Y-65045828D01*
X94286456Y-65183376D01*
X94362970Y-65265699D01*
X94576605Y-65474309D01*
X94694759Y-65356154D01*
X94795147Y-65277667D01*
X94886858Y-65280913D01*
X94939732Y-65305872D01*
X95004686Y-65349605D01*
X95039982Y-65412083D01*
X95051478Y-65521452D01*
X95045033Y-65705857D01*
X95039992Y-65787597D01*
X95013432Y-66201450D01*
X95330909Y-66515614D01*
X95648385Y-66829777D01*
X96030556Y-66829777D01*
X96030556Y-66039555D01*
X95874232Y-65990614D01*
X95774109Y-65853354D01*
X95739436Y-65642117D01*
X95741252Y-65590975D01*
X95759883Y-65429437D01*
X95799735Y-65348813D01*
X95878322Y-65317188D01*
X95892728Y-65314950D01*
X96009614Y-65323281D01*
X96081390Y-65398999D01*
X96116556Y-65557841D01*
X96124025Y-65743222D01*
X96117686Y-65921165D01*
X96092114Y-66011585D01*
X96039492Y-66039271D01*
X96030556Y-66039555D01*
X96030556Y-66829777D01*
X96689334Y-66829777D01*
X96689334Y-65953076D01*
X96685279Y-65553021D01*
G37*
X96685279Y-65553021D02*
X96670428Y-65247794D01*
X96640747Y-65019537D01*
X96592207Y-64850392D01*
X96520773Y-64722500D01*
X96422416Y-64618005D01*
X96380003Y-64582960D01*
X96129471Y-64448252D01*
X95865472Y-64425333D01*
X95617451Y-64502297D01*
X95473263Y-64568934D01*
X95374776Y-64585292D01*
X95266617Y-64551371D01*
X95164772Y-64502297D01*
X94929250Y-64422373D01*
X94750789Y-64425516D01*
X94587353Y-64487471D01*
X94415520Y-64599841D01*
X94265944Y-64736254D01*
X94169277Y-64870338D01*
X94149334Y-64942978D01*
X94187895Y-65045828D01*
X94286456Y-65183376D01*
X94362970Y-65265699D01*
X94576605Y-65474309D01*
X94694759Y-65356154D01*
X94795147Y-65277667D01*
X94886858Y-65280913D01*
X94939732Y-65305872D01*
X95004686Y-65349605D01*
X95039982Y-65412083D01*
X95051478Y-65521452D01*
X95045033Y-65705857D01*
X95039992Y-65787597D01*
X95013432Y-66201450D01*
X95330909Y-66515614D01*
X95648385Y-66829777D01*
X96030556Y-66829777D01*
X96030556Y-66039555D01*
X95874232Y-65990614D01*
X95774109Y-65853354D01*
X95739436Y-65642117D01*
X95741252Y-65590975D01*
X95759883Y-65429437D01*
X95799735Y-65348813D01*
X95878322Y-65317188D01*
X95892728Y-65314950D01*
X96009614Y-65323281D01*
X96081390Y-65398999D01*
X96116556Y-65557841D01*
X96124025Y-65743222D01*
X96117686Y-65921165D01*
X96092114Y-66011585D01*
X96039492Y-66039271D01*
X96030556Y-66039555D01*
X96030556Y-66829777D01*
X96689334Y-66829777D01*
X96689334Y-65953076D01*
X96685279Y-65553021D01*
G36*
X95669012Y-71107282D02*
G01*
X95657361Y-70919683D01*
X95640353Y-70805011D01*
X95626944Y-70780889D01*
X95461899Y-70813818D01*
X95257045Y-70901436D01*
X95036751Y-71026987D01*
X94825386Y-71173716D01*
X94647318Y-71324867D01*
X94526916Y-71463686D01*
X94488000Y-71563997D01*
X94526166Y-71645582D01*
X94627746Y-71779294D01*
X94773369Y-71940512D01*
X94826756Y-71994532D01*
X95165512Y-72329753D01*
X95253516Y-72204110D01*
X95368680Y-72086631D01*
X95507427Y-71992672D01*
X95673334Y-71906878D01*
X95673334Y-71343884D01*
X95669012Y-71107282D01*
G37*
X95669012Y-71107282D02*
X95657361Y-70919683D01*
X95640353Y-70805011D01*
X95626944Y-70780889D01*
X95461899Y-70813818D01*
X95257045Y-70901436D01*
X95036751Y-71026987D01*
X94825386Y-71173716D01*
X94647318Y-71324867D01*
X94526916Y-71463686D01*
X94488000Y-71563997D01*
X94526166Y-71645582D01*
X94627746Y-71779294D01*
X94773369Y-71940512D01*
X94826756Y-71994532D01*
X95165512Y-72329753D01*
X95253516Y-72204110D01*
X95368680Y-72086631D01*
X95507427Y-71992672D01*
X95673334Y-71906878D01*
X95673334Y-71343884D01*
X95669012Y-71107282D01*
G36*
X95668982Y-54001433D02*
G01*
X95657253Y-53814867D01*
X95640142Y-53701403D01*
X95626944Y-53678222D01*
X95550218Y-53695157D01*
X95407027Y-53738250D01*
X95316827Y-53768083D01*
X95159266Y-53842326D01*
X94975795Y-53958730D01*
X94791709Y-54097001D01*
X94632304Y-54236849D01*
X94522873Y-54357983D01*
X94488000Y-54432972D01*
X94525846Y-54500313D01*
X94627048Y-54623605D01*
X94773107Y-54781063D01*
X94847045Y-54855780D01*
X95025010Y-55026173D01*
X95141396Y-55120779D01*
X95209332Y-55148444D01*
X95240810Y-55121151D01*
X95309377Y-55035907D01*
X95436342Y-54937043D01*
X95474433Y-54913315D01*
X95673334Y-54795960D01*
X95673334Y-54237091D01*
X95668982Y-54001433D01*
G37*
X95668982Y-54001433D02*
X95657253Y-53814867D01*
X95640142Y-53701403D01*
X95626944Y-53678222D01*
X95550218Y-53695157D01*
X95407027Y-53738250D01*
X95316827Y-53768083D01*
X95159266Y-53842326D01*
X94975795Y-53958730D01*
X94791709Y-54097001D01*
X94632304Y-54236849D01*
X94522873Y-54357983D01*
X94488000Y-54432972D01*
X94525846Y-54500313D01*
X94627048Y-54623605D01*
X94773107Y-54781063D01*
X94847045Y-54855780D01*
X95025010Y-55026173D01*
X95141396Y-55120779D01*
X95209332Y-55148444D01*
X95240810Y-55121151D01*
X95309377Y-55035907D01*
X95436342Y-54937043D01*
X95474433Y-54913315D01*
X95673334Y-54795960D01*
X95673334Y-54237091D01*
X95668982Y-54001433D01*
G36*
X96309848Y-69187750D02*
G01*
X95930361Y-68805333D01*
X96309848Y-68422917D01*
X96689334Y-68040500D01*
X96689334Y-67029027D01*
X95997074Y-67719625D01*
X95304815Y-68410222D01*
X94981074Y-68410222D01*
X94794896Y-68415630D01*
X94696223Y-68436988D01*
X94659976Y-68481993D01*
X94657334Y-68509588D01*
X94695910Y-68575194D01*
X94804455Y-68707881D01*
X94972195Y-68895831D01*
X95188355Y-69127230D01*
X95442162Y-69390261D01*
X95673334Y-69623777D01*
X96689334Y-70638601D01*
X96689334Y-69570166D01*
X96309848Y-69187750D01*
G37*
X96309848Y-69187750D02*
X95930361Y-68805333D01*
X96309848Y-68422917D01*
X96689334Y-68040500D01*
X96689334Y-67029027D01*
X95997074Y-67719625D01*
X95304815Y-68410222D01*
X94981074Y-68410222D01*
X94794896Y-68415630D01*
X94696223Y-68436988D01*
X94659976Y-68481993D01*
X94657334Y-68509588D01*
X94695910Y-68575194D01*
X94804455Y-68707881D01*
X94972195Y-68895831D01*
X95188355Y-69127230D01*
X95442162Y-69390261D01*
X95673334Y-69623777D01*
X96689334Y-70638601D01*
X96689334Y-69570166D01*
X96309848Y-69187750D01*
G36*
X96309848Y-47400194D02*
G01*
X95930361Y-47017777D01*
X96309848Y-46635361D01*
X96689334Y-46252944D01*
X96689334Y-45241472D01*
X95997074Y-45932069D01*
X95304815Y-46622666D01*
X94981074Y-46622666D01*
X94794900Y-46628073D01*
X94696229Y-46649428D01*
X94659979Y-46694431D01*
X94657334Y-46722049D01*
X94695891Y-46788193D01*
X94804220Y-46921069D01*
X94971312Y-47108558D01*
X95186154Y-47338538D01*
X95437737Y-47598889D01*
X95631589Y-47794493D01*
X95903281Y-48064214D01*
X96149208Y-48305232D01*
X96357999Y-48506658D01*
X96518283Y-48657603D01*
X96618691Y-48747176D01*
X96647589Y-48767555D01*
X96666232Y-48715384D01*
X96680582Y-48575920D01*
X96688469Y-48374740D01*
X96689334Y-48275083D01*
X96689334Y-47782611D01*
X96309848Y-47400194D01*
G37*
X96309848Y-47400194D02*
X95930361Y-47017777D01*
X96309848Y-46635361D01*
X96689334Y-46252944D01*
X96689334Y-45241472D01*
X95997074Y-45932069D01*
X95304815Y-46622666D01*
X94981074Y-46622666D01*
X94794900Y-46628073D01*
X94696229Y-46649428D01*
X94659979Y-46694431D01*
X94657334Y-46722049D01*
X94695891Y-46788193D01*
X94804220Y-46921069D01*
X94971312Y-47108558D01*
X95186154Y-47338538D01*
X95437737Y-47598889D01*
X95631589Y-47794493D01*
X95903281Y-48064214D01*
X96149208Y-48305232D01*
X96357999Y-48506658D01*
X96518283Y-48657603D01*
X96618691Y-48747176D01*
X96647589Y-48767555D01*
X96666232Y-48715384D01*
X96680582Y-48575920D01*
X96688469Y-48374740D01*
X96689334Y-48275083D01*
X96689334Y-47782611D01*
X96309848Y-47400194D01*
G36*
X96124889Y-61524000D02*
G01*
X96124889Y-62229555D01*
X96122548Y-62496839D01*
X96116155Y-62717666D01*
X96106657Y-62870663D01*
X96095000Y-62934457D01*
X96093651Y-62935111D01*
X96034428Y-62902994D01*
X95921966Y-62822105D01*
X95867875Y-62779889D01*
X95673337Y-62624666D01*
X95673335Y-62074333D01*
X95673334Y-61524000D01*
X95052445Y-61524000D01*
X95052445Y-63022603D01*
X95462995Y-63430412D01*
X95873544Y-63838222D01*
X96745778Y-63838222D01*
X96745778Y-61524000D01*
X96124889Y-61524000D01*
G37*
X96124889Y-61524000D02*
X96124889Y-62229555D01*
X96122548Y-62496839D01*
X96116155Y-62717666D01*
X96106657Y-62870663D01*
X96095000Y-62934457D01*
X96093651Y-62935111D01*
X96034428Y-62902994D01*
X95921966Y-62822105D01*
X95867875Y-62779889D01*
X95673337Y-62624666D01*
X95673335Y-62074333D01*
X95673334Y-61524000D01*
X95052445Y-61524000D01*
X95052445Y-63022603D01*
X95462995Y-63430412D01*
X95873544Y-63838222D01*
X96745778Y-63838222D01*
X96745778Y-61524000D01*
X96124889Y-61524000D01*
G36*
X96124889Y-48993333D02*
G01*
X96124889Y-49952889D01*
X95616889Y-49952889D01*
X95357763Y-49957602D01*
X95196989Y-49973088D01*
X95120371Y-50001369D01*
X95108889Y-50025211D01*
X95146878Y-50096382D01*
X95247707Y-50220811D01*
X95391671Y-50374750D01*
X95433445Y-50416390D01*
X95659939Y-50618055D01*
X95837536Y-50728280D01*
X95927334Y-50753290D01*
X96096667Y-50771333D01*
X96112976Y-51265222D01*
X96129284Y-51759111D01*
X96745778Y-51759111D01*
X96745778Y-48993333D01*
X96124889Y-48993333D01*
G37*
X96124889Y-48993333D02*
X96124889Y-49952889D01*
X95616889Y-49952889D01*
X95357763Y-49957602D01*
X95196989Y-49973088D01*
X95120371Y-50001369D01*
X95108889Y-50025211D01*
X95146878Y-50096382D01*
X95247707Y-50220811D01*
X95391671Y-50374750D01*
X95433445Y-50416390D01*
X95659939Y-50618055D01*
X95837536Y-50728280D01*
X95927334Y-50753290D01*
X96096667Y-50771333D01*
X96112976Y-51265222D01*
X96129284Y-51759111D01*
X96745778Y-51759111D01*
X96745778Y-48993333D01*
X96124889Y-48993333D01*
G36*
X96209556Y-52323555D02*
G01*
X95954132Y-52330453D01*
X95791023Y-52350324D01*
X95729982Y-52381936D01*
X95729778Y-52384190D01*
X95766432Y-52450751D01*
X95863853Y-52574082D01*
X96003227Y-52730885D01*
X96048815Y-52779301D01*
X96232961Y-52960854D01*
X96371111Y-53066247D01*
X96484304Y-53110147D01*
X96528592Y-53113777D01*
X96689334Y-53113777D01*
X96689334Y-52323555D01*
X96209556Y-52323555D01*
G37*
X96209556Y-52323555D02*
X95954132Y-52330453D01*
X95791023Y-52350324D01*
X95729982Y-52381936D01*
X95729778Y-52384190D01*
X95766432Y-52450751D01*
X95863853Y-52574082D01*
X96003227Y-52730885D01*
X96048815Y-52779301D01*
X96232961Y-52960854D01*
X96371111Y-53066247D01*
X96484304Y-53110147D01*
X96528592Y-53113777D01*
X96689334Y-53113777D01*
X96689334Y-52323555D01*
X96209556Y-52323555D01*
G36*
X97916724Y-72485072D02*
G01*
X97822594Y-72071696D01*
X97644830Y-71686329D01*
X97386450Y-71345067D01*
X97050473Y-71064007D01*
X96802223Y-70925977D01*
X96625138Y-70848869D01*
X96483928Y-70796396D01*
X96421223Y-70781440D01*
X96386242Y-70815605D01*
X96364121Y-70927394D01*
X96353213Y-71129767D01*
X96351366Y-71331222D01*
X96352065Y-71881555D01*
X96550826Y-72010323D01*
X96784978Y-72219699D01*
X96923974Y-72469179D01*
X96968046Y-72738491D01*
X96917426Y-73007364D01*
X96772347Y-73255529D01*
X96534180Y-73462000D01*
X96416826Y-73549744D01*
X96355364Y-73622546D01*
X96352841Y-73632964D01*
X96389744Y-73695750D01*
X96490453Y-73815496D01*
X96636899Y-73971444D01*
X96721411Y-74056297D01*
X97092156Y-74421555D01*
X97396567Y-74096708D01*
X97667143Y-73732273D01*
X97842016Y-73331458D01*
X97924204Y-72910358D01*
X97916724Y-72485072D01*
G37*
X97916724Y-72485072D02*
X97822594Y-72071696D01*
X97644830Y-71686329D01*
X97386450Y-71345067D01*
X97050473Y-71064007D01*
X96802223Y-70925977D01*
X96625138Y-70848869D01*
X96483928Y-70796396D01*
X96421223Y-70781440D01*
X96386242Y-70815605D01*
X96364121Y-70927394D01*
X96353213Y-71129767D01*
X96351366Y-71331222D01*
X96352065Y-71881555D01*
X96550826Y-72010323D01*
X96784978Y-72219699D01*
X96923974Y-72469179D01*
X96968046Y-72738491D01*
X96917426Y-73007364D01*
X96772347Y-73255529D01*
X96534180Y-73462000D01*
X96416826Y-73549744D01*
X96355364Y-73622546D01*
X96352841Y-73632964D01*
X96389744Y-73695750D01*
X96490453Y-73815496D01*
X96636899Y-73971444D01*
X96721411Y-74056297D01*
X97092156Y-74421555D01*
X97396567Y-74096708D01*
X97667143Y-73732273D01*
X97842016Y-73331458D01*
X97924204Y-72910358D01*
X97916724Y-72485072D01*
G36*
X97916724Y-55382405D02*
G01*
X97822594Y-54969029D01*
X97644830Y-54583662D01*
X97386450Y-54242400D01*
X97050473Y-53961341D01*
X96802223Y-53823311D01*
X96625138Y-53746202D01*
X96483928Y-53693730D01*
X96421223Y-53678773D01*
X96386242Y-53712938D01*
X96364121Y-53824727D01*
X96353213Y-54027101D01*
X96351366Y-54228555D01*
X96352065Y-54778889D01*
X96550826Y-54907656D01*
X96784978Y-55117033D01*
X96923974Y-55366512D01*
X96968046Y-55635824D01*
X96917426Y-55904697D01*
X96772347Y-56152863D01*
X96534180Y-56359333D01*
X96416826Y-56447077D01*
X96355364Y-56519880D01*
X96352841Y-56530297D01*
X96389744Y-56593083D01*
X96490453Y-56712829D01*
X96636899Y-56868777D01*
X96721411Y-56953630D01*
X97092156Y-57318889D01*
X97396567Y-56994041D01*
X97667143Y-56629607D01*
X97842016Y-56228791D01*
X97924204Y-55807691D01*
X97916724Y-55382405D01*
G37*
X97916724Y-55382405D02*
X97822594Y-54969029D01*
X97644830Y-54583662D01*
X97386450Y-54242400D01*
X97050473Y-53961341D01*
X96802223Y-53823311D01*
X96625138Y-53746202D01*
X96483928Y-53693730D01*
X96421223Y-53678773D01*
X96386242Y-53712938D01*
X96364121Y-53824727D01*
X96353213Y-54027101D01*
X96351366Y-54228555D01*
X96352065Y-54778889D01*
X96550826Y-54907656D01*
X96784978Y-55117033D01*
X96923974Y-55366512D01*
X96968046Y-55635824D01*
X96917426Y-55904697D01*
X96772347Y-56152863D01*
X96534180Y-56359333D01*
X96416826Y-56447077D01*
X96355364Y-56519880D01*
X96352841Y-56530297D01*
X96389744Y-56593083D01*
X96490453Y-56712829D01*
X96636899Y-56868777D01*
X96721411Y-56953630D01*
X97092156Y-57318889D01*
X97396567Y-56994041D01*
X97667143Y-56629607D01*
X97842016Y-56228791D01*
X97924204Y-55807691D01*
X97916724Y-55382405D01*
G36*
X47371276Y-64617595D02*
G01*
X47465406Y-65030971D01*
X47643170Y-65416338D01*
X47901550Y-65757600D01*
X48237527Y-66038659D01*
X48485777Y-66176689D01*
X48662862Y-66253798D01*
X48804072Y-66306270D01*
X48866777Y-66321227D01*
X48901758Y-66287062D01*
X48923879Y-66175273D01*
X48934787Y-65972899D01*
X48936634Y-65771445D01*
X48935935Y-65221111D01*
X48737174Y-65092344D01*
X48503022Y-64882967D01*
X48364026Y-64633488D01*
X48319954Y-64364176D01*
X48370574Y-64095303D01*
X48515653Y-63847137D01*
X48753820Y-63640667D01*
X48871174Y-63552923D01*
X48932636Y-63480120D01*
X48935159Y-63469703D01*
X48898256Y-63406917D01*
X48797547Y-63287171D01*
X48651101Y-63131223D01*
X48566589Y-63046370D01*
X48195844Y-62681111D01*
X47891433Y-63005959D01*
X47620857Y-63370393D01*
X47445984Y-63771209D01*
X47363796Y-64192309D01*
X47371276Y-64617595D01*
G37*
X47371276Y-64617595D02*
X47465406Y-65030971D01*
X47643170Y-65416338D01*
X47901550Y-65757600D01*
X48237527Y-66038659D01*
X48485777Y-66176689D01*
X48662862Y-66253798D01*
X48804072Y-66306270D01*
X48866777Y-66321227D01*
X48901758Y-66287062D01*
X48923879Y-66175273D01*
X48934787Y-65972899D01*
X48936634Y-65771445D01*
X48935935Y-65221111D01*
X48737174Y-65092344D01*
X48503022Y-64882967D01*
X48364026Y-64633488D01*
X48319954Y-64364176D01*
X48370574Y-64095303D01*
X48515653Y-63847137D01*
X48753820Y-63640667D01*
X48871174Y-63552923D01*
X48932636Y-63480120D01*
X48935159Y-63469703D01*
X48898256Y-63406917D01*
X48797547Y-63287171D01*
X48651101Y-63131223D01*
X48566589Y-63046370D01*
X48195844Y-62681111D01*
X47891433Y-63005959D01*
X47620857Y-63370393D01*
X47445984Y-63771209D01*
X47363796Y-64192309D01*
X47371276Y-64617595D01*
G36*
X47371276Y-47514928D02*
G01*
X47465406Y-47928304D01*
X47643170Y-48313671D01*
X47901550Y-48654933D01*
X48237527Y-48935993D01*
X48485777Y-49074023D01*
X48662862Y-49151131D01*
X48804072Y-49203604D01*
X48866777Y-49218560D01*
X48901758Y-49184395D01*
X48923879Y-49072606D01*
X48934787Y-48870233D01*
X48936634Y-48668778D01*
X48935935Y-48118445D01*
X48737174Y-47989677D01*
X48503022Y-47780301D01*
X48364026Y-47530821D01*
X48319954Y-47261509D01*
X48370574Y-46992636D01*
X48515653Y-46744471D01*
X48753820Y-46538000D01*
X48871174Y-46450256D01*
X48932636Y-46377454D01*
X48935159Y-46367036D01*
X48898256Y-46304250D01*
X48797547Y-46184504D01*
X48651101Y-46028556D01*
X48566589Y-45943703D01*
X48195844Y-45578445D01*
X47891433Y-45903292D01*
X47620857Y-46267727D01*
X47445984Y-46668542D01*
X47363796Y-47089642D01*
X47371276Y-47514928D01*
G37*
X47371276Y-47514928D02*
X47465406Y-47928304D01*
X47643170Y-48313671D01*
X47901550Y-48654933D01*
X48237527Y-48935993D01*
X48485777Y-49074023D01*
X48662862Y-49151131D01*
X48804072Y-49203604D01*
X48866777Y-49218560D01*
X48901758Y-49184395D01*
X48923879Y-49072606D01*
X48934787Y-48870233D01*
X48936634Y-48668778D01*
X48935935Y-48118445D01*
X48737174Y-47989677D01*
X48503022Y-47780301D01*
X48364026Y-47530821D01*
X48319954Y-47261509D01*
X48370574Y-46992636D01*
X48515653Y-46744471D01*
X48753820Y-46538000D01*
X48871174Y-46450256D01*
X48932636Y-46377454D01*
X48935159Y-46367036D01*
X48898256Y-46304250D01*
X48797547Y-46184504D01*
X48651101Y-46028556D01*
X48566589Y-45943703D01*
X48195844Y-45578445D01*
X47891433Y-45903292D01*
X47620857Y-46267727D01*
X47445984Y-46668542D01*
X47363796Y-47089642D01*
X47371276Y-47514928D01*
G36*
X49078444Y-67676445D02*
G01*
X49333868Y-67669547D01*
X49496977Y-67649676D01*
X49558018Y-67618064D01*
X49558222Y-67615810D01*
X49521568Y-67549249D01*
X49424147Y-67425918D01*
X49284773Y-67269115D01*
X49239185Y-67220699D01*
X49055039Y-67039146D01*
X48916889Y-66933753D01*
X48803696Y-66889853D01*
X48759408Y-66886223D01*
X48598666Y-66886223D01*
X48598666Y-67676445D01*
X49078444Y-67676445D01*
G37*
X49078444Y-67676445D02*
X49333868Y-67669547D01*
X49496977Y-67649676D01*
X49558018Y-67618064D01*
X49558222Y-67615810D01*
X49521568Y-67549249D01*
X49424147Y-67425918D01*
X49284773Y-67269115D01*
X49239185Y-67220699D01*
X49055039Y-67039146D01*
X48916889Y-66933753D01*
X48803696Y-66889853D01*
X48759408Y-66886223D01*
X48598666Y-66886223D01*
X48598666Y-67676445D01*
X49078444Y-67676445D01*
G36*
X49163111Y-71006667D02*
G01*
X49163111Y-70047111D01*
X49671111Y-70047111D01*
X49930237Y-70042398D01*
X50091011Y-70026912D01*
X50167629Y-69998631D01*
X50179111Y-69974789D01*
X50141122Y-69903618D01*
X50040293Y-69779189D01*
X49896329Y-69625250D01*
X49854555Y-69583610D01*
X49628061Y-69381945D01*
X49450464Y-69271720D01*
X49360666Y-69246710D01*
X49191333Y-69228667D01*
X49175024Y-68734778D01*
X49158716Y-68240889D01*
X48542222Y-68240889D01*
X48542222Y-71006667D01*
X49163111Y-71006667D01*
G37*
X49163111Y-71006667D02*
X49163111Y-70047111D01*
X49671111Y-70047111D01*
X49930237Y-70042398D01*
X50091011Y-70026912D01*
X50167629Y-69998631D01*
X50179111Y-69974789D01*
X50141122Y-69903618D01*
X50040293Y-69779189D01*
X49896329Y-69625250D01*
X49854555Y-69583610D01*
X49628061Y-69381945D01*
X49450464Y-69271720D01*
X49360666Y-69246710D01*
X49191333Y-69228667D01*
X49175024Y-68734778D01*
X49158716Y-68240889D01*
X48542222Y-68240889D01*
X48542222Y-71006667D01*
X49163111Y-71006667D01*
G36*
X49163111Y-58476000D02*
G01*
X49163111Y-57770445D01*
X49165452Y-57503161D01*
X49171845Y-57282334D01*
X49181343Y-57129337D01*
X49193000Y-57065543D01*
X49194349Y-57064889D01*
X49253572Y-57097006D01*
X49366034Y-57177895D01*
X49420125Y-57220111D01*
X49614663Y-57375334D01*
X49614665Y-57925667D01*
X49614666Y-58476000D01*
X50235555Y-58476000D01*
X50235555Y-56977397D01*
X49825005Y-56569588D01*
X49414456Y-56161778D01*
X48542222Y-56161778D01*
X48542222Y-58476000D01*
X49163111Y-58476000D01*
G37*
X49163111Y-58476000D02*
X49163111Y-57770445D01*
X49165452Y-57503161D01*
X49171845Y-57282334D01*
X49181343Y-57129337D01*
X49193000Y-57065543D01*
X49194349Y-57064889D01*
X49253572Y-57097006D01*
X49366034Y-57177895D01*
X49420125Y-57220111D01*
X49614663Y-57375334D01*
X49614665Y-57925667D01*
X49614666Y-58476000D01*
X50235555Y-58476000D01*
X50235555Y-56977397D01*
X49825005Y-56569588D01*
X49414456Y-56161778D01*
X48542222Y-56161778D01*
X48542222Y-58476000D01*
X49163111Y-58476000D01*
G36*
X48978152Y-72599806D02*
G01*
X49357639Y-72982223D01*
X48978152Y-73364639D01*
X48598666Y-73747056D01*
X48598666Y-74758528D01*
X49290926Y-74067931D01*
X49983185Y-73377334D01*
X50306926Y-73377334D01*
X50493100Y-73371927D01*
X50591771Y-73350572D01*
X50628021Y-73305569D01*
X50630666Y-73277951D01*
X50592109Y-73211807D01*
X50483780Y-73078931D01*
X50316688Y-72891442D01*
X50101846Y-72661462D01*
X49850263Y-72401111D01*
X49656411Y-72205507D01*
X49384719Y-71935786D01*
X49138792Y-71694768D01*
X48930001Y-71493342D01*
X48769717Y-71342397D01*
X48669309Y-71252824D01*
X48640411Y-71232445D01*
X48621768Y-71284616D01*
X48607418Y-71424080D01*
X48599531Y-71625260D01*
X48598666Y-71724917D01*
X48598666Y-72217389D01*
X48978152Y-72599806D01*
G37*
X48978152Y-72599806D02*
X49357639Y-72982223D01*
X48978152Y-73364639D01*
X48598666Y-73747056D01*
X48598666Y-74758528D01*
X49290926Y-74067931D01*
X49983185Y-73377334D01*
X50306926Y-73377334D01*
X50493100Y-73371927D01*
X50591771Y-73350572D01*
X50628021Y-73305569D01*
X50630666Y-73277951D01*
X50592109Y-73211807D01*
X50483780Y-73078931D01*
X50316688Y-72891442D01*
X50101846Y-72661462D01*
X49850263Y-72401111D01*
X49656411Y-72205507D01*
X49384719Y-71935786D01*
X49138792Y-71694768D01*
X48930001Y-71493342D01*
X48769717Y-71342397D01*
X48669309Y-71252824D01*
X48640411Y-71232445D01*
X48621768Y-71284616D01*
X48607418Y-71424080D01*
X48599531Y-71625260D01*
X48598666Y-71724917D01*
X48598666Y-72217389D01*
X48978152Y-72599806D01*
G36*
X48978152Y-50812250D02*
G01*
X49357639Y-51194667D01*
X48978152Y-51577083D01*
X48598666Y-51959500D01*
X48598666Y-52970973D01*
X49290926Y-52280375D01*
X49983185Y-51589778D01*
X50306926Y-51589778D01*
X50493104Y-51584370D01*
X50591777Y-51563012D01*
X50628024Y-51518007D01*
X50630666Y-51490412D01*
X50592090Y-51424806D01*
X50483545Y-51292119D01*
X50315805Y-51104169D01*
X50099645Y-50872770D01*
X49845838Y-50609739D01*
X49614666Y-50376223D01*
X48598666Y-49361399D01*
X48598666Y-50429834D01*
X48978152Y-50812250D01*
G37*
X48978152Y-50812250D02*
X49357639Y-51194667D01*
X48978152Y-51577083D01*
X48598666Y-51959500D01*
X48598666Y-52970973D01*
X49290926Y-52280375D01*
X49983185Y-51589778D01*
X50306926Y-51589778D01*
X50493104Y-51584370D01*
X50591777Y-51563012D01*
X50628024Y-51518007D01*
X50630666Y-51490412D01*
X50592090Y-51424806D01*
X50483545Y-51292119D01*
X50315805Y-51104169D01*
X50099645Y-50872770D01*
X49845838Y-50609739D01*
X49614666Y-50376223D01*
X48598666Y-49361399D01*
X48598666Y-50429834D01*
X48978152Y-50812250D01*
G36*
X49619018Y-65998567D02*
G01*
X49630747Y-66185133D01*
X49647858Y-66298597D01*
X49661056Y-66321778D01*
X49737782Y-66304843D01*
X49880973Y-66261750D01*
X49971173Y-66231917D01*
X50128734Y-66157674D01*
X50312205Y-66041270D01*
X50496291Y-65902999D01*
X50655696Y-65763151D01*
X50765127Y-65642017D01*
X50800000Y-65567028D01*
X50762154Y-65499687D01*
X50660952Y-65376395D01*
X50514893Y-65218937D01*
X50440955Y-65144220D01*
X50262990Y-64973827D01*
X50146604Y-64879221D01*
X50078668Y-64851556D01*
X50047190Y-64878849D01*
X49978623Y-64964093D01*
X49851658Y-65062957D01*
X49813567Y-65086685D01*
X49614666Y-65204040D01*
X49614666Y-65762909D01*
X49619018Y-65998567D01*
G37*
X49619018Y-65998567D02*
X49630747Y-66185133D01*
X49647858Y-66298597D01*
X49661056Y-66321778D01*
X49737782Y-66304843D01*
X49880973Y-66261750D01*
X49971173Y-66231917D01*
X50128734Y-66157674D01*
X50312205Y-66041270D01*
X50496291Y-65902999D01*
X50655696Y-65763151D01*
X50765127Y-65642017D01*
X50800000Y-65567028D01*
X50762154Y-65499687D01*
X50660952Y-65376395D01*
X50514893Y-65218937D01*
X50440955Y-65144220D01*
X50262990Y-64973827D01*
X50146604Y-64879221D01*
X50078668Y-64851556D01*
X50047190Y-64878849D01*
X49978623Y-64964093D01*
X49851658Y-65062957D01*
X49813567Y-65086685D01*
X49614666Y-65204040D01*
X49614666Y-65762909D01*
X49619018Y-65998567D01*
G36*
X49618988Y-48892718D02*
G01*
X49630639Y-49080317D01*
X49647647Y-49194989D01*
X49661056Y-49219111D01*
X49826101Y-49186182D01*
X50030955Y-49098564D01*
X50251249Y-48973013D01*
X50462614Y-48826284D01*
X50640682Y-48675133D01*
X50761084Y-48536314D01*
X50800000Y-48436003D01*
X50761834Y-48354418D01*
X50660254Y-48220706D01*
X50514631Y-48059488D01*
X50461244Y-48005468D01*
X50122488Y-47670247D01*
X50034484Y-47795890D01*
X49919320Y-47913369D01*
X49780573Y-48007328D01*
X49614666Y-48093122D01*
X49614666Y-48656116D01*
X49618988Y-48892718D01*
G37*
X49618988Y-48892718D02*
X49630639Y-49080317D01*
X49647647Y-49194989D01*
X49661056Y-49219111D01*
X49826101Y-49186182D01*
X50030955Y-49098564D01*
X50251249Y-48973013D01*
X50462614Y-48826284D01*
X50640682Y-48675133D01*
X50761084Y-48536314D01*
X50800000Y-48436003D01*
X50761834Y-48354418D01*
X50660254Y-48220706D01*
X50514631Y-48059488D01*
X50461244Y-48005468D01*
X50122488Y-47670247D01*
X50034484Y-47795890D01*
X49919320Y-47913369D01*
X49780573Y-48007328D01*
X49614666Y-48093122D01*
X49614666Y-48656116D01*
X49618988Y-48892718D01*
G36*
X48602721Y-54446979D02*
G01*
X48617572Y-54752206D01*
X48647253Y-54980463D01*
X48695793Y-55149608D01*
X48767227Y-55277500D01*
X48865584Y-55381995D01*
X48907997Y-55417040D01*
X49158529Y-55551748D01*
X49422528Y-55574667D01*
X49670549Y-55497703D01*
X49814737Y-55431066D01*
X49913224Y-55414708D01*
X50021383Y-55448629D01*
X50123228Y-55497703D01*
X50358750Y-55577627D01*
X50537211Y-55574484D01*
X50700647Y-55512529D01*
X50872480Y-55400159D01*
X51022056Y-55263746D01*
X51118723Y-55129662D01*
X51138666Y-55057022D01*
X51100105Y-54954172D01*
X51001544Y-54816624D01*
X50925030Y-54734301D01*
X50711395Y-54525691D01*
X50593241Y-54643846D01*
X50492853Y-54722333D01*
X50401142Y-54719087D01*
X50348268Y-54694128D01*
X50283314Y-54650395D01*
X50248018Y-54587917D01*
X50236522Y-54478548D01*
X50242967Y-54294143D01*
X50248008Y-54212403D01*
X50274568Y-53798550D01*
X49957091Y-53484386D01*
X49639615Y-53170223D01*
X49257444Y-53170223D01*
X49257444Y-53960445D01*
X49413768Y-54009386D01*
X49513891Y-54146646D01*
X49548564Y-54357883D01*
X49546748Y-54409025D01*
X49528117Y-54570563D01*
X49488265Y-54651187D01*
X49409678Y-54682812D01*
X49395272Y-54685050D01*
X49278386Y-54676719D01*
X49206610Y-54601001D01*
X49171444Y-54442159D01*
X49163975Y-54256778D01*
X49170314Y-54078835D01*
X49195886Y-53988415D01*
X49248508Y-53960729D01*
X49257444Y-53960445D01*
X49257444Y-53170223D01*
X48598666Y-53170223D01*
X48598666Y-54046924D01*
X48602721Y-54446979D01*
G37*
X48602721Y-54446979D02*
X48617572Y-54752206D01*
X48647253Y-54980463D01*
X48695793Y-55149608D01*
X48767227Y-55277500D01*
X48865584Y-55381995D01*
X48907997Y-55417040D01*
X49158529Y-55551748D01*
X49422528Y-55574667D01*
X49670549Y-55497703D01*
X49814737Y-55431066D01*
X49913224Y-55414708D01*
X50021383Y-55448629D01*
X50123228Y-55497703D01*
X50358750Y-55577627D01*
X50537211Y-55574484D01*
X50700647Y-55512529D01*
X50872480Y-55400159D01*
X51022056Y-55263746D01*
X51118723Y-55129662D01*
X51138666Y-55057022D01*
X51100105Y-54954172D01*
X51001544Y-54816624D01*
X50925030Y-54734301D01*
X50711395Y-54525691D01*
X50593241Y-54643846D01*
X50492853Y-54722333D01*
X50401142Y-54719087D01*
X50348268Y-54694128D01*
X50283314Y-54650395D01*
X50248018Y-54587917D01*
X50236522Y-54478548D01*
X50242967Y-54294143D01*
X50248008Y-54212403D01*
X50274568Y-53798550D01*
X49957091Y-53484386D01*
X49639615Y-53170223D01*
X49257444Y-53170223D01*
X49257444Y-53960445D01*
X49413768Y-54009386D01*
X49513891Y-54146646D01*
X49548564Y-54357883D01*
X49546748Y-54409025D01*
X49528117Y-54570563D01*
X49488265Y-54651187D01*
X49409678Y-54682812D01*
X49395272Y-54685050D01*
X49278386Y-54676719D01*
X49206610Y-54601001D01*
X49171444Y-54442159D01*
X49163975Y-54256778D01*
X49170314Y-54078835D01*
X49195886Y-53988415D01*
X49248508Y-53960729D01*
X49257444Y-53960445D01*
X49257444Y-53170223D01*
X48598666Y-53170223D01*
X48598666Y-54046924D01*
X48602721Y-54446979D01*
G36*
X50335582Y-72659279D02*
G01*
X50420030Y-72776553D01*
X50548832Y-72923221D01*
X50700771Y-73077886D01*
X50854627Y-73219152D01*
X50989183Y-73325622D01*
X51083220Y-73375899D01*
X51094702Y-73377334D01*
X51146427Y-73363598D01*
X51176801Y-73307213D01*
X51191223Y-73185408D01*
X51195095Y-72975413D01*
X51195111Y-72954000D01*
X51195111Y-72530667D01*
X50775108Y-72530667D01*
X50552399Y-72538735D01*
X50391031Y-72560617D01*
X50316708Y-72592797D01*
X50335582Y-72659279D01*
G37*
X50335582Y-72659279D02*
X50420030Y-72776553D01*
X50548832Y-72923221D01*
X50700771Y-73077886D01*
X50854627Y-73219152D01*
X50989183Y-73325622D01*
X51083220Y-73375899D01*
X51094702Y-73377334D01*
X51146427Y-73363598D01*
X51176801Y-73307213D01*
X51191223Y-73185408D01*
X51195095Y-72975413D01*
X51195111Y-72954000D01*
X51195111Y-72530667D01*
X50775108Y-72530667D01*
X50552399Y-72538735D01*
X50391031Y-72560617D01*
X50316708Y-72592797D01*
X50335582Y-72659279D01*
G36*
X49911067Y-69453188D02*
G01*
X50061320Y-69618692D01*
X50166636Y-69724323D01*
X50492829Y-70047111D01*
X51195111Y-70047111D01*
X51195111Y-69200445D01*
X50517777Y-69200445D01*
X50195154Y-69204521D01*
X49979237Y-69222785D01*
X49863960Y-69264284D01*
X49843259Y-69338069D01*
X49911067Y-69453188D01*
G37*
X49911067Y-69453188D02*
X50061320Y-69618692D01*
X50166636Y-69724323D01*
X50492829Y-70047111D01*
X51195111Y-70047111D01*
X51195111Y-69200445D01*
X50517777Y-69200445D01*
X50195154Y-69204521D01*
X49979237Y-69222785D01*
X49863960Y-69264284D01*
X49843259Y-69338069D01*
X49911067Y-69453188D01*
G36*
X49277710Y-67121938D02*
G01*
X49397080Y-67257967D01*
X49542344Y-67406697D01*
X49865132Y-67732889D01*
X51195111Y-67732889D01*
X51195111Y-66886223D01*
X50207333Y-66886223D01*
X49816638Y-66887575D01*
X49530866Y-66895790D01*
X49342052Y-66917099D01*
X49242231Y-66957738D01*
X49223438Y-67023940D01*
X49277710Y-67121938D01*
G37*
X49277710Y-67121938D02*
X49397080Y-67257967D01*
X49542344Y-67406697D01*
X49865132Y-67732889D01*
X51195111Y-67732889D01*
X51195111Y-66886223D01*
X50207333Y-66886223D01*
X49816638Y-66887575D01*
X49530866Y-66895790D01*
X49342052Y-66917099D01*
X49242231Y-66957738D01*
X49223438Y-67023940D01*
X49277710Y-67121938D01*
G36*
X48521800Y-62671658D02*
G01*
X48616475Y-62799295D01*
X48759824Y-62957227D01*
X48931561Y-63126040D01*
X49111395Y-63286321D01*
X49279040Y-63418655D01*
X49414207Y-63503630D01*
X49467382Y-63523150D01*
X49740673Y-63628712D01*
X49972268Y-63819998D01*
X50141695Y-64071858D01*
X50228483Y-64359139D01*
X50235555Y-64466924D01*
X50248292Y-64575771D01*
X50297060Y-64682614D01*
X50397692Y-64811726D01*
X50566024Y-64987376D01*
X50591878Y-65013084D01*
X50948201Y-65366240D01*
X51057545Y-65245580D01*
X51118393Y-65117795D01*
X51161284Y-64907190D01*
X51185517Y-64642509D01*
X51190389Y-64352494D01*
X51175198Y-64065890D01*
X51139242Y-63811437D01*
X51096423Y-63654029D01*
X50911297Y-63298047D01*
X50642002Y-62977931D01*
X50311086Y-62709803D01*
X49941101Y-62509780D01*
X49554595Y-62393984D01*
X49302335Y-62371524D01*
X49077663Y-62387445D01*
X48854072Y-62428273D01*
X48662151Y-62485577D01*
X48532492Y-62550927D01*
X48496090Y-62593730D01*
X48521800Y-62671658D01*
G37*
X48521800Y-62671658D02*
X48616475Y-62799295D01*
X48759824Y-62957227D01*
X48931561Y-63126040D01*
X49111395Y-63286321D01*
X49279040Y-63418655D01*
X49414207Y-63503630D01*
X49467382Y-63523150D01*
X49740673Y-63628712D01*
X49972268Y-63819998D01*
X50141695Y-64071858D01*
X50228483Y-64359139D01*
X50235555Y-64466924D01*
X50248292Y-64575771D01*
X50297060Y-64682614D01*
X50397692Y-64811726D01*
X50566024Y-64987376D01*
X50591878Y-65013084D01*
X50948201Y-65366240D01*
X51057545Y-65245580D01*
X51118393Y-65117795D01*
X51161284Y-64907190D01*
X51185517Y-64642509D01*
X51190389Y-64352494D01*
X51175198Y-64065890D01*
X51139242Y-63811437D01*
X51096423Y-63654029D01*
X50911297Y-63298047D01*
X50642002Y-62977931D01*
X50311086Y-62709803D01*
X49941101Y-62509780D01*
X49554595Y-62393984D01*
X49302335Y-62371524D01*
X49077663Y-62387445D01*
X48854072Y-62428273D01*
X48662151Y-62485577D01*
X48532492Y-62550927D01*
X48496090Y-62593730D01*
X48521800Y-62671658D01*
G36*
X48599906Y-60042334D02*
G01*
X48601949Y-60417958D01*
X48608121Y-60699993D01*
X48620076Y-60907708D01*
X48639466Y-61060375D01*
X48667947Y-61177266D01*
X48705634Y-61274282D01*
X48858371Y-61485543D01*
X49076183Y-61624458D01*
X49333016Y-61685308D01*
X49602815Y-61662374D01*
X49859526Y-61549938D01*
X49884278Y-61532979D01*
X49993616Y-61438044D01*
X50078212Y-61314201D01*
X50156984Y-61129433D01*
X50204333Y-60991303D01*
X50229659Y-60954662D01*
X50278342Y-60961426D01*
X50363651Y-61021047D01*
X50498852Y-61142974D01*
X50697213Y-61336660D01*
X50717624Y-61356946D01*
X51195111Y-61831952D01*
X51195111Y-60704144D01*
X50361872Y-59872295D01*
X49528633Y-59040445D01*
X49276000Y-59040445D01*
X49276000Y-59865991D01*
X49445333Y-60028223D01*
X49548785Y-60144262D01*
X49599146Y-60264246D01*
X49614287Y-60436731D01*
X49614666Y-60488352D01*
X49605394Y-60677433D01*
X49571124Y-60786259D01*
X49505488Y-60844681D01*
X49403098Y-60890636D01*
X49336571Y-60886822D01*
X49298294Y-60817977D01*
X49280654Y-60668837D01*
X49276040Y-60424140D01*
X49276000Y-60384551D01*
X49276000Y-59865991D01*
X49276000Y-59040445D01*
X48598666Y-59040445D01*
X48599906Y-60042334D01*
G37*
X48599906Y-60042334D02*
X48601949Y-60417958D01*
X48608121Y-60699993D01*
X48620076Y-60907708D01*
X48639466Y-61060375D01*
X48667947Y-61177266D01*
X48705634Y-61274282D01*
X48858371Y-61485543D01*
X49076183Y-61624458D01*
X49333016Y-61685308D01*
X49602815Y-61662374D01*
X49859526Y-61549938D01*
X49884278Y-61532979D01*
X49993616Y-61438044D01*
X50078212Y-61314201D01*
X50156984Y-61129433D01*
X50204333Y-60991303D01*
X50229659Y-60954662D01*
X50278342Y-60961426D01*
X50363651Y-61021047D01*
X50498852Y-61142974D01*
X50697213Y-61336660D01*
X50717624Y-61356946D01*
X51195111Y-61831952D01*
X51195111Y-60704144D01*
X50361872Y-59872295D01*
X49528633Y-59040445D01*
X49276000Y-59040445D01*
X49276000Y-59865991D01*
X49445333Y-60028223D01*
X49548785Y-60144262D01*
X49599146Y-60264246D01*
X49614287Y-60436731D01*
X49614666Y-60488352D01*
X49605394Y-60677433D01*
X49571124Y-60786259D01*
X49505488Y-60844681D01*
X49403098Y-60890636D01*
X49336571Y-60886822D01*
X49298294Y-60817977D01*
X49280654Y-60668837D01*
X49276040Y-60424140D01*
X49276000Y-60384551D01*
X49276000Y-59865991D01*
X49276000Y-59040445D01*
X48598666Y-59040445D01*
X48599906Y-60042334D01*
G36*
X49766295Y-56289345D02*
G01*
X49866699Y-56420997D01*
X50005046Y-56576299D01*
X50157615Y-56730711D01*
X50300684Y-56859697D01*
X50410532Y-56938718D01*
X50448858Y-56952000D01*
X50478172Y-56984523D01*
X50498652Y-57089746D01*
X50511300Y-57279148D01*
X50517117Y-57564209D01*
X50517777Y-57742223D01*
X50517777Y-58532445D01*
X51195111Y-58532445D01*
X51195111Y-56105334D01*
X50461333Y-56105334D01*
X50160505Y-56106613D01*
X49954803Y-56112074D01*
X49826476Y-56124147D01*
X49757774Y-56145266D01*
X49730946Y-56177861D01*
X49727555Y-56205878D01*
X49766295Y-56289345D01*
G37*
X49766295Y-56289345D02*
X49866699Y-56420997D01*
X50005046Y-56576299D01*
X50157615Y-56730711D01*
X50300684Y-56859697D01*
X50410532Y-56938718D01*
X50448858Y-56952000D01*
X50478172Y-56984523D01*
X50498652Y-57089746D01*
X50511300Y-57279148D01*
X50517117Y-57564209D01*
X50517777Y-57742223D01*
X50517777Y-58532445D01*
X51195111Y-58532445D01*
X51195111Y-56105334D01*
X50461333Y-56105334D01*
X50160505Y-56106613D01*
X49954803Y-56112074D01*
X49826476Y-56124147D01*
X49757774Y-56145266D01*
X49730946Y-56177861D01*
X49727555Y-56205878D01*
X49766295Y-56289345D01*
G36*
X49990382Y-53303468D02*
G01*
X50089743Y-53428839D01*
X50233736Y-53590878D01*
X50320222Y-53682326D01*
X50481308Y-53860077D01*
X50606389Y-54018835D01*
X50677458Y-54134713D01*
X50687111Y-54168982D01*
X50725475Y-54262806D01*
X50825214Y-54399323D01*
X50941111Y-54524889D01*
X51195111Y-54774171D01*
X51195111Y-53170223D01*
X50574222Y-53170223D01*
X50271884Y-53174750D01*
X50073870Y-53188917D01*
X49971952Y-53213598D01*
X49953333Y-53236259D01*
X49990382Y-53303468D01*
G37*
X49990382Y-53303468D02*
X50089743Y-53428839D01*
X50233736Y-53590878D01*
X50320222Y-53682326D01*
X50481308Y-53860077D01*
X50606389Y-54018835D01*
X50677458Y-54134713D01*
X50687111Y-54168982D01*
X50725475Y-54262806D01*
X50825214Y-54399323D01*
X50941111Y-54524889D01*
X51195111Y-54774171D01*
X51195111Y-53170223D01*
X50574222Y-53170223D01*
X50271884Y-53174750D01*
X50073870Y-53188917D01*
X49971952Y-53213598D01*
X49953333Y-53236259D01*
X49990382Y-53303468D01*
G36*
X50333511Y-50941236D02*
G01*
X50441351Y-51081089D01*
X50590478Y-51239190D01*
X50755848Y-51391516D01*
X50912419Y-51514043D01*
X51035149Y-51582746D01*
X51069747Y-51589778D01*
X51133621Y-51582296D01*
X51171076Y-51544078D01*
X51189119Y-51451466D01*
X51194755Y-51280802D01*
X51195111Y-51166445D01*
X51195111Y-50743111D01*
X50743555Y-50743111D01*
X50517015Y-50746011D01*
X50381124Y-50757998D01*
X50313717Y-50784010D01*
X50292631Y-50828980D01*
X50292000Y-50843656D01*
X50333511Y-50941236D01*
G37*
X50333511Y-50941236D02*
X50441351Y-51081089D01*
X50590478Y-51239190D01*
X50755848Y-51391516D01*
X50912419Y-51514043D01*
X51035149Y-51582746D01*
X51069747Y-51589778D01*
X51133621Y-51582296D01*
X51171076Y-51544078D01*
X51189119Y-51451466D01*
X51194755Y-51280802D01*
X51195111Y-51166445D01*
X51195111Y-50743111D01*
X50743555Y-50743111D01*
X50517015Y-50746011D01*
X50381124Y-50757998D01*
X50313717Y-50784010D01*
X50292631Y-50828980D01*
X50292000Y-50843656D01*
X50333511Y-50941236D01*
G36*
X48521800Y-45568991D02*
G01*
X48616475Y-45696628D01*
X48759824Y-45854560D01*
X48931561Y-46023374D01*
X49111395Y-46183654D01*
X49279040Y-46315989D01*
X49414207Y-46400963D01*
X49467382Y-46420483D01*
X49740673Y-46526045D01*
X49972268Y-46717331D01*
X50141695Y-46969191D01*
X50228483Y-47256472D01*
X50235555Y-47364258D01*
X50248292Y-47473104D01*
X50297060Y-47579948D01*
X50397692Y-47709060D01*
X50566024Y-47884710D01*
X50591878Y-47910417D01*
X50948201Y-48263573D01*
X51057545Y-48142913D01*
X51118393Y-48015128D01*
X51161284Y-47804523D01*
X51185517Y-47539842D01*
X51190389Y-47249828D01*
X51175198Y-46963223D01*
X51139242Y-46708771D01*
X51096423Y-46551362D01*
X50911297Y-46195380D01*
X50642002Y-45875265D01*
X50311086Y-45607136D01*
X49941101Y-45407113D01*
X49554595Y-45291317D01*
X49302335Y-45268857D01*
X49077663Y-45284778D01*
X48854072Y-45325606D01*
X48662151Y-45382911D01*
X48532492Y-45448261D01*
X48496090Y-45491063D01*
X48521800Y-45568991D01*
G37*
X48521800Y-45568991D02*
X48616475Y-45696628D01*
X48759824Y-45854560D01*
X48931561Y-46023374D01*
X49111395Y-46183654D01*
X49279040Y-46315989D01*
X49414207Y-46400963D01*
X49467382Y-46420483D01*
X49740673Y-46526045D01*
X49972268Y-46717331D01*
X50141695Y-46969191D01*
X50228483Y-47256472D01*
X50235555Y-47364258D01*
X50248292Y-47473104D01*
X50297060Y-47579948D01*
X50397692Y-47709060D01*
X50566024Y-47884710D01*
X50591878Y-47910417D01*
X50948201Y-48263573D01*
X51057545Y-48142913D01*
X51118393Y-48015128D01*
X51161284Y-47804523D01*
X51185517Y-47539842D01*
X51190389Y-47249828D01*
X51175198Y-46963223D01*
X51139242Y-46708771D01*
X51096423Y-46551362D01*
X50911297Y-46195380D01*
X50642002Y-45875265D01*
X50311086Y-45607136D01*
X49941101Y-45407113D01*
X49554595Y-45291317D01*
X49302335Y-45268857D01*
X49077663Y-45284778D01*
X48854072Y-45325606D01*
X48662151Y-45382911D01*
X48532492Y-45448261D01*
X48496090Y-45491063D01*
X48521800Y-45568991D01*
G36*
X49935813Y-59230552D02*
G01*
X50039169Y-59365685D01*
X50186835Y-59524673D01*
X50231365Y-59568075D01*
X50399296Y-59725162D01*
X50519555Y-59819770D01*
X50625772Y-59867737D01*
X50751574Y-59884904D01*
X50908698Y-59887111D01*
X51251555Y-59887111D01*
X51251555Y-59040445D01*
X50574222Y-59040445D01*
X50287525Y-59041786D01*
X50095155Y-59047713D01*
X49978564Y-59061083D01*
X49919202Y-59084751D01*
X49898522Y-59121574D01*
X49896888Y-59144742D01*
X49935813Y-59230552D01*
G37*
X49935813Y-59230552D02*
X50039169Y-59365685D01*
X50186835Y-59524673D01*
X50231365Y-59568075D01*
X50399296Y-59725162D01*
X50519555Y-59819770D01*
X50625772Y-59867737D01*
X50751574Y-59884904D01*
X50908698Y-59887111D01*
X51251555Y-59887111D01*
X51251555Y-59040445D01*
X50574222Y-59040445D01*
X50287525Y-59041786D01*
X50095155Y-59047713D01*
X49978564Y-59061083D01*
X49919202Y-59084751D01*
X49898522Y-59121574D01*
X49896888Y-59144742D01*
X49935813Y-59230552D01*
G36*
X51435276Y-51014484D02*
G01*
X51529406Y-51427859D01*
X51707170Y-51813227D01*
X51965550Y-52154489D01*
X52301527Y-52435548D01*
X52549777Y-52573578D01*
X52726862Y-52650687D01*
X52868072Y-52703159D01*
X52930777Y-52718116D01*
X52965758Y-52683951D01*
X52987879Y-52572162D01*
X52998787Y-52369788D01*
X53000634Y-52168334D01*
X52999935Y-51618000D01*
X52801174Y-51489233D01*
X52567022Y-51279856D01*
X52428026Y-51030377D01*
X52383954Y-50761065D01*
X52434574Y-50492191D01*
X52579653Y-50244026D01*
X52817820Y-50037556D01*
X52935174Y-49949812D01*
X52996636Y-49877009D01*
X52999159Y-49866592D01*
X52962256Y-49803806D01*
X52861547Y-49684060D01*
X52715101Y-49528111D01*
X52630589Y-49443259D01*
X52259844Y-49078000D01*
X51955433Y-49402848D01*
X51684857Y-49767282D01*
X51509984Y-50168098D01*
X51427796Y-50589198D01*
X51435276Y-51014484D01*
G37*
X51435276Y-51014484D02*
X51529406Y-51427859D01*
X51707170Y-51813227D01*
X51965550Y-52154489D01*
X52301527Y-52435548D01*
X52549777Y-52573578D01*
X52726862Y-52650687D01*
X52868072Y-52703159D01*
X52930777Y-52718116D01*
X52965758Y-52683951D01*
X52987879Y-52572162D01*
X52998787Y-52369788D01*
X53000634Y-52168334D01*
X52999935Y-51618000D01*
X52801174Y-51489233D01*
X52567022Y-51279856D01*
X52428026Y-51030377D01*
X52383954Y-50761065D01*
X52434574Y-50492191D01*
X52579653Y-50244026D01*
X52817820Y-50037556D01*
X52935174Y-49949812D01*
X52996636Y-49877009D01*
X52999159Y-49866592D01*
X52962256Y-49803806D01*
X52861547Y-49684060D01*
X52715101Y-49528111D01*
X52630589Y-49443259D01*
X52259844Y-49078000D01*
X51955433Y-49402848D01*
X51684857Y-49767282D01*
X51509984Y-50168098D01*
X51427796Y-50589198D01*
X51435276Y-51014484D01*
G36*
X53114222Y-61411111D02*
G01*
X53357385Y-61405445D01*
X53502058Y-61386960D01*
X53562143Y-61353430D01*
X53565777Y-61338789D01*
X53527914Y-61267604D01*
X53427356Y-61142763D01*
X53283650Y-60987945D01*
X53239585Y-60943678D01*
X53044858Y-60767250D01*
X52885964Y-60655566D01*
X52788029Y-60620889D01*
X52722402Y-60628963D01*
X52684826Y-60669482D01*
X52667546Y-60766895D01*
X52662804Y-60945649D01*
X52662666Y-61016000D01*
X52662666Y-61411111D01*
X53114222Y-61411111D01*
G37*
X53114222Y-61411111D02*
X53357385Y-61405445D01*
X53502058Y-61386960D01*
X53562143Y-61353430D01*
X53565777Y-61338789D01*
X53527914Y-61267604D01*
X53427356Y-61142763D01*
X53283650Y-60987945D01*
X53239585Y-60943678D01*
X53044858Y-60767250D01*
X52885964Y-60655566D01*
X52788029Y-60620889D01*
X52722402Y-60628963D01*
X52684826Y-60669482D01*
X52667546Y-60766895D01*
X52662804Y-60945649D01*
X52662666Y-61016000D01*
X52662666Y-61411111D01*
X53114222Y-61411111D01*
G36*
X53142444Y-64741334D02*
G01*
X53397868Y-64734436D01*
X53560977Y-64714565D01*
X53622018Y-64682952D01*
X53622222Y-64680699D01*
X53585568Y-64614138D01*
X53488147Y-64490807D01*
X53348773Y-64334004D01*
X53303185Y-64285588D01*
X53119039Y-64104035D01*
X52980889Y-63998642D01*
X52867696Y-63954742D01*
X52823408Y-63951111D01*
X52662666Y-63951111D01*
X52662666Y-64741334D01*
X53142444Y-64741334D01*
G37*
X53142444Y-64741334D02*
X53397868Y-64734436D01*
X53560977Y-64714565D01*
X53622018Y-64682952D01*
X53622222Y-64680699D01*
X53585568Y-64614138D01*
X53488147Y-64490807D01*
X53348773Y-64334004D01*
X53303185Y-64285588D01*
X53119039Y-64104035D01*
X52980889Y-63998642D01*
X52867696Y-63954742D01*
X52823408Y-63951111D01*
X52662666Y-63951111D01*
X52662666Y-64741334D01*
X53142444Y-64741334D01*
G36*
X53142444Y-54073334D02*
G01*
X53397868Y-54066436D01*
X53560977Y-54046565D01*
X53622018Y-54014952D01*
X53622222Y-54012699D01*
X53585568Y-53946138D01*
X53488147Y-53822807D01*
X53348773Y-53666004D01*
X53303185Y-53617588D01*
X53119039Y-53436035D01*
X52980889Y-53330642D01*
X52867696Y-53286742D01*
X52823408Y-53283111D01*
X52662666Y-53283111D01*
X52662666Y-54073334D01*
X53142444Y-54073334D01*
G37*
X53142444Y-54073334D02*
X53397868Y-54066436D01*
X53560977Y-54046565D01*
X53622018Y-54014952D01*
X53622222Y-54012699D01*
X53585568Y-53946138D01*
X53488147Y-53822807D01*
X53348773Y-53666004D01*
X53303185Y-53617588D01*
X53119039Y-53436035D01*
X52980889Y-53330642D01*
X52867696Y-53286742D01*
X52823408Y-53283111D01*
X52662666Y-53283111D01*
X52662666Y-54073334D01*
X53142444Y-54073334D01*
G36*
X52578073Y-59074415D02*
G01*
X52608022Y-59267628D01*
X52647572Y-59442025D01*
X52690705Y-59565030D01*
X52726823Y-59604889D01*
X52771758Y-59649845D01*
X52775555Y-59678101D01*
X52820988Y-59772249D01*
X52939527Y-59899191D01*
X53104531Y-60038855D01*
X53289359Y-60171172D01*
X53467372Y-60276069D01*
X53611927Y-60333478D01*
X53652359Y-60338667D01*
X53665081Y-60286906D01*
X53674312Y-60150329D01*
X53678274Y-59956998D01*
X53678309Y-59929445D01*
X53675594Y-59716346D01*
X53661139Y-59585894D01*
X53624791Y-59507856D01*
X53556395Y-59452003D01*
X53508466Y-59423777D01*
X53335004Y-59264524D01*
X53247511Y-59044057D01*
X53247704Y-58825809D01*
X53303157Y-58665463D01*
X53402649Y-58511566D01*
X53518443Y-58399653D01*
X53608111Y-58364087D01*
X53670773Y-58340843D01*
X53653840Y-58269239D01*
X53553552Y-58142270D01*
X53410555Y-57995904D01*
X53142444Y-57734064D01*
X52909244Y-57990216D01*
X52776373Y-58157818D01*
X52676987Y-58322891D01*
X52641133Y-58417628D01*
X52602257Y-58608506D01*
X52571059Y-58761862D01*
X52563746Y-58894967D01*
X52578073Y-59074415D01*
G37*
X52578073Y-59074415D02*
X52608022Y-59267628D01*
X52647572Y-59442025D01*
X52690705Y-59565030D01*
X52726823Y-59604889D01*
X52771758Y-59649845D01*
X52775555Y-59678101D01*
X52820988Y-59772249D01*
X52939527Y-59899191D01*
X53104531Y-60038855D01*
X53289359Y-60171172D01*
X53467372Y-60276069D01*
X53611927Y-60333478D01*
X53652359Y-60338667D01*
X53665081Y-60286906D01*
X53674312Y-60150329D01*
X53678274Y-59956998D01*
X53678309Y-59929445D01*
X53675594Y-59716346D01*
X53661139Y-59585894D01*
X53624791Y-59507856D01*
X53556395Y-59452003D01*
X53508466Y-59423777D01*
X53335004Y-59264524D01*
X53247511Y-59044057D01*
X53247704Y-58825809D01*
X53303157Y-58665463D01*
X53402649Y-58511566D01*
X53518443Y-58399653D01*
X53608111Y-58364087D01*
X53670773Y-58340843D01*
X53653840Y-58269239D01*
X53553552Y-58142270D01*
X53410555Y-57995904D01*
X53142444Y-57734064D01*
X52909244Y-57990216D01*
X52776373Y-58157818D01*
X52676987Y-58322891D01*
X52641133Y-58417628D01*
X52602257Y-58608506D01*
X52571059Y-58761862D01*
X52563746Y-58894967D01*
X52578073Y-59074415D01*
G36*
X53227111Y-68071556D02*
G01*
X53227111Y-67112000D01*
X53735111Y-67112000D01*
X53994237Y-67107287D01*
X54155011Y-67091801D01*
X54231629Y-67063520D01*
X54243111Y-67039678D01*
X54205122Y-66968507D01*
X54104293Y-66844078D01*
X53960329Y-66690139D01*
X53918555Y-66648498D01*
X53692061Y-66446834D01*
X53514464Y-66336609D01*
X53424666Y-66311599D01*
X53255333Y-66293556D01*
X53239024Y-65799667D01*
X53222716Y-65305778D01*
X52606222Y-65305778D01*
X52606222Y-68071556D01*
X53227111Y-68071556D01*
G37*
X53227111Y-68071556D02*
X53227111Y-67112000D01*
X53735111Y-67112000D01*
X53994237Y-67107287D01*
X54155011Y-67091801D01*
X54231629Y-67063520D01*
X54243111Y-67039678D01*
X54205122Y-66968507D01*
X54104293Y-66844078D01*
X53960329Y-66690139D01*
X53918555Y-66648498D01*
X53692061Y-66446834D01*
X53514464Y-66336609D01*
X53424666Y-66311599D01*
X53255333Y-66293556D01*
X53239024Y-65799667D01*
X53222716Y-65305778D01*
X52606222Y-65305778D01*
X52606222Y-68071556D01*
X53227111Y-68071556D01*
G36*
X53683018Y-52395456D02*
G01*
X53694747Y-52582022D01*
X53711858Y-52695486D01*
X53725056Y-52718667D01*
X53801782Y-52701731D01*
X53944973Y-52658639D01*
X54035173Y-52628806D01*
X54192734Y-52554563D01*
X54376205Y-52438159D01*
X54560291Y-52299888D01*
X54719696Y-52160040D01*
X54829127Y-52038906D01*
X54864000Y-51963917D01*
X54826154Y-51896576D01*
X54724952Y-51773284D01*
X54578893Y-51615826D01*
X54504955Y-51541109D01*
X54326990Y-51370716D01*
X54210604Y-51276110D01*
X54142668Y-51248444D01*
X54111190Y-51275738D01*
X54042623Y-51360982D01*
X53915658Y-51459846D01*
X53877567Y-51483574D01*
X53678666Y-51600929D01*
X53678666Y-52159798D01*
X53683018Y-52395456D01*
G37*
X53683018Y-52395456D02*
X53694747Y-52582022D01*
X53711858Y-52695486D01*
X53725056Y-52718667D01*
X53801782Y-52701731D01*
X53944973Y-52658639D01*
X54035173Y-52628806D01*
X54192734Y-52554563D01*
X54376205Y-52438159D01*
X54560291Y-52299888D01*
X54719696Y-52160040D01*
X54829127Y-52038906D01*
X54864000Y-51963917D01*
X54826154Y-51896576D01*
X54724952Y-51773284D01*
X54578893Y-51615826D01*
X54504955Y-51541109D01*
X54326990Y-51370716D01*
X54210604Y-51276110D01*
X54142668Y-51248444D01*
X54111190Y-51275738D01*
X54042623Y-51360982D01*
X53915658Y-51459846D01*
X53877567Y-51483574D01*
X53678666Y-51600929D01*
X53678666Y-52159798D01*
X53683018Y-52395456D01*
G36*
X53359251Y-63443111D02*
G01*
X53778929Y-63433627D01*
X54109141Y-63401950D01*
X54371969Y-63343240D01*
X54589494Y-63252661D01*
X54773591Y-63133220D01*
X54918516Y-62993700D01*
X54966106Y-62857343D01*
X54916056Y-62704708D01*
X54768060Y-62516352D01*
X54763810Y-62511778D01*
X54553555Y-62286000D01*
X54399107Y-62434012D01*
X54294712Y-62519446D01*
X54174832Y-62579820D01*
X54018491Y-62619224D01*
X53804711Y-62641748D01*
X53512515Y-62651482D01*
X53276500Y-62652889D01*
X52662666Y-62652889D01*
X52662666Y-63443111D01*
X53359251Y-63443111D01*
G37*
X53359251Y-63443111D02*
X53778929Y-63433627D01*
X54109141Y-63401950D01*
X54371969Y-63343240D01*
X54589494Y-63252661D01*
X54773591Y-63133220D01*
X54918516Y-62993700D01*
X54966106Y-62857343D01*
X54916056Y-62704708D01*
X54768060Y-62516352D01*
X54763810Y-62511778D01*
X54553555Y-62286000D01*
X54399107Y-62434012D01*
X54294712Y-62519446D01*
X54174832Y-62579820D01*
X54018491Y-62619224D01*
X53804711Y-62641748D01*
X53512515Y-62651482D01*
X53276500Y-62652889D01*
X52662666Y-62652889D01*
X52662666Y-63443111D01*
X53359251Y-63443111D01*
G36*
X54132888Y-60124351D02*
G01*
X54139931Y-60271333D01*
X54149913Y-60337448D01*
X54151551Y-60338667D01*
X54270398Y-60307185D01*
X54434138Y-60225614D01*
X54614626Y-60113262D01*
X54783714Y-59989438D01*
X54913258Y-59873452D01*
X54975111Y-59784613D01*
X54976888Y-59772450D01*
X54940221Y-59716550D01*
X54844605Y-59606526D01*
X54725672Y-59481562D01*
X54572117Y-59338866D01*
X54479105Y-59284957D01*
X54445034Y-59303417D01*
X54375062Y-59382528D01*
X54272917Y-59445104D01*
X54199243Y-59486802D01*
X54156519Y-59546842D01*
X54136385Y-59653312D01*
X54130477Y-59834300D01*
X54130222Y-59924394D01*
X54132888Y-60124351D01*
G37*
X54132888Y-60124351D02*
X54139931Y-60271333D01*
X54149913Y-60337448D01*
X54151551Y-60338667D01*
X54270398Y-60307185D01*
X54434138Y-60225614D01*
X54614626Y-60113262D01*
X54783714Y-59989438D01*
X54913258Y-59873452D01*
X54975111Y-59784613D01*
X54976888Y-59772450D01*
X54940221Y-59716550D01*
X54844605Y-59606526D01*
X54725672Y-59481562D01*
X54572117Y-59338866D01*
X54479105Y-59284957D01*
X54445034Y-59303417D01*
X54375062Y-59382528D01*
X54272917Y-59445104D01*
X54199243Y-59486802D01*
X54156519Y-59546842D01*
X54136385Y-59653312D01*
X54130477Y-59834300D01*
X54130222Y-59924394D01*
X54132888Y-60124351D01*
G36*
X53227111Y-71119556D02*
G01*
X53227111Y-70195134D01*
X53229908Y-69813329D01*
X53240265Y-69531838D01*
X53261135Y-69338180D01*
X53295467Y-69219872D01*
X53346212Y-69164434D01*
X53416320Y-69159386D01*
X53468258Y-69175101D01*
X53506491Y-69211056D01*
X53533990Y-69296367D01*
X53553303Y-69448376D01*
X53566981Y-69684427D01*
X53574190Y-69895742D01*
X53585100Y-70195560D01*
X53600242Y-70406603D01*
X53623683Y-70552984D01*
X53659489Y-70658816D01*
X53711725Y-70748213D01*
X53719888Y-70759819D01*
X53921906Y-70959916D01*
X54165097Y-71075092D01*
X54427244Y-71109593D01*
X54686132Y-71067668D01*
X54919544Y-70953562D01*
X55105265Y-70771523D01*
X55221079Y-70525796D01*
X55233696Y-70470445D01*
X55240939Y-70374406D01*
X55211394Y-70284703D01*
X55129892Y-70175593D01*
X54981264Y-70021334D01*
X54952126Y-69992595D01*
X54638222Y-69684079D01*
X54638222Y-69943350D01*
X54611085Y-70162583D01*
X54531501Y-70286807D01*
X54402207Y-70312512D01*
X54358708Y-70301971D01*
X54308504Y-70278195D01*
X54275370Y-70231252D01*
X54255794Y-70140675D01*
X54246263Y-69986000D01*
X54243267Y-69746759D01*
X54243111Y-69628322D01*
X54240805Y-69342563D01*
X54231218Y-69143648D01*
X54210344Y-69005576D01*
X54174175Y-68902349D01*
X54118706Y-68807969D01*
X54116111Y-68804129D01*
X53983258Y-68654562D01*
X53810297Y-68514683D01*
X53763333Y-68485037D01*
X53497473Y-68387913D01*
X53232694Y-68393825D01*
X52991207Y-68494915D01*
X52795223Y-68683324D01*
X52697308Y-68862192D01*
X52662361Y-68974108D01*
X52637119Y-69120661D01*
X52620269Y-69319749D01*
X52610501Y-69589270D01*
X52606502Y-69947121D01*
X52606222Y-70104698D01*
X52606222Y-71119556D01*
X53227111Y-71119556D01*
G37*
X53227111Y-71119556D02*
X53227111Y-70195134D01*
X53229908Y-69813329D01*
X53240265Y-69531838D01*
X53261135Y-69338180D01*
X53295467Y-69219872D01*
X53346212Y-69164434D01*
X53416320Y-69159386D01*
X53468258Y-69175101D01*
X53506491Y-69211056D01*
X53533990Y-69296367D01*
X53553303Y-69448376D01*
X53566981Y-69684427D01*
X53574190Y-69895742D01*
X53585100Y-70195560D01*
X53600242Y-70406603D01*
X53623683Y-70552984D01*
X53659489Y-70658816D01*
X53711725Y-70748213D01*
X53719888Y-70759819D01*
X53921906Y-70959916D01*
X54165097Y-71075092D01*
X54427244Y-71109593D01*
X54686132Y-71067668D01*
X54919544Y-70953562D01*
X55105265Y-70771523D01*
X55221079Y-70525796D01*
X55233696Y-70470445D01*
X55240939Y-70374406D01*
X55211394Y-70284703D01*
X55129892Y-70175593D01*
X54981264Y-70021334D01*
X54952126Y-69992595D01*
X54638222Y-69684079D01*
X54638222Y-69943350D01*
X54611085Y-70162583D01*
X54531501Y-70286807D01*
X54402207Y-70312512D01*
X54358708Y-70301971D01*
X54308504Y-70278195D01*
X54275370Y-70231252D01*
X54255794Y-70140675D01*
X54246263Y-69986000D01*
X54243267Y-69746759D01*
X54243111Y-69628322D01*
X54240805Y-69342563D01*
X54231218Y-69143648D01*
X54210344Y-69005576D01*
X54174175Y-68902349D01*
X54118706Y-68807969D01*
X54116111Y-68804129D01*
X53983258Y-68654562D01*
X53810297Y-68514683D01*
X53763333Y-68485037D01*
X53497473Y-68387913D01*
X53232694Y-68393825D01*
X52991207Y-68494915D01*
X52795223Y-68683324D01*
X52697308Y-68862192D01*
X52662361Y-68974108D01*
X52637119Y-69120661D01*
X52620269Y-69319749D01*
X52610501Y-69589270D01*
X52606502Y-69947121D01*
X52606222Y-70104698D01*
X52606222Y-71119556D01*
X53227111Y-71119556D01*
G36*
X53975067Y-66518077D02*
G01*
X54125320Y-66683580D01*
X54230636Y-66789212D01*
X54556829Y-67112000D01*
X55259111Y-67112000D01*
X55259111Y-66265334D01*
X54581777Y-66265334D01*
X54259154Y-66269410D01*
X54043237Y-66287674D01*
X53927960Y-66329173D01*
X53907259Y-66402957D01*
X53975067Y-66518077D01*
G37*
X53975067Y-66518077D02*
X54125320Y-66683580D01*
X54230636Y-66789212D01*
X54556829Y-67112000D01*
X55259111Y-67112000D01*
X55259111Y-66265334D01*
X54581777Y-66265334D01*
X54259154Y-66269410D01*
X54043237Y-66287674D01*
X53927960Y-66329173D01*
X53907259Y-66402957D01*
X53975067Y-66518077D01*
G36*
X53341710Y-64186827D02*
G01*
X53461080Y-64322856D01*
X53606344Y-64471586D01*
X53929132Y-64797778D01*
X55259111Y-64797778D01*
X55259111Y-63951111D01*
X54271333Y-63951111D01*
X53880638Y-63952464D01*
X53594866Y-63960679D01*
X53406052Y-63981988D01*
X53306231Y-64022627D01*
X53287438Y-64088829D01*
X53341710Y-64186827D01*
G37*
X53341710Y-64186827D02*
X53461080Y-64322856D01*
X53606344Y-64471586D01*
X53929132Y-64797778D01*
X55259111Y-64797778D01*
X55259111Y-63951111D01*
X54271333Y-63951111D01*
X53880638Y-63952464D01*
X53594866Y-63960679D01*
X53406052Y-63981988D01*
X53306231Y-64022627D01*
X53287438Y-64088829D01*
X53341710Y-64186827D01*
G36*
X53270574Y-60787569D02*
G01*
X53384866Y-60922054D01*
X53545841Y-61075774D01*
X53729354Y-61227836D01*
X53911258Y-61357346D01*
X54067407Y-61443409D01*
X54113082Y-61459851D01*
X54334741Y-61563751D01*
X54497366Y-61721261D01*
X54577385Y-61907167D01*
X54581777Y-61961223D01*
X54614083Y-62061405D01*
X54696518Y-62207275D01*
X54807359Y-62369032D01*
X54924883Y-62516875D01*
X55027367Y-62621004D01*
X55085973Y-62652889D01*
X55158632Y-62601510D01*
X55211192Y-62464467D01*
X55242381Y-62267408D01*
X55250930Y-62035976D01*
X55235566Y-61795817D01*
X55195020Y-61572575D01*
X55146576Y-61429996D01*
X54992603Y-61180855D01*
X54774010Y-60948826D01*
X54527495Y-60768791D01*
X54377277Y-60698771D01*
X54216156Y-60660346D01*
X54008344Y-60634715D01*
X53781294Y-60622012D01*
X53562460Y-60622367D01*
X53379298Y-60635915D01*
X53259259Y-60662788D01*
X53227111Y-60693212D01*
X53270574Y-60787569D01*
G37*
X53270574Y-60787569D02*
X53384866Y-60922054D01*
X53545841Y-61075774D01*
X53729354Y-61227836D01*
X53911258Y-61357346D01*
X54067407Y-61443409D01*
X54113082Y-61459851D01*
X54334741Y-61563751D01*
X54497366Y-61721261D01*
X54577385Y-61907167D01*
X54581777Y-61961223D01*
X54614083Y-62061405D01*
X54696518Y-62207275D01*
X54807359Y-62369032D01*
X54924883Y-62516875D01*
X55027367Y-62621004D01*
X55085973Y-62652889D01*
X55158632Y-62601510D01*
X55211192Y-62464467D01*
X55242381Y-62267408D01*
X55250930Y-62035976D01*
X55235566Y-61795817D01*
X55195020Y-61572575D01*
X55146576Y-61429996D01*
X54992603Y-61180855D01*
X54774010Y-60948826D01*
X54527495Y-60768791D01*
X54377277Y-60698771D01*
X54216156Y-60660346D01*
X54008344Y-60634715D01*
X53781294Y-60622012D01*
X53562460Y-60622367D01*
X53379298Y-60635915D01*
X53259259Y-60662788D01*
X53227111Y-60693212D01*
X53270574Y-60787569D01*
G36*
X53405227Y-57763307D02*
G01*
X53512787Y-57893831D01*
X53654421Y-58035010D01*
X53811112Y-58168188D01*
X53963841Y-58274707D01*
X54093588Y-58335911D01*
X54114776Y-58341010D01*
X54308661Y-58431602D01*
X54460717Y-58610078D01*
X54553715Y-58854146D01*
X54565991Y-58924819D01*
X54611363Y-59086216D01*
X54714662Y-59246521D01*
X54863488Y-59406830D01*
X55131779Y-59671086D01*
X55195445Y-59488454D01*
X55233183Y-59304402D01*
X55251027Y-59056866D01*
X55248571Y-58793557D01*
X55225412Y-58562185D01*
X55204095Y-58467118D01*
X55062427Y-58172898D01*
X54836896Y-57905063D01*
X54556521Y-57691468D01*
X54262486Y-57563243D01*
X54062531Y-57535566D01*
X53809172Y-57536189D01*
X53557521Y-57562300D01*
X53368409Y-57608850D01*
X53350761Y-57662094D01*
X53405227Y-57763307D01*
G37*
X53405227Y-57763307D02*
X53512787Y-57893831D01*
X53654421Y-58035010D01*
X53811112Y-58168188D01*
X53963841Y-58274707D01*
X54093588Y-58335911D01*
X54114776Y-58341010D01*
X54308661Y-58431602D01*
X54460717Y-58610078D01*
X54553715Y-58854146D01*
X54565991Y-58924819D01*
X54611363Y-59086216D01*
X54714662Y-59246521D01*
X54863488Y-59406830D01*
X55131779Y-59671086D01*
X55195445Y-59488454D01*
X55233183Y-59304402D01*
X55251027Y-59056866D01*
X55248571Y-58793557D01*
X55225412Y-58562185D01*
X55204095Y-58467118D01*
X55062427Y-58172898D01*
X54836896Y-57905063D01*
X54556521Y-57691468D01*
X54262486Y-57563243D01*
X54062531Y-57535566D01*
X53809172Y-57536189D01*
X53557521Y-57562300D01*
X53368409Y-57608850D01*
X53350761Y-57662094D01*
X53405227Y-57763307D01*
G36*
X52663906Y-55639667D02*
G01*
X52665949Y-56015292D01*
X52672121Y-56297326D01*
X52684076Y-56505041D01*
X52703466Y-56657709D01*
X52731947Y-56774599D01*
X52769634Y-56871616D01*
X52922371Y-57082877D01*
X53140183Y-57221792D01*
X53397016Y-57282641D01*
X53666815Y-57259708D01*
X53923526Y-57147271D01*
X53948278Y-57130313D01*
X54057641Y-57035347D01*
X54142256Y-56911451D01*
X54221044Y-56726603D01*
X54268312Y-56588692D01*
X54294004Y-56550189D01*
X54342686Y-56556377D01*
X54428365Y-56616881D01*
X54565050Y-56741332D01*
X54740518Y-56913247D01*
X54921018Y-57089161D01*
X55073115Y-57230808D01*
X55178767Y-57321798D01*
X55218026Y-57347111D01*
X55235884Y-57294813D01*
X55249821Y-57154467D01*
X55257885Y-56950898D01*
X55259111Y-56824295D01*
X55259111Y-56301478D01*
X53592633Y-54637778D01*
X53340000Y-54637778D01*
X53340000Y-55463324D01*
X53509333Y-55625556D01*
X53612785Y-55741595D01*
X53663146Y-55861580D01*
X53678287Y-56034064D01*
X53678666Y-56085686D01*
X53669394Y-56274766D01*
X53635124Y-56383593D01*
X53569488Y-56442014D01*
X53467098Y-56487969D01*
X53400571Y-56484155D01*
X53362294Y-56415310D01*
X53344654Y-56266170D01*
X53340040Y-56021473D01*
X53340000Y-55981884D01*
X53340000Y-55463324D01*
X53340000Y-54637778D01*
X52662666Y-54637778D01*
X52663906Y-55639667D01*
G37*
X52663906Y-55639667D02*
X52665949Y-56015292D01*
X52672121Y-56297326D01*
X52684076Y-56505041D01*
X52703466Y-56657709D01*
X52731947Y-56774599D01*
X52769634Y-56871616D01*
X52922371Y-57082877D01*
X53140183Y-57221792D01*
X53397016Y-57282641D01*
X53666815Y-57259708D01*
X53923526Y-57147271D01*
X53948278Y-57130313D01*
X54057641Y-57035347D01*
X54142256Y-56911451D01*
X54221044Y-56726603D01*
X54268312Y-56588692D01*
X54294004Y-56550189D01*
X54342686Y-56556377D01*
X54428365Y-56616881D01*
X54565050Y-56741332D01*
X54740518Y-56913247D01*
X54921018Y-57089161D01*
X55073115Y-57230808D01*
X55178767Y-57321798D01*
X55218026Y-57347111D01*
X55235884Y-57294813D01*
X55249821Y-57154467D01*
X55257885Y-56950898D01*
X55259111Y-56824295D01*
X55259111Y-56301478D01*
X53592633Y-54637778D01*
X53340000Y-54637778D01*
X53340000Y-55463324D01*
X53509333Y-55625556D01*
X53612785Y-55741595D01*
X53663146Y-55861580D01*
X53678287Y-56034064D01*
X53678666Y-56085686D01*
X53669394Y-56274766D01*
X53635124Y-56383593D01*
X53569488Y-56442014D01*
X53467098Y-56487969D01*
X53400571Y-56484155D01*
X53362294Y-56415310D01*
X53344654Y-56266170D01*
X53340040Y-56021473D01*
X53340000Y-55981884D01*
X53340000Y-55463324D01*
X53340000Y-54637778D01*
X52662666Y-54637778D01*
X52663906Y-55639667D01*
G36*
X53341710Y-53518827D02*
G01*
X53461080Y-53654856D01*
X53606344Y-53803586D01*
X53929132Y-54129778D01*
X55259111Y-54129778D01*
X55259111Y-53283111D01*
X54271333Y-53283111D01*
X53880638Y-53284464D01*
X53594866Y-53292679D01*
X53406052Y-53313988D01*
X53306231Y-53354627D01*
X53287438Y-53420829D01*
X53341710Y-53518827D01*
G37*
X53341710Y-53518827D02*
X53461080Y-53654856D01*
X53606344Y-53803586D01*
X53929132Y-54129778D01*
X55259111Y-54129778D01*
X55259111Y-53283111D01*
X54271333Y-53283111D01*
X53880638Y-53284464D01*
X53594866Y-53292679D01*
X53406052Y-53313988D01*
X53306231Y-53354627D01*
X53287438Y-53420829D01*
X53341710Y-53518827D01*
G36*
X52585800Y-49068547D02*
G01*
X52680475Y-49196184D01*
X52823824Y-49354116D01*
X52995561Y-49522929D01*
X53175395Y-49683210D01*
X53343040Y-49815544D01*
X53478207Y-49900519D01*
X53531382Y-49920039D01*
X53804673Y-50025601D01*
X54036268Y-50216887D01*
X54205695Y-50468747D01*
X54292483Y-50756028D01*
X54299555Y-50863813D01*
X54312292Y-50972660D01*
X54361060Y-51079503D01*
X54461692Y-51208615D01*
X54630024Y-51384265D01*
X54655878Y-51409973D01*
X55012201Y-51763128D01*
X55121545Y-51642469D01*
X55182393Y-51514683D01*
X55225284Y-51304079D01*
X55249517Y-51039398D01*
X55254389Y-50749383D01*
X55239198Y-50462778D01*
X55203242Y-50208326D01*
X55160423Y-50050918D01*
X54975297Y-49694936D01*
X54706002Y-49374820D01*
X54375086Y-49106691D01*
X54005101Y-48906669D01*
X53618595Y-48790873D01*
X53366335Y-48768413D01*
X53141663Y-48784334D01*
X52918072Y-48825162D01*
X52726151Y-48882466D01*
X52596492Y-48947816D01*
X52560090Y-48990619D01*
X52585800Y-49068547D01*
G37*
X52585800Y-49068547D02*
X52680475Y-49196184D01*
X52823824Y-49354116D01*
X52995561Y-49522929D01*
X53175395Y-49683210D01*
X53343040Y-49815544D01*
X53478207Y-49900519D01*
X53531382Y-49920039D01*
X53804673Y-50025601D01*
X54036268Y-50216887D01*
X54205695Y-50468747D01*
X54292483Y-50756028D01*
X54299555Y-50863813D01*
X54312292Y-50972660D01*
X54361060Y-51079503D01*
X54461692Y-51208615D01*
X54630024Y-51384265D01*
X54655878Y-51409973D01*
X55012201Y-51763128D01*
X55121545Y-51642469D01*
X55182393Y-51514683D01*
X55225284Y-51304079D01*
X55249517Y-51039398D01*
X55254389Y-50749383D01*
X55239198Y-50462778D01*
X55203242Y-50208326D01*
X55160423Y-50050918D01*
X54975297Y-49694936D01*
X54706002Y-49374820D01*
X54375086Y-49106691D01*
X54005101Y-48906669D01*
X53618595Y-48790873D01*
X53366335Y-48768413D01*
X53141663Y-48784334D01*
X52918072Y-48825162D01*
X52726151Y-48882466D01*
X52596492Y-48947816D01*
X52560090Y-48990619D01*
X52585800Y-49068547D01*
G36*
X55005111Y-69934223D02*
G01*
X55315555Y-70240811D01*
X55315555Y-68410223D01*
X54694666Y-68410223D01*
X54694666Y-69627634D01*
X55005111Y-69934223D01*
G37*
X55005111Y-69934223D02*
X55315555Y-70240811D01*
X55315555Y-68410223D01*
X54694666Y-68410223D01*
X54694666Y-69627634D01*
X55005111Y-69934223D01*
G36*
X53999813Y-54827885D02*
G01*
X54103169Y-54963019D01*
X54250835Y-55122007D01*
X54295365Y-55165408D01*
X54463296Y-55322496D01*
X54583555Y-55417103D01*
X54689772Y-55465070D01*
X54815574Y-55482237D01*
X54972698Y-55484445D01*
X55315555Y-55484445D01*
X55315555Y-54637778D01*
X54638222Y-54637778D01*
X54351525Y-54639119D01*
X54159155Y-54645047D01*
X54042564Y-54658416D01*
X53983202Y-54682085D01*
X53962522Y-54718908D01*
X53960888Y-54742075D01*
X53999813Y-54827885D01*
G37*
X53999813Y-54827885D02*
X54103169Y-54963019D01*
X54250835Y-55122007D01*
X54295365Y-55165408D01*
X54463296Y-55322496D01*
X54583555Y-55417103D01*
X54689772Y-55465070D01*
X54815574Y-55482237D01*
X54972698Y-55484445D01*
X55315555Y-55484445D01*
X55315555Y-54637778D01*
X54638222Y-54637778D01*
X54351525Y-54639119D01*
X54159155Y-54645047D01*
X54042564Y-54658416D01*
X53983202Y-54682085D01*
X53962522Y-54718908D01*
X53960888Y-54742075D01*
X53999813Y-54827885D01*
G36*
X85379500Y-44202926D02*
G01*
X85142257Y-44362172D01*
X84939261Y-44561530D01*
X84793687Y-44777606D01*
X84778317Y-44809834D01*
X84758229Y-44860425D01*
X84742155Y-44919477D01*
X84729756Y-44996059D01*
X84720692Y-45099242D01*
X84714623Y-45238095D01*
X84711210Y-45421689D01*
X84710113Y-45659094D01*
X84710991Y-45959379D01*
X84713507Y-46331616D01*
X84714899Y-46503167D01*
X84727632Y-48027167D01*
X84833693Y-48247911D01*
X84990669Y-48488074D01*
X85204665Y-48692721D01*
X85451485Y-48839863D01*
X85511098Y-48863528D01*
X85574858Y-48883558D01*
X85648847Y-48899616D01*
X85742489Y-48912095D01*
X85865205Y-48921386D01*
X86026418Y-48927884D01*
X86235551Y-48931980D01*
X86502025Y-48934067D01*
X86835263Y-48934537D01*
X87199833Y-48933904D01*
X87550110Y-48932100D01*
X87876899Y-48928709D01*
X88169689Y-48923970D01*
X88417964Y-48918123D01*
X88611212Y-48911408D01*
X88738918Y-48904063D01*
X88787333Y-48897746D01*
X89080080Y-48769475D01*
X89328341Y-48582083D01*
X89518122Y-48347487D01*
X89586071Y-48217667D01*
X89608296Y-48161679D01*
X89626367Y-48099331D01*
X89640816Y-48021328D01*
X89652175Y-47918376D01*
X89660973Y-47781178D01*
X89667743Y-47600441D01*
X89673016Y-47366868D01*
X89677322Y-47071165D01*
X89681193Y-46704037D01*
X89682835Y-46524334D01*
X89683445Y-46451929D01*
X89301751Y-46451929D01*
X89301049Y-46767048D01*
X89296667Y-47071159D01*
X89288587Y-47350618D01*
X89276792Y-47591779D01*
X89261263Y-47780997D01*
X89241984Y-47904625D01*
X89233401Y-47932220D01*
X89086240Y-48177692D01*
X88875359Y-48370930D01*
X88725563Y-48456136D01*
X88663473Y-48483996D01*
X88603361Y-48506089D01*
X88534981Y-48523078D01*
X88448082Y-48535629D01*
X88332418Y-48544405D01*
X88177739Y-48550069D01*
X87973798Y-48553287D01*
X87710345Y-48554722D01*
X87377133Y-48555037D01*
X87199833Y-48554990D01*
X86826222Y-48554435D01*
X86527341Y-48552748D01*
X86293260Y-48549409D01*
X86114046Y-48543895D01*
X85979765Y-48535688D01*
X85880485Y-48524265D01*
X85806274Y-48509105D01*
X85747199Y-48489689D01*
X85718167Y-48477283D01*
X85459968Y-48320978D01*
X85270541Y-48120210D01*
X85198840Y-47995681D01*
X85173520Y-47934491D01*
X85153123Y-47863703D01*
X85136748Y-47772650D01*
X85123496Y-47650663D01*
X85112469Y-47487075D01*
X85102767Y-47271217D01*
X85093490Y-46992421D01*
X85083739Y-46640019D01*
X85083370Y-46625933D01*
X85073971Y-46220767D01*
X85070116Y-45890095D01*
X85073387Y-45623837D01*
X85085369Y-45411912D01*
X85107643Y-45244240D01*
X85141793Y-45110741D01*
X85189402Y-45001336D01*
X85252053Y-44905943D01*
X85331330Y-44814483D01*
X85374862Y-44769911D01*
X85463968Y-44684736D01*
X85550094Y-44615885D01*
X85643075Y-44561741D01*
X85752748Y-44520686D01*
X85888949Y-44491105D01*
X86061514Y-44471379D01*
X86280280Y-44459892D01*
X86555082Y-44455028D01*
X86895757Y-44455169D01*
X87270619Y-44458277D01*
X87635692Y-44462204D01*
X87926211Y-44466323D01*
X88152288Y-44471360D01*
X88324034Y-44478043D01*
X88451562Y-44487097D01*
X88544983Y-44499250D01*
X88614407Y-44515227D01*
X88669948Y-44535756D01*
X88721715Y-44561564D01*
X88723833Y-44562707D01*
X88937286Y-44711964D01*
X89115718Y-44901477D01*
X89229688Y-45094224D01*
X89250690Y-45188827D01*
X89268119Y-45354297D01*
X89281957Y-45576988D01*
X89292187Y-45843254D01*
X89298791Y-46139450D01*
X89301751Y-46451929D01*
X89683445Y-46451929D01*
X89686187Y-46126890D01*
X89688181Y-45804805D01*
X89688404Y-45548775D01*
X89686444Y-45349496D01*
X89681888Y-45197664D01*
X89674325Y-45083977D01*
X89663342Y-44999130D01*
X89648527Y-44933821D01*
X89629467Y-44878747D01*
X89607706Y-44828849D01*
X89435383Y-44547565D01*
X89204343Y-44327172D01*
X89006699Y-44208293D01*
X88766167Y-44090167D01*
X85591167Y-44090167D01*
X85379500Y-44202926D01*
G37*
X85379500Y-44202926D02*
X85142257Y-44362172D01*
X84939261Y-44561530D01*
X84793687Y-44777606D01*
X84778317Y-44809834D01*
X84758229Y-44860425D01*
X84742155Y-44919477D01*
X84729756Y-44996059D01*
X84720692Y-45099242D01*
X84714623Y-45238095D01*
X84711210Y-45421689D01*
X84710113Y-45659094D01*
X84710991Y-45959379D01*
X84713507Y-46331616D01*
X84714899Y-46503167D01*
X84727632Y-48027167D01*
X84833693Y-48247911D01*
X84990669Y-48488074D01*
X85204665Y-48692721D01*
X85451485Y-48839863D01*
X85511098Y-48863528D01*
X85574858Y-48883558D01*
X85648847Y-48899616D01*
X85742489Y-48912095D01*
X85865205Y-48921386D01*
X86026418Y-48927884D01*
X86235551Y-48931980D01*
X86502025Y-48934067D01*
X86835263Y-48934537D01*
X87199833Y-48933904D01*
X87550110Y-48932100D01*
X87876899Y-48928709D01*
X88169689Y-48923970D01*
X88417964Y-48918123D01*
X88611212Y-48911408D01*
X88738918Y-48904063D01*
X88787333Y-48897746D01*
X89080080Y-48769475D01*
X89328341Y-48582083D01*
X89518122Y-48347487D01*
X89586071Y-48217667D01*
X89608296Y-48161679D01*
X89626367Y-48099331D01*
X89640816Y-48021328D01*
X89652175Y-47918376D01*
X89660973Y-47781178D01*
X89667743Y-47600441D01*
X89673016Y-47366868D01*
X89677322Y-47071165D01*
X89681193Y-46704037D01*
X89682835Y-46524334D01*
X89683445Y-46451929D01*
X89301751Y-46451929D01*
X89301049Y-46767048D01*
X89296667Y-47071159D01*
X89288587Y-47350618D01*
X89276792Y-47591779D01*
X89261263Y-47780997D01*
X89241984Y-47904625D01*
X89233401Y-47932220D01*
X89086240Y-48177692D01*
X88875359Y-48370930D01*
X88725563Y-48456136D01*
X88663473Y-48483996D01*
X88603361Y-48506089D01*
X88534981Y-48523078D01*
X88448082Y-48535629D01*
X88332418Y-48544405D01*
X88177739Y-48550069D01*
X87973798Y-48553287D01*
X87710345Y-48554722D01*
X87377133Y-48555037D01*
X87199833Y-48554990D01*
X86826222Y-48554435D01*
X86527341Y-48552748D01*
X86293260Y-48549409D01*
X86114046Y-48543895D01*
X85979765Y-48535688D01*
X85880485Y-48524265D01*
X85806274Y-48509105D01*
X85747199Y-48489689D01*
X85718167Y-48477283D01*
X85459968Y-48320978D01*
X85270541Y-48120210D01*
X85198840Y-47995681D01*
X85173520Y-47934491D01*
X85153123Y-47863703D01*
X85136748Y-47772650D01*
X85123496Y-47650663D01*
X85112469Y-47487075D01*
X85102767Y-47271217D01*
X85093490Y-46992421D01*
X85083739Y-46640019D01*
X85083370Y-46625933D01*
X85073971Y-46220767D01*
X85070116Y-45890095D01*
X85073387Y-45623837D01*
X85085369Y-45411912D01*
X85107643Y-45244240D01*
X85141793Y-45110741D01*
X85189402Y-45001336D01*
X85252053Y-44905943D01*
X85331330Y-44814483D01*
X85374862Y-44769911D01*
X85463968Y-44684736D01*
X85550094Y-44615885D01*
X85643075Y-44561741D01*
X85752748Y-44520686D01*
X85888949Y-44491105D01*
X86061514Y-44471379D01*
X86280280Y-44459892D01*
X86555082Y-44455028D01*
X86895757Y-44455169D01*
X87270619Y-44458277D01*
X87635692Y-44462204D01*
X87926211Y-44466323D01*
X88152288Y-44471360D01*
X88324034Y-44478043D01*
X88451562Y-44487097D01*
X88544983Y-44499250D01*
X88614407Y-44515227D01*
X88669948Y-44535756D01*
X88721715Y-44561564D01*
X88723833Y-44562707D01*
X88937286Y-44711964D01*
X89115718Y-44901477D01*
X89229688Y-45094224D01*
X89250690Y-45188827D01*
X89268119Y-45354297D01*
X89281957Y-45576988D01*
X89292187Y-45843254D01*
X89298791Y-46139450D01*
X89301751Y-46451929D01*
X89683445Y-46451929D01*
X89686187Y-46126890D01*
X89688181Y-45804805D01*
X89688404Y-45548775D01*
X89686444Y-45349496D01*
X89681888Y-45197664D01*
X89674325Y-45083977D01*
X89663342Y-44999130D01*
X89648527Y-44933821D01*
X89629467Y-44878747D01*
X89607706Y-44828849D01*
X89435383Y-44547565D01*
X89204343Y-44327172D01*
X89006699Y-44208293D01*
X88766167Y-44090167D01*
X85591167Y-44090167D01*
X85379500Y-44202926D01*
G36*
X80503205Y-44502665D02*
G01*
X80217558Y-44595727D01*
X80095604Y-44662174D01*
X79964638Y-44738235D01*
X79862237Y-44775240D01*
X79760313Y-44774174D01*
X79630782Y-44736022D01*
X79497373Y-44683150D01*
X79365564Y-44632517D01*
X79268142Y-44601748D01*
X79227961Y-44597261D01*
X79233881Y-44645087D01*
X79282764Y-44733038D01*
X79359366Y-44839756D01*
X79448441Y-44943883D01*
X79529931Y-45020322D01*
X79604587Y-45083518D01*
X79623144Y-45115888D01*
X79578793Y-45119109D01*
X79464726Y-45094858D01*
X79348969Y-45064890D01*
X79220233Y-45034437D01*
X79128618Y-45019886D01*
X79099593Y-45021963D01*
X79119386Y-45057431D01*
X79188116Y-45136201D01*
X79292811Y-45243819D01*
X79341041Y-45290926D01*
X79469361Y-45418329D01*
X79546925Y-45510031D01*
X79586261Y-45586576D01*
X79599901Y-45668506D01*
X79601000Y-45717140D01*
X79632273Y-46050739D01*
X79720551Y-46415720D01*
X79857521Y-46789597D01*
X80034873Y-47149879D01*
X80244295Y-47474079D01*
X80256204Y-47489922D01*
X80573878Y-47840486D01*
X80947727Y-48133551D01*
X81368521Y-48365377D01*
X81827027Y-48532226D01*
X82314013Y-48630359D01*
X82820248Y-48656038D01*
X83093500Y-48638962D01*
X83457557Y-48579966D01*
X83814927Y-48473792D01*
X84096498Y-48358762D01*
X84357449Y-48241654D01*
X83937141Y-48188930D01*
X83703141Y-48153727D01*
X83515067Y-48108174D01*
X83334184Y-48040789D01*
X83157000Y-47957693D01*
X82797167Y-47779181D01*
X82987667Y-47730103D01*
X83228226Y-47649402D01*
X83420120Y-47535505D01*
X83598540Y-47366921D01*
X83617820Y-47345293D01*
X83732477Y-47206190D01*
X83783145Y-47114649D01*
X83768372Y-47061157D01*
X83686707Y-47036199D01*
X83569750Y-47030362D01*
X83347500Y-47028391D01*
X83559167Y-46919912D01*
X83829905Y-46746731D01*
X84025644Y-46540438D01*
X84151880Y-46294171D01*
X84196561Y-46124293D01*
X84212871Y-46020481D01*
X84201637Y-45980419D01*
X84152567Y-45984968D01*
X84126012Y-45993093D01*
X84011572Y-46022280D01*
X83877841Y-46047617D01*
X83877088Y-46047732D01*
X83729342Y-46070303D01*
X83863206Y-45957663D01*
X84023155Y-45772077D01*
X84134867Y-45535721D01*
X84187182Y-45273940D01*
X84189602Y-45216323D01*
X84180512Y-45062731D01*
X84153709Y-44912747D01*
X84115478Y-44789300D01*
X84072104Y-44715317D01*
X84049169Y-44704000D01*
X84005535Y-44732000D01*
X83926374Y-44803393D01*
X83874388Y-44855556D01*
X83565058Y-45125316D01*
X83180099Y-45369391D01*
X83044604Y-45440394D01*
X82851739Y-45524716D01*
X82622346Y-45606157D01*
X82382282Y-45677328D01*
X82157406Y-45730844D01*
X81973576Y-45759316D01*
X81918750Y-45762037D01*
X81847841Y-45755970D01*
X81813747Y-45722265D01*
X81803074Y-45638387D01*
X81802333Y-45566162D01*
X81768758Y-45272711D01*
X81665009Y-45019843D01*
X81558155Y-44871553D01*
X81335184Y-44672114D01*
X81075828Y-44542835D01*
X80793898Y-44485693D01*
X80503205Y-44502665D01*
G37*
X80503205Y-44502665D02*
X80217558Y-44595727D01*
X80095604Y-44662174D01*
X79964638Y-44738235D01*
X79862237Y-44775240D01*
X79760313Y-44774174D01*
X79630782Y-44736022D01*
X79497373Y-44683150D01*
X79365564Y-44632517D01*
X79268142Y-44601748D01*
X79227961Y-44597261D01*
X79233881Y-44645087D01*
X79282764Y-44733038D01*
X79359366Y-44839756D01*
X79448441Y-44943883D01*
X79529931Y-45020322D01*
X79604587Y-45083518D01*
X79623144Y-45115888D01*
X79578793Y-45119109D01*
X79464726Y-45094858D01*
X79348969Y-45064890D01*
X79220233Y-45034437D01*
X79128618Y-45019886D01*
X79099593Y-45021963D01*
X79119386Y-45057431D01*
X79188116Y-45136201D01*
X79292811Y-45243819D01*
X79341041Y-45290926D01*
X79469361Y-45418329D01*
X79546925Y-45510031D01*
X79586261Y-45586576D01*
X79599901Y-45668506D01*
X79601000Y-45717140D01*
X79632273Y-46050739D01*
X79720551Y-46415720D01*
X79857521Y-46789597D01*
X80034873Y-47149879D01*
X80244295Y-47474079D01*
X80256204Y-47489922D01*
X80573878Y-47840486D01*
X80947727Y-48133551D01*
X81368521Y-48365377D01*
X81827027Y-48532226D01*
X82314013Y-48630359D01*
X82820248Y-48656038D01*
X83093500Y-48638962D01*
X83457557Y-48579966D01*
X83814927Y-48473792D01*
X84096498Y-48358762D01*
X84357449Y-48241654D01*
X83937141Y-48188930D01*
X83703141Y-48153727D01*
X83515067Y-48108174D01*
X83334184Y-48040789D01*
X83157000Y-47957693D01*
X82797167Y-47779181D01*
X82987667Y-47730103D01*
X83228226Y-47649402D01*
X83420120Y-47535505D01*
X83598540Y-47366921D01*
X83617820Y-47345293D01*
X83732477Y-47206190D01*
X83783145Y-47114649D01*
X83768372Y-47061157D01*
X83686707Y-47036199D01*
X83569750Y-47030362D01*
X83347500Y-47028391D01*
X83559167Y-46919912D01*
X83829905Y-46746731D01*
X84025644Y-46540438D01*
X84151880Y-46294171D01*
X84196561Y-46124293D01*
X84212871Y-46020481D01*
X84201637Y-45980419D01*
X84152567Y-45984968D01*
X84126012Y-45993093D01*
X84011572Y-46022280D01*
X83877841Y-46047617D01*
X83877088Y-46047732D01*
X83729342Y-46070303D01*
X83863206Y-45957663D01*
X84023155Y-45772077D01*
X84134867Y-45535721D01*
X84187182Y-45273940D01*
X84189602Y-45216323D01*
X84180512Y-45062731D01*
X84153709Y-44912747D01*
X84115478Y-44789300D01*
X84072104Y-44715317D01*
X84049169Y-44704000D01*
X84005535Y-44732000D01*
X83926374Y-44803393D01*
X83874388Y-44855556D01*
X83565058Y-45125316D01*
X83180099Y-45369391D01*
X83044604Y-45440394D01*
X82851739Y-45524716D01*
X82622346Y-45606157D01*
X82382282Y-45677328D01*
X82157406Y-45730844D01*
X81973576Y-45759316D01*
X81918750Y-45762037D01*
X81847841Y-45755970D01*
X81813747Y-45722265D01*
X81803074Y-45638387D01*
X81802333Y-45566162D01*
X81768758Y-45272711D01*
X81665009Y-45019843D01*
X81558155Y-44871553D01*
X81335184Y-44672114D01*
X81075828Y-44542835D01*
X80793898Y-44485693D01*
X80503205Y-44502665D01*
G36*
X76802298Y-44877367D02*
G01*
X76517220Y-44947346D01*
X76289210Y-45061288D01*
X76097397Y-45230081D01*
X76073013Y-45257809D01*
X75921469Y-45488073D01*
X75829303Y-45744332D01*
X75792606Y-46014544D01*
X75807469Y-46286667D01*
X75869980Y-46548659D01*
X75976231Y-46788479D01*
X76122311Y-46994086D01*
X76304312Y-47153436D01*
X76518322Y-47254490D01*
X76731427Y-47285637D01*
X76883429Y-47268870D01*
X76972917Y-47208115D01*
X77012951Y-47089656D01*
X77018667Y-46983969D01*
X77018667Y-46845372D01*
X77198583Y-47018575D01*
X77404084Y-47188618D01*
X77583851Y-47278161D01*
X77738180Y-47287269D01*
X77867369Y-47216008D01*
X77904594Y-47174791D01*
X77978369Y-47016684D01*
X77991074Y-46823817D01*
X77986267Y-46798293D01*
X77725461Y-46798293D01*
X77720016Y-46886049D01*
X77680317Y-46966397D01*
X77678840Y-46968661D01*
X77580415Y-47056131D01*
X77453270Y-47064891D01*
X77303395Y-46996671D01*
X77160379Y-46872060D01*
X77034352Y-46706493D01*
X76930823Y-46516288D01*
X76855302Y-46317765D01*
X76813298Y-46127244D01*
X76810322Y-45961043D01*
X76851883Y-45835482D01*
X76895857Y-45789563D01*
X77012841Y-45753803D01*
X77143942Y-45790388D01*
X77280692Y-45890064D01*
X77414620Y-46043578D01*
X77537258Y-46241677D01*
X77640136Y-46475106D01*
X77699066Y-46667139D01*
X77725461Y-46798293D01*
X77986267Y-46798293D01*
X77950844Y-46610208D01*
X77865812Y-46389876D01*
X77744114Y-46176840D01*
X77593883Y-45985117D01*
X77423253Y-45828725D01*
X77240359Y-45721684D01*
X77053335Y-45678011D01*
X77035882Y-45677667D01*
X76898789Y-45691182D01*
X76814937Y-45738537D01*
X76791936Y-45766468D01*
X76729737Y-45855268D01*
X76682213Y-45766468D01*
X76597438Y-45691673D01*
X76516811Y-45677667D01*
X76398933Y-45677667D01*
X76583562Y-46321689D01*
X76661487Y-46600599D01*
X76713940Y-46809289D01*
X76741935Y-46957954D01*
X76746485Y-47056792D01*
X76728603Y-47115999D01*
X76689302Y-47145773D01*
X76666068Y-47152067D01*
X76504640Y-47142113D01*
X76345750Y-47058395D01*
X76197670Y-46911621D01*
X76068673Y-46712499D01*
X75967030Y-46471739D01*
X75901013Y-46200047D01*
X75894080Y-46152698D01*
X75897158Y-45870470D01*
X75975146Y-45600438D01*
X76118552Y-45358578D01*
X76317881Y-45160864D01*
X76563643Y-45023272D01*
X76565681Y-45022491D01*
X76773556Y-44973496D01*
X77023727Y-44959497D01*
X77283015Y-44978709D01*
X77518242Y-45029346D01*
X77647292Y-45080698D01*
X77927114Y-45267824D01*
X78156848Y-45507206D01*
X78334229Y-45786485D01*
X78456992Y-46093304D01*
X78522873Y-46415307D01*
X78529607Y-46740136D01*
X78474928Y-47055434D01*
X78356571Y-47348843D01*
X78172273Y-47608006D01*
X78120302Y-47661486D01*
X77875178Y-47841798D01*
X77581423Y-47959499D01*
X77252500Y-48009534D01*
X77189411Y-48010968D01*
X77022084Y-48006856D01*
X76871004Y-47995275D01*
X76783702Y-47981705D01*
X76502835Y-47874735D01*
X76235364Y-47700648D01*
X76002905Y-47476595D01*
X75829725Y-47224755D01*
X75756588Y-47103030D01*
X75701941Y-47042085D01*
X75672995Y-47045983D01*
X75676962Y-47118785D01*
X75682267Y-47141684D01*
X75769038Y-47344791D01*
X75920394Y-47553152D01*
X76119415Y-47749097D01*
X76349182Y-47914955D01*
X76499002Y-47994629D01*
X76765960Y-48080594D01*
X77070746Y-48120687D01*
X77378890Y-48113097D01*
X77655922Y-48056014D01*
X77657522Y-48055485D01*
X77984141Y-47905197D01*
X78257145Y-47692394D01*
X78470619Y-47424515D01*
X78618643Y-47108999D01*
X78695302Y-46753285D01*
X78695588Y-46750526D01*
X78695464Y-46381760D01*
X78622820Y-46034958D01*
X78485641Y-45718017D01*
X78291910Y-45438836D01*
X78049611Y-45205316D01*
X77766728Y-45025353D01*
X77451245Y-44906848D01*
X77111145Y-44857700D01*
X76802298Y-44877367D01*
G37*
X76802298Y-44877367D02*
X76517220Y-44947346D01*
X76289210Y-45061288D01*
X76097397Y-45230081D01*
X76073013Y-45257809D01*
X75921469Y-45488073D01*
X75829303Y-45744332D01*
X75792606Y-46014544D01*
X75807469Y-46286667D01*
X75869980Y-46548659D01*
X75976231Y-46788479D01*
X76122311Y-46994086D01*
X76304312Y-47153436D01*
X76518322Y-47254490D01*
X76731427Y-47285637D01*
X76883429Y-47268870D01*
X76972917Y-47208115D01*
X77012951Y-47089656D01*
X77018667Y-46983969D01*
X77018667Y-46845372D01*
X77198583Y-47018575D01*
X77404084Y-47188618D01*
X77583851Y-47278161D01*
X77738180Y-47287269D01*
X77867369Y-47216008D01*
X77904594Y-47174791D01*
X77978369Y-47016684D01*
X77991074Y-46823817D01*
X77986267Y-46798293D01*
X77725461Y-46798293D01*
X77720016Y-46886049D01*
X77680317Y-46966397D01*
X77678840Y-46968661D01*
X77580415Y-47056131D01*
X77453270Y-47064891D01*
X77303395Y-46996671D01*
X77160379Y-46872060D01*
X77034352Y-46706493D01*
X76930823Y-46516288D01*
X76855302Y-46317765D01*
X76813298Y-46127244D01*
X76810322Y-45961043D01*
X76851883Y-45835482D01*
X76895857Y-45789563D01*
X77012841Y-45753803D01*
X77143942Y-45790388D01*
X77280692Y-45890064D01*
X77414620Y-46043578D01*
X77537258Y-46241677D01*
X77640136Y-46475106D01*
X77699066Y-46667139D01*
X77725461Y-46798293D01*
X77986267Y-46798293D01*
X77950844Y-46610208D01*
X77865812Y-46389876D01*
X77744114Y-46176840D01*
X77593883Y-45985117D01*
X77423253Y-45828725D01*
X77240359Y-45721684D01*
X77053335Y-45678011D01*
X77035882Y-45677667D01*
X76898789Y-45691182D01*
X76814937Y-45738537D01*
X76791936Y-45766468D01*
X76729737Y-45855268D01*
X76682213Y-45766468D01*
X76597438Y-45691673D01*
X76516811Y-45677667D01*
X76398933Y-45677667D01*
X76583562Y-46321689D01*
X76661487Y-46600599D01*
X76713940Y-46809289D01*
X76741935Y-46957954D01*
X76746485Y-47056792D01*
X76728603Y-47115999D01*
X76689302Y-47145773D01*
X76666068Y-47152067D01*
X76504640Y-47142113D01*
X76345750Y-47058395D01*
X76197670Y-46911621D01*
X76068673Y-46712499D01*
X75967030Y-46471739D01*
X75901013Y-46200047D01*
X75894080Y-46152698D01*
X75897158Y-45870470D01*
X75975146Y-45600438D01*
X76118552Y-45358578D01*
X76317881Y-45160864D01*
X76563643Y-45023272D01*
X76565681Y-45022491D01*
X76773556Y-44973496D01*
X77023727Y-44959497D01*
X77283015Y-44978709D01*
X77518242Y-45029346D01*
X77647292Y-45080698D01*
X77927114Y-45267824D01*
X78156848Y-45507206D01*
X78334229Y-45786485D01*
X78456992Y-46093304D01*
X78522873Y-46415307D01*
X78529607Y-46740136D01*
X78474928Y-47055434D01*
X78356571Y-47348843D01*
X78172273Y-47608006D01*
X78120302Y-47661486D01*
X77875178Y-47841798D01*
X77581423Y-47959499D01*
X77252500Y-48009534D01*
X77189411Y-48010968D01*
X77022084Y-48006856D01*
X76871004Y-47995275D01*
X76783702Y-47981705D01*
X76502835Y-47874735D01*
X76235364Y-47700648D01*
X76002905Y-47476595D01*
X75829725Y-47224755D01*
X75756588Y-47103030D01*
X75701941Y-47042085D01*
X75672995Y-47045983D01*
X75676962Y-47118785D01*
X75682267Y-47141684D01*
X75769038Y-47344791D01*
X75920394Y-47553152D01*
X76119415Y-47749097D01*
X76349182Y-47914955D01*
X76499002Y-47994629D01*
X76765960Y-48080594D01*
X77070746Y-48120687D01*
X77378890Y-48113097D01*
X77655922Y-48056014D01*
X77657522Y-48055485D01*
X77984141Y-47905197D01*
X78257145Y-47692394D01*
X78470619Y-47424515D01*
X78618643Y-47108999D01*
X78695302Y-46753285D01*
X78695588Y-46750526D01*
X78695464Y-46381760D01*
X78622820Y-46034958D01*
X78485641Y-45718017D01*
X78291910Y-45438836D01*
X78049611Y-45205316D01*
X77766728Y-45025353D01*
X77451245Y-44906848D01*
X77111145Y-44857700D01*
X76802298Y-44877367D01*
G36*
X61801451Y-45738875D02*
G01*
X61629666Y-45777787D01*
X61452290Y-45801395D01*
X61380568Y-45804667D01*
X61259974Y-45809968D01*
X61202309Y-45832083D01*
X61186165Y-45880326D01*
X61186000Y-45889334D01*
X61203393Y-45948619D01*
X61270506Y-45971790D01*
X61328285Y-45974000D01*
X61470571Y-45974000D01*
X61426610Y-46138699D01*
X61412996Y-46343198D01*
X61475538Y-46535014D01*
X61606164Y-46692859D01*
X61648847Y-46724744D01*
X61762129Y-46784251D01*
X61895170Y-46813584D01*
X62058604Y-46820667D01*
X62210444Y-46824730D01*
X62300629Y-46841221D01*
X62351963Y-46876594D01*
X62373766Y-46909878D01*
X62398406Y-46982504D01*
X62376613Y-47035567D01*
X62299259Y-47073059D01*
X62157216Y-47098974D01*
X61941357Y-47117304D01*
X61893013Y-47120159D01*
X61649020Y-47139686D01*
X61474787Y-47170092D01*
X61355567Y-47217071D01*
X61276612Y-47286318D01*
X61225467Y-47377920D01*
X61199916Y-47542560D01*
X61251599Y-47708902D01*
X61374039Y-47865957D01*
X61560760Y-48002738D01*
X61608996Y-48028600D01*
X61777736Y-48084454D01*
X61991596Y-48114961D01*
X62214332Y-48118196D01*
X62409703Y-48092236D01*
X62469386Y-48074259D01*
X62642202Y-47989841D01*
X62754625Y-47891890D01*
X62794667Y-47791015D01*
X62770127Y-47716933D01*
X62707127Y-47607232D01*
X62696759Y-47592553D01*
X62531049Y-47592553D01*
X62529371Y-47715398D01*
X62479873Y-47792087D01*
X62348686Y-47859474D01*
X62164750Y-47902139D01*
X61956947Y-47917833D01*
X61754159Y-47904309D01*
X61590100Y-47861369D01*
X61460559Y-47782925D01*
X61372946Y-47683239D01*
X61334503Y-47580157D01*
X61352474Y-47491523D01*
X61419156Y-47440234D01*
X61483026Y-47428702D01*
X61611383Y-47414564D01*
X61784169Y-47399799D01*
X61938710Y-47389004D01*
X62141766Y-47376909D01*
X62277387Y-47372812D01*
X62362613Y-47378969D01*
X62414481Y-47397636D01*
X62450029Y-47431068D01*
X62470827Y-47459462D01*
X62531049Y-47592553D01*
X62696759Y-47592553D01*
X62652617Y-47530057D01*
X62572947Y-47421830D01*
X62539630Y-47355333D01*
X62546656Y-47305765D01*
X62585195Y-47251803D01*
X62637627Y-47142564D01*
X62614718Y-47028557D01*
X62514047Y-46899517D01*
X62498464Y-46884292D01*
X62379244Y-46770072D01*
X62504903Y-46657786D01*
X62614532Y-46507609D01*
X62661279Y-46325567D01*
X62653431Y-46225998D01*
X62373766Y-46225998D01*
X62340880Y-46425730D01*
X62326054Y-46468583D01*
X62244146Y-46626196D01*
X62140576Y-46709462D01*
X62002664Y-46728225D01*
X61992497Y-46727470D01*
X61888463Y-46706665D01*
X61819436Y-46650431D01*
X61761174Y-46548918D01*
X61716202Y-46445209D01*
X61701549Y-46358730D01*
X61715273Y-46252937D01*
X61740007Y-46150604D01*
X61814673Y-45950958D01*
X61914793Y-45826240D01*
X62036920Y-45779379D01*
X62151479Y-45801275D01*
X62274074Y-45894688D01*
X62349834Y-46042623D01*
X62373766Y-46225998D01*
X62653431Y-46225998D01*
X62646274Y-46135208D01*
X62570647Y-45960082D01*
X62465910Y-45845709D01*
X62258734Y-45733565D01*
X62024925Y-45701544D01*
X61801451Y-45738875D01*
G37*
X61801451Y-45738875D02*
X61629666Y-45777787D01*
X61452290Y-45801395D01*
X61380568Y-45804667D01*
X61259974Y-45809968D01*
X61202309Y-45832083D01*
X61186165Y-45880326D01*
X61186000Y-45889334D01*
X61203393Y-45948619D01*
X61270506Y-45971790D01*
X61328285Y-45974000D01*
X61470571Y-45974000D01*
X61426610Y-46138699D01*
X61412996Y-46343198D01*
X61475538Y-46535014D01*
X61606164Y-46692859D01*
X61648847Y-46724744D01*
X61762129Y-46784251D01*
X61895170Y-46813584D01*
X62058604Y-46820667D01*
X62210444Y-46824730D01*
X62300629Y-46841221D01*
X62351963Y-46876594D01*
X62373766Y-46909878D01*
X62398406Y-46982504D01*
X62376613Y-47035567D01*
X62299259Y-47073059D01*
X62157216Y-47098974D01*
X61941357Y-47117304D01*
X61893013Y-47120159D01*
X61649020Y-47139686D01*
X61474787Y-47170092D01*
X61355567Y-47217071D01*
X61276612Y-47286318D01*
X61225467Y-47377920D01*
X61199916Y-47542560D01*
X61251599Y-47708902D01*
X61374039Y-47865957D01*
X61560760Y-48002738D01*
X61608996Y-48028600D01*
X61777736Y-48084454D01*
X61991596Y-48114961D01*
X62214332Y-48118196D01*
X62409703Y-48092236D01*
X62469386Y-48074259D01*
X62642202Y-47989841D01*
X62754625Y-47891890D01*
X62794667Y-47791015D01*
X62770127Y-47716933D01*
X62707127Y-47607232D01*
X62696759Y-47592553D01*
X62531049Y-47592553D01*
X62529371Y-47715398D01*
X62479873Y-47792087D01*
X62348686Y-47859474D01*
X62164750Y-47902139D01*
X61956947Y-47917833D01*
X61754159Y-47904309D01*
X61590100Y-47861369D01*
X61460559Y-47782925D01*
X61372946Y-47683239D01*
X61334503Y-47580157D01*
X61352474Y-47491523D01*
X61419156Y-47440234D01*
X61483026Y-47428702D01*
X61611383Y-47414564D01*
X61784169Y-47399799D01*
X61938710Y-47389004D01*
X62141766Y-47376909D01*
X62277387Y-47372812D01*
X62362613Y-47378969D01*
X62414481Y-47397636D01*
X62450029Y-47431068D01*
X62470827Y-47459462D01*
X62531049Y-47592553D01*
X62696759Y-47592553D01*
X62652617Y-47530057D01*
X62572947Y-47421830D01*
X62539630Y-47355333D01*
X62546656Y-47305765D01*
X62585195Y-47251803D01*
X62637627Y-47142564D01*
X62614718Y-47028557D01*
X62514047Y-46899517D01*
X62498464Y-46884292D01*
X62379244Y-46770072D01*
X62504903Y-46657786D01*
X62614532Y-46507609D01*
X62661279Y-46325567D01*
X62653431Y-46225998D01*
X62373766Y-46225998D01*
X62340880Y-46425730D01*
X62326054Y-46468583D01*
X62244146Y-46626196D01*
X62140576Y-46709462D01*
X62002664Y-46728225D01*
X61992497Y-46727470D01*
X61888463Y-46706665D01*
X61819436Y-46650431D01*
X61761174Y-46548918D01*
X61716202Y-46445209D01*
X61701549Y-46358730D01*
X61715273Y-46252937D01*
X61740007Y-46150604D01*
X61814673Y-45950958D01*
X61914793Y-45826240D01*
X62036920Y-45779379D01*
X62151479Y-45801275D01*
X62274074Y-45894688D01*
X62349834Y-46042623D01*
X62373766Y-46225998D01*
X62653431Y-46225998D01*
X62646274Y-46135208D01*
X62570647Y-45960082D01*
X62465910Y-45845709D01*
X62258734Y-45733565D01*
X62024925Y-45701544D01*
X61801451Y-45738875D01*
G36*
X67914158Y-45710592D02*
G01*
X67733260Y-45781468D01*
X67586130Y-45903985D01*
X67489154Y-46073029D01*
X67463531Y-46180943D01*
X67440186Y-46355000D01*
X67996093Y-46355000D01*
X68222626Y-46355862D01*
X68377827Y-46359698D01*
X68475020Y-46368387D01*
X68527532Y-46383808D01*
X68548690Y-46407839D01*
X68552000Y-46433350D01*
X68518983Y-46615897D01*
X68431133Y-46796958D01*
X68305251Y-46953880D01*
X68158138Y-47064006D01*
X68057568Y-47100052D01*
X67876575Y-47109315D01*
X67729944Y-47054169D01*
X67596663Y-46925683D01*
X67572297Y-46893846D01*
X67440039Y-46714834D01*
X67467204Y-46859465D01*
X67539780Y-47050510D01*
X67670021Y-47217194D01*
X67837898Y-47341892D01*
X68023381Y-47406978D01*
X68095557Y-47412404D01*
X68193979Y-47394496D01*
X68323130Y-47350841D01*
X68365688Y-47332670D01*
X68553577Y-47202962D01*
X68692183Y-47014371D01*
X68774914Y-46781126D01*
X68795181Y-46517457D01*
X68786690Y-46423537D01*
X68736980Y-46197268D01*
X68736459Y-46196250D01*
X68551842Y-46196250D01*
X68512725Y-46210184D01*
X68407762Y-46221006D01*
X68255760Y-46227160D01*
X68168147Y-46228000D01*
X67987287Y-46227173D01*
X67876091Y-46222011D01*
X67819560Y-46208495D01*
X67802691Y-46182604D01*
X67810484Y-46140318D01*
X67812722Y-46132750D01*
X67895737Y-45955722D01*
X68014039Y-45850179D01*
X68160743Y-45820405D01*
X68273876Y-45845876D01*
X68356847Y-45903160D01*
X68446905Y-46000455D01*
X68519921Y-46107345D01*
X68551764Y-46193415D01*
X68551842Y-46196250D01*
X68736459Y-46196250D01*
X68646397Y-46020475D01*
X68498685Y-45861629D01*
X68495613Y-45858924D01*
X68311720Y-45744207D01*
X68112440Y-45696467D01*
X67914158Y-45710592D01*
G37*
X67914158Y-45710592D02*
X67733260Y-45781468D01*
X67586130Y-45903985D01*
X67489154Y-46073029D01*
X67463531Y-46180943D01*
X67440186Y-46355000D01*
X67996093Y-46355000D01*
X68222626Y-46355862D01*
X68377827Y-46359698D01*
X68475020Y-46368387D01*
X68527532Y-46383808D01*
X68548690Y-46407839D01*
X68552000Y-46433350D01*
X68518983Y-46615897D01*
X68431133Y-46796958D01*
X68305251Y-46953880D01*
X68158138Y-47064006D01*
X68057568Y-47100052D01*
X67876575Y-47109315D01*
X67729944Y-47054169D01*
X67596663Y-46925683D01*
X67572297Y-46893846D01*
X67440039Y-46714834D01*
X67467204Y-46859465D01*
X67539780Y-47050510D01*
X67670021Y-47217194D01*
X67837898Y-47341892D01*
X68023381Y-47406978D01*
X68095557Y-47412404D01*
X68193979Y-47394496D01*
X68323130Y-47350841D01*
X68365688Y-47332670D01*
X68553577Y-47202962D01*
X68692183Y-47014371D01*
X68774914Y-46781126D01*
X68795181Y-46517457D01*
X68786690Y-46423537D01*
X68736980Y-46197268D01*
X68736459Y-46196250D01*
X68551842Y-46196250D01*
X68512725Y-46210184D01*
X68407762Y-46221006D01*
X68255760Y-46227160D01*
X68168147Y-46228000D01*
X67987287Y-46227173D01*
X67876091Y-46222011D01*
X67819560Y-46208495D01*
X67802691Y-46182604D01*
X67810484Y-46140318D01*
X67812722Y-46132750D01*
X67895737Y-45955722D01*
X68014039Y-45850179D01*
X68160743Y-45820405D01*
X68273876Y-45845876D01*
X68356847Y-45903160D01*
X68446905Y-46000455D01*
X68519921Y-46107345D01*
X68551764Y-46193415D01*
X68551842Y-46196250D01*
X68736459Y-46196250D01*
X68646397Y-46020475D01*
X68498685Y-45861629D01*
X68495613Y-45858924D01*
X68311720Y-45744207D01*
X68112440Y-45696467D01*
X67914158Y-45710592D01*
G36*
X64149333Y-46357783D02*
G01*
X64146686Y-46587054D01*
X64139400Y-46790455D01*
X64128458Y-46950941D01*
X64114842Y-47051469D01*
X64108117Y-47072580D01*
X64019592Y-47160904D01*
X63893687Y-47183397D01*
X63744508Y-47141438D01*
X63586163Y-47036409D01*
X63567250Y-47019664D01*
X63526398Y-46976476D01*
X63499227Y-46924175D01*
X63482977Y-46845817D01*
X63474884Y-46724459D01*
X63472188Y-46543159D01*
X63472000Y-46435311D01*
X63476450Y-46185371D01*
X63492077Y-46008596D01*
X63522304Y-45893844D01*
X63570548Y-45829969D01*
X63640231Y-45805827D01*
X63665524Y-45804667D01*
X63719874Y-45779707D01*
X63726000Y-45760313D01*
X63686053Y-45736210D01*
X63573775Y-45726379D01*
X63461417Y-45728563D01*
X63196833Y-45741167D01*
X63175667Y-46439321D01*
X63154500Y-47137475D01*
X63027500Y-47162723D01*
X62900500Y-47187972D01*
X63091000Y-47273356D01*
X63264741Y-47349758D01*
X63375531Y-47389908D01*
X63437530Y-47392512D01*
X63464899Y-47356276D01*
X63471799Y-47279907D01*
X63472000Y-47238549D01*
X63472000Y-47058058D01*
X63609583Y-47190766D01*
X63796973Y-47337868D01*
X63970577Y-47402549D01*
X64133754Y-47385301D01*
X64286249Y-47289866D01*
X64424500Y-47166398D01*
X64439070Y-46522684D01*
X64453640Y-45878969D01*
X64576653Y-45832537D01*
X64674409Y-45785882D01*
X64688673Y-45751468D01*
X64619761Y-45729529D01*
X64467994Y-45720301D01*
X64424500Y-45720000D01*
X64149333Y-45720000D01*
X64149333Y-46357783D01*
G37*
X64149333Y-46357783D02*
X64146686Y-46587054D01*
X64139400Y-46790455D01*
X64128458Y-46950941D01*
X64114842Y-47051469D01*
X64108117Y-47072580D01*
X64019592Y-47160904D01*
X63893687Y-47183397D01*
X63744508Y-47141438D01*
X63586163Y-47036409D01*
X63567250Y-47019664D01*
X63526398Y-46976476D01*
X63499227Y-46924175D01*
X63482977Y-46845817D01*
X63474884Y-46724459D01*
X63472188Y-46543159D01*
X63472000Y-46435311D01*
X63476450Y-46185371D01*
X63492077Y-46008596D01*
X63522304Y-45893844D01*
X63570548Y-45829969D01*
X63640231Y-45805827D01*
X63665524Y-45804667D01*
X63719874Y-45779707D01*
X63726000Y-45760313D01*
X63686053Y-45736210D01*
X63573775Y-45726379D01*
X63461417Y-45728563D01*
X63196833Y-45741167D01*
X63175667Y-46439321D01*
X63154500Y-47137475D01*
X63027500Y-47162723D01*
X62900500Y-47187972D01*
X63091000Y-47273356D01*
X63264741Y-47349758D01*
X63375531Y-47389908D01*
X63437530Y-47392512D01*
X63464899Y-47356276D01*
X63471799Y-47279907D01*
X63472000Y-47238549D01*
X63472000Y-47058058D01*
X63609583Y-47190766D01*
X63796973Y-47337868D01*
X63970577Y-47402549D01*
X64133754Y-47385301D01*
X64286249Y-47289866D01*
X64424500Y-47166398D01*
X64439070Y-46522684D01*
X64453640Y-45878969D01*
X64576653Y-45832537D01*
X64674409Y-45785882D01*
X64688673Y-45751468D01*
X64619761Y-45729529D01*
X64467994Y-45720301D01*
X64424500Y-45720000D01*
X64149333Y-45720000D01*
X64149333Y-46357783D01*
G36*
X60543397Y-46380002D02*
G01*
X60537734Y-46630210D01*
X60531205Y-46809766D01*
X60521614Y-46932676D01*
X60506759Y-47012946D01*
X60484444Y-47064579D01*
X60452468Y-47101582D01*
X60426677Y-47123441D01*
X60305859Y-47181023D01*
X60168016Y-47165690D01*
X60002856Y-47076151D01*
X59992666Y-47068969D01*
X59873667Y-46984235D01*
X59873667Y-45881979D01*
X60000667Y-45834042D01*
X60100605Y-45786727D01*
X60116963Y-45751913D01*
X60049919Y-45729737D01*
X59899651Y-45720340D01*
X59853524Y-45720000D01*
X59579381Y-45720000D01*
X59556167Y-47137414D01*
X59429167Y-47162990D01*
X59364175Y-47178469D01*
X59348638Y-47196439D01*
X59390930Y-47226722D01*
X59499425Y-47279139D01*
X59546791Y-47300950D01*
X59680402Y-47359543D01*
X59784719Y-47400200D01*
X59832541Y-47413334D01*
X59857792Y-47375658D01*
X59872300Y-47281041D01*
X59873667Y-47235696D01*
X59873667Y-47058058D01*
X60011250Y-47188283D01*
X60178606Y-47326859D01*
X60323415Y-47396907D01*
X60463712Y-47404206D01*
X60580282Y-47370594D01*
X60666973Y-47323279D01*
X60731288Y-47252900D01*
X60776961Y-47147022D01*
X60807725Y-46993212D01*
X60827315Y-46779037D01*
X60838948Y-46509242D01*
X60848441Y-46289508D01*
X60861907Y-46098226D01*
X60877768Y-45952292D01*
X60894447Y-45868599D01*
X60899809Y-45857584D01*
X60975687Y-45812006D01*
X61021850Y-45804667D01*
X61087775Y-45785910D01*
X61101333Y-45762334D01*
X61062497Y-45740153D01*
X60959804Y-45724987D01*
X60829147Y-45720000D01*
X60556960Y-45720000D01*
X60543397Y-46380002D01*
G37*
X60543397Y-46380002D02*
X60537734Y-46630210D01*
X60531205Y-46809766D01*
X60521614Y-46932676D01*
X60506759Y-47012946D01*
X60484444Y-47064579D01*
X60452468Y-47101582D01*
X60426677Y-47123441D01*
X60305859Y-47181023D01*
X60168016Y-47165690D01*
X60002856Y-47076151D01*
X59992666Y-47068969D01*
X59873667Y-46984235D01*
X59873667Y-45881979D01*
X60000667Y-45834042D01*
X60100605Y-45786727D01*
X60116963Y-45751913D01*
X60049919Y-45729737D01*
X59899651Y-45720340D01*
X59853524Y-45720000D01*
X59579381Y-45720000D01*
X59556167Y-47137414D01*
X59429167Y-47162990D01*
X59364175Y-47178469D01*
X59348638Y-47196439D01*
X59390930Y-47226722D01*
X59499425Y-47279139D01*
X59546791Y-47300950D01*
X59680402Y-47359543D01*
X59784719Y-47400200D01*
X59832541Y-47413334D01*
X59857792Y-47375658D01*
X59872300Y-47281041D01*
X59873667Y-47235696D01*
X59873667Y-47058058D01*
X60011250Y-47188283D01*
X60178606Y-47326859D01*
X60323415Y-47396907D01*
X60463712Y-47404206D01*
X60580282Y-47370594D01*
X60666973Y-47323279D01*
X60731288Y-47252900D01*
X60776961Y-47147022D01*
X60807725Y-46993212D01*
X60827315Y-46779037D01*
X60838948Y-46509242D01*
X60848441Y-46289508D01*
X60861907Y-46098226D01*
X60877768Y-45952292D01*
X60894447Y-45868599D01*
X60899809Y-45857584D01*
X60975687Y-45812006D01*
X61021850Y-45804667D01*
X61087775Y-45785910D01*
X61101333Y-45762334D01*
X61062497Y-45740153D01*
X60959804Y-45724987D01*
X60829147Y-45720000D01*
X60556960Y-45720000D01*
X60543397Y-46380002D01*
G36*
X58171063Y-45690551D02*
G01*
X58149137Y-45774512D01*
X58138439Y-45913427D01*
X58138000Y-45952834D01*
X58145270Y-46109699D01*
X58164604Y-46202767D01*
X58192284Y-46226058D01*
X58224595Y-46173592D01*
X58240966Y-46118521D01*
X58312279Y-45972908D01*
X58431038Y-45861611D01*
X58571445Y-45806904D01*
X58604526Y-45804667D01*
X58772126Y-45828994D01*
X58870647Y-45901826D01*
X58900000Y-46011262D01*
X58889028Y-46093057D01*
X58848006Y-46165999D01*
X58764774Y-46241491D01*
X58627171Y-46330934D01*
X58455656Y-46427939D01*
X58240115Y-46563105D01*
X58102166Y-46693866D01*
X58035799Y-46829167D01*
X58034997Y-46977954D01*
X58048646Y-47033381D01*
X58139329Y-47198996D01*
X58288501Y-47320478D01*
X58478241Y-47390164D01*
X58690629Y-47400394D01*
X58836500Y-47370226D01*
X58950630Y-47348464D01*
X59037583Y-47353357D01*
X59077434Y-47356513D01*
X59099849Y-47323305D01*
X59109649Y-47237160D01*
X59111667Y-47098686D01*
X59108804Y-46957726D01*
X59101307Y-46857689D01*
X59091068Y-46820667D01*
X59062996Y-46855504D01*
X59020257Y-46941358D01*
X59011532Y-46961726D01*
X58901975Y-47132037D01*
X58748172Y-47244617D01*
X58568248Y-47286313D01*
X58564091Y-47286334D01*
X58417944Y-47266078D01*
X58336378Y-47198097D01*
X58307774Y-47071568D01*
X58307333Y-47047188D01*
X58337352Y-46928597D01*
X58432261Y-46815287D01*
X58599344Y-46700086D01*
X58730667Y-46630332D01*
X58931504Y-46507860D01*
X59054950Y-46374006D01*
X59108242Y-46219877D01*
X59111667Y-46162289D01*
X59076487Y-45967693D01*
X58977706Y-45821417D01*
X58825459Y-45730174D01*
X58629883Y-45700678D01*
X58451877Y-45725329D01*
X58321591Y-45752406D01*
X58253292Y-45749624D01*
X58232087Y-45727095D01*
X58200088Y-45671444D01*
X58171063Y-45690551D01*
G37*
X58171063Y-45690551D02*
X58149137Y-45774512D01*
X58138439Y-45913427D01*
X58138000Y-45952834D01*
X58145270Y-46109699D01*
X58164604Y-46202767D01*
X58192284Y-46226058D01*
X58224595Y-46173592D01*
X58240966Y-46118521D01*
X58312279Y-45972908D01*
X58431038Y-45861611D01*
X58571445Y-45806904D01*
X58604526Y-45804667D01*
X58772126Y-45828994D01*
X58870647Y-45901826D01*
X58900000Y-46011262D01*
X58889028Y-46093057D01*
X58848006Y-46165999D01*
X58764774Y-46241491D01*
X58627171Y-46330934D01*
X58455656Y-46427939D01*
X58240115Y-46563105D01*
X58102166Y-46693866D01*
X58035799Y-46829167D01*
X58034997Y-46977954D01*
X58048646Y-47033381D01*
X58139329Y-47198996D01*
X58288501Y-47320478D01*
X58478241Y-47390164D01*
X58690629Y-47400394D01*
X58836500Y-47370226D01*
X58950630Y-47348464D01*
X59037583Y-47353357D01*
X59077434Y-47356513D01*
X59099849Y-47323305D01*
X59109649Y-47237160D01*
X59111667Y-47098686D01*
X59108804Y-46957726D01*
X59101307Y-46857689D01*
X59091068Y-46820667D01*
X59062996Y-46855504D01*
X59020257Y-46941358D01*
X59011532Y-46961726D01*
X58901975Y-47132037D01*
X58748172Y-47244617D01*
X58568248Y-47286313D01*
X58564091Y-47286334D01*
X58417944Y-47266078D01*
X58336378Y-47198097D01*
X58307774Y-47071568D01*
X58307333Y-47047188D01*
X58337352Y-46928597D01*
X58432261Y-46815287D01*
X58599344Y-46700086D01*
X58730667Y-46630332D01*
X58931504Y-46507860D01*
X59054950Y-46374006D01*
X59108242Y-46219877D01*
X59111667Y-46162289D01*
X59076487Y-45967693D01*
X58977706Y-45821417D01*
X58825459Y-45730174D01*
X58629883Y-45700678D01*
X58451877Y-45725329D01*
X58321591Y-45752406D01*
X58253292Y-45749624D01*
X58232087Y-45727095D01*
X58200088Y-45671444D01*
X58171063Y-45690551D01*
G36*
X72445912Y-44976135D02*
G01*
X72404338Y-44998332D01*
X72404333Y-44998621D01*
X72440907Y-45030367D01*
X72522867Y-45042667D01*
X72589370Y-45045274D01*
X72640925Y-45059467D01*
X72679434Y-45094799D01*
X72706797Y-45160825D01*
X72724917Y-45267100D01*
X72735694Y-45423179D01*
X72741031Y-45638616D01*
X72742829Y-45922966D01*
X72743000Y-46148776D01*
X72742277Y-46488453D01*
X72738809Y-46752868D01*
X72730647Y-46951422D01*
X72715841Y-47093516D01*
X72692443Y-47188552D01*
X72658503Y-47245929D01*
X72612072Y-47275050D01*
X72551200Y-47285315D01*
X72507143Y-47286334D01*
X72429044Y-47301212D01*
X72404333Y-47328667D01*
X72445005Y-47347249D01*
X72560567Y-47360998D01*
X72741336Y-47369106D01*
X72912333Y-47371000D01*
X73135325Y-47367611D01*
X73300310Y-47357981D01*
X73397605Y-47342917D01*
X73420333Y-47328667D01*
X73384135Y-47296737D01*
X73315476Y-47286334D01*
X73241585Y-47278875D01*
X73184900Y-47250160D01*
X73143405Y-47190682D01*
X73115085Y-47090934D01*
X73097923Y-46941407D01*
X73089904Y-46732596D01*
X73089013Y-46454992D01*
X73091354Y-46229174D01*
X73102833Y-45371554D01*
X73547333Y-46342313D01*
X73670292Y-46607811D01*
X73783554Y-46846629D01*
X73881926Y-47048275D01*
X73960216Y-47202258D01*
X74013230Y-47298084D01*
X74034167Y-47325898D01*
X74062770Y-47292667D01*
X74120790Y-47192467D01*
X74202969Y-47035566D01*
X74304048Y-46832233D01*
X74418769Y-46592739D01*
X74510972Y-46394751D01*
X74631915Y-46132925D01*
X74741581Y-45897314D01*
X74834915Y-45698630D01*
X74906864Y-45547586D01*
X74952373Y-45454893D01*
X74966055Y-45430167D01*
X74972218Y-45464051D01*
X74977646Y-45570502D01*
X74982045Y-45737424D01*
X74985122Y-45952717D01*
X74986586Y-46204285D01*
X74986667Y-46281421D01*
X74985617Y-46598672D01*
X74980908Y-46841235D01*
X74970199Y-47019076D01*
X74951153Y-47142163D01*
X74921429Y-47220463D01*
X74878688Y-47263945D01*
X74820591Y-47282574D01*
X74750810Y-47286334D01*
X74672711Y-47301212D01*
X74648000Y-47328667D01*
X74688248Y-47348333D01*
X74800859Y-47362551D01*
X74973635Y-47370102D01*
X75071333Y-47371000D01*
X75267993Y-47366975D01*
X75410175Y-47355714D01*
X75485681Y-47338437D01*
X75494667Y-47328667D01*
X75458533Y-47296508D01*
X75391857Y-47286334D01*
X75320888Y-47282721D01*
X75265775Y-47265564D01*
X75224521Y-47225386D01*
X75195125Y-47152707D01*
X75175589Y-47038050D01*
X75163914Y-46871936D01*
X75158101Y-46644888D01*
X75156151Y-46347427D01*
X75156000Y-46168037D01*
X75156479Y-45851959D01*
X75158445Y-45609736D01*
X75162691Y-45430561D01*
X75170009Y-45303626D01*
X75181193Y-45218122D01*
X75197035Y-45163243D01*
X75218328Y-45128179D01*
X75233417Y-45112728D01*
X75331581Y-45056925D01*
X75402750Y-45042667D01*
X75475374Y-45025541D01*
X75494667Y-44998621D01*
X75453932Y-44976300D01*
X75336742Y-44965464D01*
X75150615Y-44966804D01*
X75148702Y-44966871D01*
X74802737Y-44979167D01*
X74378167Y-45898437D01*
X74259007Y-46154070D01*
X74151209Y-46380813D01*
X74059833Y-46568392D01*
X73989937Y-46706533D01*
X73946580Y-46784963D01*
X73934791Y-46798902D01*
X73912664Y-46756619D01*
X73860776Y-46648176D01*
X73784245Y-46484562D01*
X73688190Y-46276765D01*
X73577730Y-46035774D01*
X73506584Y-45879632D01*
X73097182Y-44979167D01*
X72750758Y-44966871D01*
X72563885Y-44965419D01*
X72445912Y-44976135D01*
G37*
X72445912Y-44976135D02*
X72404338Y-44998332D01*
X72404333Y-44998621D01*
X72440907Y-45030367D01*
X72522867Y-45042667D01*
X72589370Y-45045274D01*
X72640925Y-45059467D01*
X72679434Y-45094799D01*
X72706797Y-45160825D01*
X72724917Y-45267100D01*
X72735694Y-45423179D01*
X72741031Y-45638616D01*
X72742829Y-45922966D01*
X72743000Y-46148776D01*
X72742277Y-46488453D01*
X72738809Y-46752868D01*
X72730647Y-46951422D01*
X72715841Y-47093516D01*
X72692443Y-47188552D01*
X72658503Y-47245929D01*
X72612072Y-47275050D01*
X72551200Y-47285315D01*
X72507143Y-47286334D01*
X72429044Y-47301212D01*
X72404333Y-47328667D01*
X72445005Y-47347249D01*
X72560567Y-47360998D01*
X72741336Y-47369106D01*
X72912333Y-47371000D01*
X73135325Y-47367611D01*
X73300310Y-47357981D01*
X73397605Y-47342917D01*
X73420333Y-47328667D01*
X73384135Y-47296737D01*
X73315476Y-47286334D01*
X73241585Y-47278875D01*
X73184900Y-47250160D01*
X73143405Y-47190682D01*
X73115085Y-47090934D01*
X73097923Y-46941407D01*
X73089904Y-46732596D01*
X73089013Y-46454992D01*
X73091354Y-46229174D01*
X73102833Y-45371554D01*
X73547333Y-46342313D01*
X73670292Y-46607811D01*
X73783554Y-46846629D01*
X73881926Y-47048275D01*
X73960216Y-47202258D01*
X74013230Y-47298084D01*
X74034167Y-47325898D01*
X74062770Y-47292667D01*
X74120790Y-47192467D01*
X74202969Y-47035566D01*
X74304048Y-46832233D01*
X74418769Y-46592739D01*
X74510972Y-46394751D01*
X74631915Y-46132925D01*
X74741581Y-45897314D01*
X74834915Y-45698630D01*
X74906864Y-45547586D01*
X74952373Y-45454893D01*
X74966055Y-45430167D01*
X74972218Y-45464051D01*
X74977646Y-45570502D01*
X74982045Y-45737424D01*
X74985122Y-45952717D01*
X74986586Y-46204285D01*
X74986667Y-46281421D01*
X74985617Y-46598672D01*
X74980908Y-46841235D01*
X74970199Y-47019076D01*
X74951153Y-47142163D01*
X74921429Y-47220463D01*
X74878688Y-47263945D01*
X74820591Y-47282574D01*
X74750810Y-47286334D01*
X74672711Y-47301212D01*
X74648000Y-47328667D01*
X74688248Y-47348333D01*
X74800859Y-47362551D01*
X74973635Y-47370102D01*
X75071333Y-47371000D01*
X75267993Y-47366975D01*
X75410175Y-47355714D01*
X75485681Y-47338437D01*
X75494667Y-47328667D01*
X75458533Y-47296508D01*
X75391857Y-47286334D01*
X75320888Y-47282721D01*
X75265775Y-47265564D01*
X75224521Y-47225386D01*
X75195125Y-47152707D01*
X75175589Y-47038050D01*
X75163914Y-46871936D01*
X75158101Y-46644888D01*
X75156151Y-46347427D01*
X75156000Y-46168037D01*
X75156479Y-45851959D01*
X75158445Y-45609736D01*
X75162691Y-45430561D01*
X75170009Y-45303626D01*
X75181193Y-45218122D01*
X75197035Y-45163243D01*
X75218328Y-45128179D01*
X75233417Y-45112728D01*
X75331581Y-45056925D01*
X75402750Y-45042667D01*
X75475374Y-45025541D01*
X75494667Y-44998621D01*
X75453932Y-44976300D01*
X75336742Y-44965464D01*
X75150615Y-44966804D01*
X75148702Y-44966871D01*
X74802737Y-44979167D01*
X74378167Y-45898437D01*
X74259007Y-46154070D01*
X74151209Y-46380813D01*
X74059833Y-46568392D01*
X73989937Y-46706533D01*
X73946580Y-46784963D01*
X73934791Y-46798902D01*
X73912664Y-46756619D01*
X73860776Y-46648176D01*
X73784245Y-46484562D01*
X73688190Y-46276765D01*
X73577730Y-46035774D01*
X73506584Y-45879632D01*
X73097182Y-44979167D01*
X72750758Y-44966871D01*
X72563885Y-44965419D01*
X72445912Y-44976135D01*
G36*
X71293386Y-45739129D02*
G01*
X71142502Y-45819857D01*
X71109306Y-45851191D01*
X71076702Y-45897022D01*
X71053247Y-45960735D01*
X71036938Y-46057019D01*
X71025768Y-46200561D01*
X71017734Y-46406051D01*
X71013947Y-46549870D01*
X71005654Y-46783083D01*
X70993551Y-46969899D01*
X70978719Y-47098490D01*
X70962241Y-47157023D01*
X70958248Y-47159334D01*
X70890393Y-47140929D01*
X70835217Y-47115511D01*
X70768586Y-47092211D01*
X70759574Y-47119228D01*
X70805619Y-47187327D01*
X70875489Y-47260526D01*
X71011894Y-47354428D01*
X71136752Y-47364535D01*
X71248993Y-47291069D01*
X71332125Y-47166154D01*
X71367729Y-47178955D01*
X71449743Y-47227754D01*
X71500702Y-47261404D01*
X71687586Y-47351429D01*
X71867924Y-47369993D01*
X72026230Y-47316945D01*
X72088758Y-47267091D01*
X72163698Y-47162066D01*
X72191446Y-47027473D01*
X72192667Y-46978678D01*
X72184808Y-46915271D01*
X71895708Y-46915271D01*
X71862962Y-47045534D01*
X71782131Y-47142587D01*
X71727000Y-47169552D01*
X71616719Y-47166945D01*
X71468859Y-47110621D01*
X71391154Y-47066604D01*
X71344820Y-47026270D01*
X71318238Y-46963390D01*
X71306247Y-46856615D01*
X71303667Y-46704650D01*
X71306554Y-46555596D01*
X71314172Y-46446386D01*
X71324958Y-46398049D01*
X71326520Y-46397334D01*
X71390970Y-46418396D01*
X71498494Y-46471409D01*
X71621886Y-46541115D01*
X71733938Y-46612255D01*
X71801083Y-46663490D01*
X71876404Y-46778892D01*
X71895708Y-46915271D01*
X72184808Y-46915271D01*
X72176364Y-46847147D01*
X72120339Y-46734911D01*
X72013918Y-46631377D01*
X71846424Y-46525951D01*
X71626622Y-46416984D01*
X71293749Y-46263187D01*
X71318065Y-46113343D01*
X71374740Y-45944677D01*
X71475415Y-45838945D01*
X71603537Y-45804667D01*
X71742137Y-45840331D01*
X71829675Y-45938382D01*
X71854000Y-46056507D01*
X71879352Y-46174531D01*
X71943298Y-46246750D01*
X72027676Y-46256664D01*
X72058632Y-46242389D01*
X72127891Y-46160001D01*
X72131228Y-46054988D01*
X72078686Y-45942105D01*
X71980313Y-45836108D01*
X71846152Y-45751750D01*
X71692614Y-45704759D01*
X71486209Y-45698391D01*
X71293386Y-45739129D01*
G37*
X71293386Y-45739129D02*
X71142502Y-45819857D01*
X71109306Y-45851191D01*
X71076702Y-45897022D01*
X71053247Y-45960735D01*
X71036938Y-46057019D01*
X71025768Y-46200561D01*
X71017734Y-46406051D01*
X71013947Y-46549870D01*
X71005654Y-46783083D01*
X70993551Y-46969899D01*
X70978719Y-47098490D01*
X70962241Y-47157023D01*
X70958248Y-47159334D01*
X70890393Y-47140929D01*
X70835217Y-47115511D01*
X70768586Y-47092211D01*
X70759574Y-47119228D01*
X70805619Y-47187327D01*
X70875489Y-47260526D01*
X71011894Y-47354428D01*
X71136752Y-47364535D01*
X71248993Y-47291069D01*
X71332125Y-47166154D01*
X71367729Y-47178955D01*
X71449743Y-47227754D01*
X71500702Y-47261404D01*
X71687586Y-47351429D01*
X71867924Y-47369993D01*
X72026230Y-47316945D01*
X72088758Y-47267091D01*
X72163698Y-47162066D01*
X72191446Y-47027473D01*
X72192667Y-46978678D01*
X72184808Y-46915271D01*
X71895708Y-46915271D01*
X71862962Y-47045534D01*
X71782131Y-47142587D01*
X71727000Y-47169552D01*
X71616719Y-47166945D01*
X71468859Y-47110621D01*
X71391154Y-47066604D01*
X71344820Y-47026270D01*
X71318238Y-46963390D01*
X71306247Y-46856615D01*
X71303667Y-46704650D01*
X71306554Y-46555596D01*
X71314172Y-46446386D01*
X71324958Y-46398049D01*
X71326520Y-46397334D01*
X71390970Y-46418396D01*
X71498494Y-46471409D01*
X71621886Y-46541115D01*
X71733938Y-46612255D01*
X71801083Y-46663490D01*
X71876404Y-46778892D01*
X71895708Y-46915271D01*
X72184808Y-46915271D01*
X72176364Y-46847147D01*
X72120339Y-46734911D01*
X72013918Y-46631377D01*
X71846424Y-46525951D01*
X71626622Y-46416984D01*
X71293749Y-46263187D01*
X71318065Y-46113343D01*
X71374740Y-45944677D01*
X71475415Y-45838945D01*
X71603537Y-45804667D01*
X71742137Y-45840331D01*
X71829675Y-45938382D01*
X71854000Y-46056507D01*
X71879352Y-46174531D01*
X71943298Y-46246750D01*
X72027676Y-46256664D01*
X72058632Y-46242389D01*
X72127891Y-46160001D01*
X72131228Y-46054988D01*
X72078686Y-45942105D01*
X71980313Y-45836108D01*
X71846152Y-45751750D01*
X71692614Y-45704759D01*
X71486209Y-45698391D01*
X71293386Y-45739129D01*
G36*
X70172325Y-44871172D02*
G01*
X70166647Y-44983048D01*
X70160967Y-45153670D01*
X70155712Y-45370081D01*
X70151307Y-45619322D01*
X70150998Y-45640739D01*
X70139500Y-46450478D01*
X69843167Y-46170400D01*
X69707419Y-46039965D01*
X69626093Y-45953465D01*
X69590770Y-45898092D01*
X69593033Y-45861039D01*
X69620917Y-45832244D01*
X69679871Y-45775296D01*
X69695000Y-45747083D01*
X69656012Y-45734506D01*
X69552405Y-45725035D01*
X69404210Y-45720272D01*
X69356333Y-45720000D01*
X69180752Y-45725842D01*
X69065977Y-45741520D01*
X69018023Y-45764264D01*
X69042906Y-45791304D01*
X69141649Y-45818880D01*
X69228468Y-45857123D01*
X69355543Y-45938375D01*
X69501056Y-46048070D01*
X69565729Y-46101963D01*
X69865827Y-46360249D01*
X69663997Y-46617436D01*
X69465575Y-46864583D01*
X69307925Y-47047432D01*
X69185014Y-47172241D01*
X69090812Y-47245267D01*
X69035127Y-47269880D01*
X68945673Y-47301514D01*
X68935438Y-47329411D01*
X68998992Y-47351600D01*
X69130903Y-47366115D01*
X69314000Y-47371000D01*
X69481787Y-47368215D01*
X69611872Y-47360755D01*
X69685368Y-47349963D01*
X69695000Y-47343917D01*
X69665165Y-47299598D01*
X69627999Y-47267842D01*
X69603474Y-47237798D01*
X69607344Y-47192252D01*
X69646158Y-47117927D01*
X69726463Y-47001544D01*
X69823774Y-46870830D01*
X69937059Y-46723208D01*
X70033586Y-46601876D01*
X70100828Y-46522331D01*
X70123608Y-46499907D01*
X70143009Y-46524067D01*
X70154993Y-46610387D01*
X70159700Y-46736701D01*
X70157268Y-46880840D01*
X70147835Y-47020635D01*
X70131540Y-47133919D01*
X70119381Y-47177744D01*
X70055118Y-47265797D01*
X69992381Y-47286334D01*
X69923024Y-47303867D01*
X69906667Y-47328667D01*
X69946780Y-47348635D01*
X70058451Y-47362977D01*
X70228678Y-47370326D01*
X70308833Y-47371000D01*
X70498530Y-47366778D01*
X70634783Y-47355023D01*
X70704592Y-47337104D01*
X70711000Y-47328667D01*
X70675782Y-47293555D01*
X70631517Y-47286334D01*
X70578743Y-47281539D01*
X70537781Y-47260952D01*
X70507296Y-47215269D01*
X70485954Y-47135183D01*
X70472419Y-47011390D01*
X70465356Y-46834584D01*
X70463429Y-46595462D01*
X70465305Y-46284717D01*
X70466819Y-46138469D01*
X70478167Y-45106956D01*
X70605167Y-45081573D01*
X70732167Y-45056189D01*
X70626333Y-45012126D01*
X70516845Y-44966471D01*
X70382230Y-44910253D01*
X70356580Y-44899532D01*
X70251897Y-44857127D01*
X70186181Y-44833063D01*
X70177578Y-44831000D01*
X70172325Y-44871172D01*
G37*
X70172325Y-44871172D02*
X70166647Y-44983048D01*
X70160967Y-45153670D01*
X70155712Y-45370081D01*
X70151307Y-45619322D01*
X70150998Y-45640739D01*
X70139500Y-46450478D01*
X69843167Y-46170400D01*
X69707419Y-46039965D01*
X69626093Y-45953465D01*
X69590770Y-45898092D01*
X69593033Y-45861039D01*
X69620917Y-45832244D01*
X69679871Y-45775296D01*
X69695000Y-45747083D01*
X69656012Y-45734506D01*
X69552405Y-45725035D01*
X69404210Y-45720272D01*
X69356333Y-45720000D01*
X69180752Y-45725842D01*
X69065977Y-45741520D01*
X69018023Y-45764264D01*
X69042906Y-45791304D01*
X69141649Y-45818880D01*
X69228468Y-45857123D01*
X69355543Y-45938375D01*
X69501056Y-46048070D01*
X69565729Y-46101963D01*
X69865827Y-46360249D01*
X69663997Y-46617436D01*
X69465575Y-46864583D01*
X69307925Y-47047432D01*
X69185014Y-47172241D01*
X69090812Y-47245267D01*
X69035127Y-47269880D01*
X68945673Y-47301514D01*
X68935438Y-47329411D01*
X68998992Y-47351600D01*
X69130903Y-47366115D01*
X69314000Y-47371000D01*
X69481787Y-47368215D01*
X69611872Y-47360755D01*
X69685368Y-47349963D01*
X69695000Y-47343917D01*
X69665165Y-47299598D01*
X69627999Y-47267842D01*
X69603474Y-47237798D01*
X69607344Y-47192252D01*
X69646158Y-47117927D01*
X69726463Y-47001544D01*
X69823774Y-46870830D01*
X69937059Y-46723208D01*
X70033586Y-46601876D01*
X70100828Y-46522331D01*
X70123608Y-46499907D01*
X70143009Y-46524067D01*
X70154993Y-46610387D01*
X70159700Y-46736701D01*
X70157268Y-46880840D01*
X70147835Y-47020635D01*
X70131540Y-47133919D01*
X70119381Y-47177744D01*
X70055118Y-47265797D01*
X69992381Y-47286334D01*
X69923024Y-47303867D01*
X69906667Y-47328667D01*
X69946780Y-47348635D01*
X70058451Y-47362977D01*
X70228678Y-47370326D01*
X70308833Y-47371000D01*
X70498530Y-47366778D01*
X70634783Y-47355023D01*
X70704592Y-47337104D01*
X70711000Y-47328667D01*
X70675782Y-47293555D01*
X70631517Y-47286334D01*
X70578743Y-47281539D01*
X70537781Y-47260952D01*
X70507296Y-47215269D01*
X70485954Y-47135183D01*
X70472419Y-47011390D01*
X70465356Y-46834584D01*
X70463429Y-46595462D01*
X70465305Y-46284717D01*
X70466819Y-46138469D01*
X70478167Y-45106956D01*
X70605167Y-45081573D01*
X70732167Y-45056189D01*
X70626333Y-45012126D01*
X70516845Y-44966471D01*
X70382230Y-44910253D01*
X70356580Y-44899532D01*
X70251897Y-44857127D01*
X70186181Y-44833063D01*
X70177578Y-44831000D01*
X70172325Y-44871172D01*
G36*
X66006426Y-44971587D02*
G01*
X65951823Y-45080431D01*
X65874486Y-45246584D01*
X65779196Y-45459568D01*
X65670731Y-45708905D01*
X65565584Y-45956245D01*
X65418089Y-46306187D01*
X65298970Y-46586064D01*
X65204058Y-46803976D01*
X65129182Y-46968019D01*
X65070172Y-47086291D01*
X65022857Y-47166889D01*
X64983066Y-47217911D01*
X64946630Y-47247453D01*
X64909377Y-47263614D01*
X64889397Y-47269143D01*
X64797441Y-47300810D01*
X64785915Y-47327981D01*
X64850649Y-47349478D01*
X64987469Y-47364123D01*
X65192206Y-47370738D01*
X65250000Y-47371000D01*
X65439554Y-47367653D01*
X65591145Y-47358542D01*
X65688261Y-47345065D01*
X65715667Y-47331611D01*
X65679824Y-47294994D01*
X65624740Y-47278694D01*
X65524894Y-47243040D01*
X65480427Y-47167934D01*
X65489778Y-47044008D01*
X65551383Y-46861891D01*
X65554118Y-46855197D01*
X65663795Y-46587834D01*
X66622304Y-46587834D01*
X66727409Y-46856027D01*
X66787740Y-47040603D01*
X66797188Y-47165996D01*
X66754044Y-47241943D01*
X66656600Y-47278184D01*
X66653260Y-47278694D01*
X66581042Y-47304966D01*
X66562333Y-47331611D01*
X66601416Y-47349410D01*
X66705709Y-47363023D01*
X66855781Y-47370324D01*
X66922167Y-47371000D01*
X67084772Y-47367140D01*
X67209135Y-47356839D01*
X67275821Y-47342017D01*
X67282000Y-47335462D01*
X67247786Y-47294055D01*
X67173234Y-47250366D01*
X67134278Y-47226574D01*
X67093652Y-47186073D01*
X67047652Y-47121378D01*
X66992572Y-47025005D01*
X66924706Y-46889470D01*
X66840351Y-46707290D01*
X66735799Y-46470980D01*
X66708550Y-46407778D01*
X66520655Y-46407778D01*
X66520653Y-46407917D01*
X66481867Y-46424465D01*
X66381638Y-46434860D01*
X66242945Y-46439396D01*
X66088765Y-46438367D01*
X65942077Y-46432068D01*
X65825860Y-46420792D01*
X65763090Y-46404835D01*
X65758000Y-46398145D01*
X65773336Y-46339579D01*
X65813948Y-46227727D01*
X65871741Y-46081721D01*
X65938621Y-45920697D01*
X66006493Y-45763787D01*
X66067262Y-45630125D01*
X66112833Y-45538844D01*
X66134270Y-45508740D01*
X66158453Y-45545058D01*
X66205831Y-45641052D01*
X66268252Y-45777751D01*
X66337564Y-45936183D01*
X66405612Y-46097373D01*
X66464245Y-46242351D01*
X66505310Y-46352143D01*
X66520655Y-46407778D01*
X66708550Y-46407778D01*
X66607348Y-46173056D01*
X66451290Y-45806034D01*
X66410775Y-45710285D01*
X66307658Y-45471686D01*
X66213258Y-45263127D01*
X66133093Y-45096013D01*
X66072680Y-44981744D01*
X66037534Y-44931722D01*
X66033514Y-44930531D01*
X66006426Y-44971587D01*
G37*
X66006426Y-44971587D02*
X65951823Y-45080431D01*
X65874486Y-45246584D01*
X65779196Y-45459568D01*
X65670731Y-45708905D01*
X65565584Y-45956245D01*
X65418089Y-46306187D01*
X65298970Y-46586064D01*
X65204058Y-46803976D01*
X65129182Y-46968019D01*
X65070172Y-47086291D01*
X65022857Y-47166889D01*
X64983066Y-47217911D01*
X64946630Y-47247453D01*
X64909377Y-47263614D01*
X64889397Y-47269143D01*
X64797441Y-47300810D01*
X64785915Y-47327981D01*
X64850649Y-47349478D01*
X64987469Y-47364123D01*
X65192206Y-47370738D01*
X65250000Y-47371000D01*
X65439554Y-47367653D01*
X65591145Y-47358542D01*
X65688261Y-47345065D01*
X65715667Y-47331611D01*
X65679824Y-47294994D01*
X65624740Y-47278694D01*
X65524894Y-47243040D01*
X65480427Y-47167934D01*
X65489778Y-47044008D01*
X65551383Y-46861891D01*
X65554118Y-46855197D01*
X65663795Y-46587834D01*
X66622304Y-46587834D01*
X66727409Y-46856027D01*
X66787740Y-47040603D01*
X66797188Y-47165996D01*
X66754044Y-47241943D01*
X66656600Y-47278184D01*
X66653260Y-47278694D01*
X66581042Y-47304966D01*
X66562333Y-47331611D01*
X66601416Y-47349410D01*
X66705709Y-47363023D01*
X66855781Y-47370324D01*
X66922167Y-47371000D01*
X67084772Y-47367140D01*
X67209135Y-47356839D01*
X67275821Y-47342017D01*
X67282000Y-47335462D01*
X67247786Y-47294055D01*
X67173234Y-47250366D01*
X67134278Y-47226574D01*
X67093652Y-47186073D01*
X67047652Y-47121378D01*
X66992572Y-47025005D01*
X66924706Y-46889470D01*
X66840351Y-46707290D01*
X66735799Y-46470980D01*
X66708550Y-46407778D01*
X66520655Y-46407778D01*
X66520653Y-46407917D01*
X66481867Y-46424465D01*
X66381638Y-46434860D01*
X66242945Y-46439396D01*
X66088765Y-46438367D01*
X65942077Y-46432068D01*
X65825860Y-46420792D01*
X65763090Y-46404835D01*
X65758000Y-46398145D01*
X65773336Y-46339579D01*
X65813948Y-46227727D01*
X65871741Y-46081721D01*
X65938621Y-45920697D01*
X66006493Y-45763787D01*
X66067262Y-45630125D01*
X66112833Y-45538844D01*
X66134270Y-45508740D01*
X66158453Y-45545058D01*
X66205831Y-45641052D01*
X66268252Y-45777751D01*
X66337564Y-45936183D01*
X66405612Y-46097373D01*
X66464245Y-46242351D01*
X66505310Y-46352143D01*
X66520655Y-46407778D01*
X66708550Y-46407778D01*
X66607348Y-46173056D01*
X66451290Y-45806034D01*
X66410775Y-45710285D01*
X66307658Y-45471686D01*
X66213258Y-45263127D01*
X66133093Y-45096013D01*
X66072680Y-44981744D01*
X66037534Y-44931722D01*
X66033514Y-44930531D01*
X66006426Y-44971587D01*
G36*
X57329627Y-45720000D02*
G01*
X57141147Y-45720000D01*
X57014514Y-45729130D01*
X56958316Y-45759225D01*
X56952667Y-45781066D01*
X56989831Y-45827351D01*
X57104306Y-45852725D01*
X57132583Y-45855149D01*
X57312500Y-45868167D01*
X57324304Y-46401951D01*
X57325550Y-46616459D01*
X57320279Y-46809125D01*
X57309477Y-46959243D01*
X57294129Y-47046104D01*
X57293602Y-47047535D01*
X57223874Y-47137099D01*
X57121789Y-47157426D01*
X57007394Y-47105781D01*
X56987750Y-47089272D01*
X56926620Y-47046109D01*
X56907921Y-47058199D01*
X56927183Y-47110303D01*
X56979940Y-47187185D01*
X57034077Y-47247257D01*
X57179347Y-47345706D01*
X57333243Y-47369298D01*
X57478017Y-47315517D01*
X57484326Y-47311024D01*
X57515340Y-47281137D01*
X57538310Y-47234786D01*
X57555032Y-47158907D01*
X57567303Y-47040434D01*
X57576920Y-46866304D01*
X57585680Y-46623451D01*
X57587667Y-46559607D01*
X57608833Y-45868167D01*
X57755516Y-45847000D01*
X57902198Y-45825834D01*
X57776682Y-45746458D01*
X57596447Y-45598691D01*
X57458109Y-45401546D01*
X57426188Y-45339000D01*
X57354833Y-45190834D01*
X57329627Y-45720000D01*
G37*
X57329627Y-45720000D02*
X57141147Y-45720000D01*
X57014514Y-45729130D01*
X56958316Y-45759225D01*
X56952667Y-45781066D01*
X56989831Y-45827351D01*
X57104306Y-45852725D01*
X57132583Y-45855149D01*
X57312500Y-45868167D01*
X57324304Y-46401951D01*
X57325550Y-46616459D01*
X57320279Y-46809125D01*
X57309477Y-46959243D01*
X57294129Y-47046104D01*
X57293602Y-47047535D01*
X57223874Y-47137099D01*
X57121789Y-47157426D01*
X57007394Y-47105781D01*
X56987750Y-47089272D01*
X56926620Y-47046109D01*
X56907921Y-47058199D01*
X56927183Y-47110303D01*
X56979940Y-47187185D01*
X57034077Y-47247257D01*
X57179347Y-47345706D01*
X57333243Y-47369298D01*
X57478017Y-47315517D01*
X57484326Y-47311024D01*
X57515340Y-47281137D01*
X57538310Y-47234786D01*
X57555032Y-47158907D01*
X57567303Y-47040434D01*
X57576920Y-46866304D01*
X57585680Y-46623451D01*
X57587667Y-46559607D01*
X57608833Y-45868167D01*
X57755516Y-45847000D01*
X57902198Y-45825834D01*
X57776682Y-45746458D01*
X57596447Y-45598691D01*
X57458109Y-45401546D01*
X57426188Y-45339000D01*
X57354833Y-45190834D01*
X57329627Y-45720000D01*
G36*
X55861031Y-45733442D02*
G01*
X55710249Y-45816532D01*
X55695103Y-45830716D01*
X55651816Y-45880730D01*
X55623655Y-45939157D01*
X55607386Y-46024358D01*
X55599776Y-46154689D01*
X55597594Y-46348510D01*
X55597534Y-46384826D01*
X55592084Y-46702524D01*
X55576436Y-46936546D01*
X55550542Y-47087273D01*
X55514354Y-47155084D01*
X55500545Y-47159334D01*
X55437672Y-47133356D01*
X55379084Y-47089272D01*
X55321735Y-47043973D01*
X55302964Y-47058431D01*
X55301667Y-47085509D01*
X55337426Y-47167524D01*
X55426666Y-47255513D01*
X55542330Y-47329330D01*
X55657361Y-47368831D01*
X55685108Y-47371000D01*
X55782191Y-47352811D01*
X55829208Y-47284412D01*
X55834616Y-47265167D01*
X55864464Y-47186006D01*
X55890698Y-47159334D01*
X55940254Y-47182369D01*
X56028768Y-47240043D01*
X56063667Y-47265167D01*
X56228329Y-47348652D01*
X56400637Y-47373604D01*
X56555945Y-47339573D01*
X56645816Y-47275750D01*
X56746667Y-47116516D01*
X56763932Y-46946128D01*
X56744694Y-46885180D01*
X56472664Y-46885180D01*
X56452348Y-47016668D01*
X56357869Y-47130330D01*
X56345878Y-47139060D01*
X56232121Y-47179569D01*
X56098878Y-47148701D01*
X55979000Y-47077392D01*
X55922374Y-47027742D01*
X55888642Y-46963089D01*
X55870473Y-46860032D01*
X55860729Y-46699880D01*
X55857942Y-46552225D01*
X55862167Y-46444493D01*
X55872481Y-46397830D01*
X55873934Y-46397334D01*
X55923018Y-46414113D01*
X56024388Y-46457670D01*
X56130454Y-46506556D01*
X56307534Y-46617844D01*
X56422998Y-46748145D01*
X56472664Y-46885180D01*
X56744694Y-46885180D01*
X56722122Y-46813671D01*
X56651463Y-46699546D01*
X56552067Y-46603777D01*
X56407102Y-46514046D01*
X56199735Y-46418039D01*
X56156999Y-46400179D01*
X55873167Y-46282871D01*
X55886854Y-46117852D01*
X55927915Y-45948787D01*
X56013939Y-45841607D01*
X56136511Y-45804667D01*
X56288998Y-45831585D01*
X56377088Y-45913053D01*
X56402333Y-46033806D01*
X56428163Y-46169283D01*
X56498605Y-46245787D01*
X56603087Y-46252424D01*
X56611969Y-46249812D01*
X56680965Y-46190370D01*
X56699599Y-46088917D01*
X56668818Y-45970788D01*
X56597700Y-45869185D01*
X56445718Y-45767259D01*
X56254874Y-45709917D01*
X56051275Y-45698274D01*
X55861031Y-45733442D01*
G37*
X55861031Y-45733442D02*
X55710249Y-45816532D01*
X55695103Y-45830716D01*
X55651816Y-45880730D01*
X55623655Y-45939157D01*
X55607386Y-46024358D01*
X55599776Y-46154689D01*
X55597594Y-46348510D01*
X55597534Y-46384826D01*
X55592084Y-46702524D01*
X55576436Y-46936546D01*
X55550542Y-47087273D01*
X55514354Y-47155084D01*
X55500545Y-47159334D01*
X55437672Y-47133356D01*
X55379084Y-47089272D01*
X55321735Y-47043973D01*
X55302964Y-47058431D01*
X55301667Y-47085509D01*
X55337426Y-47167524D01*
X55426666Y-47255513D01*
X55542330Y-47329330D01*
X55657361Y-47368831D01*
X55685108Y-47371000D01*
X55782191Y-47352811D01*
X55829208Y-47284412D01*
X55834616Y-47265167D01*
X55864464Y-47186006D01*
X55890698Y-47159334D01*
X55940254Y-47182369D01*
X56028768Y-47240043D01*
X56063667Y-47265167D01*
X56228329Y-47348652D01*
X56400637Y-47373604D01*
X56555945Y-47339573D01*
X56645816Y-47275750D01*
X56746667Y-47116516D01*
X56763932Y-46946128D01*
X56744694Y-46885180D01*
X56472664Y-46885180D01*
X56452348Y-47016668D01*
X56357869Y-47130330D01*
X56345878Y-47139060D01*
X56232121Y-47179569D01*
X56098878Y-47148701D01*
X55979000Y-47077392D01*
X55922374Y-47027742D01*
X55888642Y-46963089D01*
X55870473Y-46860032D01*
X55860729Y-46699880D01*
X55857942Y-46552225D01*
X55862167Y-46444493D01*
X55872481Y-46397830D01*
X55873934Y-46397334D01*
X55923018Y-46414113D01*
X56024388Y-46457670D01*
X56130454Y-46506556D01*
X56307534Y-46617844D01*
X56422998Y-46748145D01*
X56472664Y-46885180D01*
X56744694Y-46885180D01*
X56722122Y-46813671D01*
X56651463Y-46699546D01*
X56552067Y-46603777D01*
X56407102Y-46514046D01*
X56199735Y-46418039D01*
X56156999Y-46400179D01*
X55873167Y-46282871D01*
X55886854Y-46117852D01*
X55927915Y-45948787D01*
X56013939Y-45841607D01*
X56136511Y-45804667D01*
X56288998Y-45831585D01*
X56377088Y-45913053D01*
X56402333Y-46033806D01*
X56428163Y-46169283D01*
X56498605Y-46245787D01*
X56603087Y-46252424D01*
X56611969Y-46249812D01*
X56680965Y-46190370D01*
X56699599Y-46088917D01*
X56668818Y-45970788D01*
X56597700Y-45869185D01*
X56445718Y-45767259D01*
X56254874Y-45709917D01*
X56051275Y-45698274D01*
X55861031Y-45733442D01*
G36*
X87010598Y-45318090D02*
G01*
X86704523Y-45400310D01*
X86417445Y-45561954D01*
X86355207Y-45610230D01*
X86145716Y-45832741D01*
X86005593Y-46091736D01*
X85935692Y-46373965D01*
X85936863Y-46666175D01*
X86009956Y-46955115D01*
X86155824Y-47227533D01*
X86244118Y-47339704D01*
X86455863Y-47520634D01*
X86717957Y-47651076D01*
X87009260Y-47725896D01*
X87308627Y-47739961D01*
X87594916Y-47688139D01*
X87630260Y-47676228D01*
X87927613Y-47528211D01*
X88167791Y-47319975D01*
X88345258Y-47057736D01*
X88453578Y-46751757D01*
X88471079Y-46528918D01*
X88135317Y-46528918D01*
X88098040Y-46769581D01*
X87989272Y-47000953D01*
X87860392Y-47158589D01*
X87633394Y-47337381D01*
X87391182Y-47433404D01*
X87128818Y-47447931D01*
X86908412Y-47403922D01*
X86758163Y-47332206D01*
X86595315Y-47210565D01*
X86539275Y-47158129D01*
X86375855Y-46944950D01*
X86286514Y-46716186D01*
X86264999Y-46483004D01*
X86305059Y-46256570D01*
X86400442Y-46048052D01*
X86544898Y-45868615D01*
X86732173Y-45729427D01*
X86956018Y-45641653D01*
X87210180Y-45616461D01*
X87389665Y-45639145D01*
X87649705Y-45732161D01*
X87858298Y-45880587D01*
X88011438Y-46071481D01*
X88105113Y-46291905D01*
X88135317Y-46528918D01*
X88471079Y-46528918D01*
X88476037Y-46465792D01*
X88422334Y-46181351D01*
X88299564Y-45915336D01*
X88114822Y-45684650D01*
X87949681Y-45551414D01*
X87642490Y-45393299D01*
X87326358Y-45315638D01*
X87010598Y-45318090D01*
G37*
X87010598Y-45318090D02*
X86704523Y-45400310D01*
X86417445Y-45561954D01*
X86355207Y-45610230D01*
X86145716Y-45832741D01*
X86005593Y-46091736D01*
X85935692Y-46373965D01*
X85936863Y-46666175D01*
X86009956Y-46955115D01*
X86155824Y-47227533D01*
X86244118Y-47339704D01*
X86455863Y-47520634D01*
X86717957Y-47651076D01*
X87009260Y-47725896D01*
X87308627Y-47739961D01*
X87594916Y-47688139D01*
X87630260Y-47676228D01*
X87927613Y-47528211D01*
X88167791Y-47319975D01*
X88345258Y-47057736D01*
X88453578Y-46751757D01*
X88471079Y-46528918D01*
X88135317Y-46528918D01*
X88098040Y-46769581D01*
X87989272Y-47000953D01*
X87860392Y-47158589D01*
X87633394Y-47337381D01*
X87391182Y-47433404D01*
X87128818Y-47447931D01*
X86908412Y-47403922D01*
X86758163Y-47332206D01*
X86595315Y-47210565D01*
X86539275Y-47158129D01*
X86375855Y-46944950D01*
X86286514Y-46716186D01*
X86264999Y-46483004D01*
X86305059Y-46256570D01*
X86400442Y-46048052D01*
X86544898Y-45868615D01*
X86732173Y-45729427D01*
X86956018Y-45641653D01*
X87210180Y-45616461D01*
X87389665Y-45639145D01*
X87649705Y-45732161D01*
X87858298Y-45880587D01*
X88011438Y-46071481D01*
X88105113Y-46291905D01*
X88135317Y-46528918D01*
X88471079Y-46528918D01*
X88476037Y-46465792D01*
X88422334Y-46181351D01*
X88299564Y-45915336D01*
X88114822Y-45684650D01*
X87949681Y-45551414D01*
X87642490Y-45393299D01*
X87326358Y-45315638D01*
X87010598Y-45318090D01*
G36*
X85682481Y-44915624D02*
G01*
X85566419Y-45009129D01*
X85497540Y-45150803D01*
X85486680Y-45241390D01*
X85523003Y-45396147D01*
X85621032Y-45520327D01*
X85759418Y-45599789D01*
X85916810Y-45620394D01*
X86020554Y-45594959D01*
X86156046Y-45498346D01*
X86229017Y-45362118D01*
X86235805Y-45207522D01*
X86172749Y-45055802D01*
X86123590Y-44997077D01*
X85980084Y-44902304D01*
X85826709Y-44877584D01*
X85682481Y-44915624D01*
G37*
X85682481Y-44915624D02*
X85566419Y-45009129D01*
X85497540Y-45150803D01*
X85486680Y-45241390D01*
X85523003Y-45396147D01*
X85621032Y-45520327D01*
X85759418Y-45599789D01*
X85916810Y-45620394D01*
X86020554Y-45594959D01*
X86156046Y-45498346D01*
X86229017Y-45362118D01*
X86235805Y-45207522D01*
X86172749Y-45055802D01*
X86123590Y-44997077D01*
X85980084Y-44902304D01*
X85826709Y-44877584D01*
X85682481Y-44915624D01*
D12*
X67616000Y-84518000D02*
X77616000Y-84518000D01*
X77616000Y-84518000D02*
X77616000Y-76518000D01*
X67616000Y-76518000D02*
X77616000Y-76518000D01*
X67616000Y-84518000D02*
X67616000Y-76518000D01*
D13*
X72616840Y-58620000D02*
X72616840Y-53340000D01*
X72616840Y-73340000D02*
X72616840Y-66120000D01*
D14*
X74616840Y-58620000D02*
X70616840Y-58620000D01*
X77616840Y-61120000D02*
X67616840Y-61120000D01*
X74616840Y-63620000D02*
X70616840Y-63620000D01*
X77616840Y-66120000D02*
X67616840Y-66120000D01*
D12*
X83843640Y-60807600D02*
G75*
G03X83843640Y-60807600I-11226800J0D01*
G01*
X68705240Y-71374000D02*
X68705240Y-74117200D01*
X76528440Y-71374000D02*
X76528440Y-74117200D01*
X68705240Y-74117200D02*
X71550040Y-74117200D01*
X76528440Y-74117200D02*
X73683640Y-74117200D01*
D10*
X73402554Y-50982571D02*
X73259697Y-51030190D01*
X73212078Y-51077809D01*
X73164459Y-51173047D01*
X73164459Y-51315904D01*
X73212078Y-51411142D01*
X73259697Y-51458761D01*
X73354935Y-51506380D01*
X73735887Y-51506380D01*
X73735887Y-50506380D01*
X73402554Y-50506380D01*
X73307316Y-50554000D01*
X73259697Y-50601619D01*
X73212078Y-50696857D01*
X73212078Y-50792095D01*
X73259697Y-50887333D01*
X73307316Y-50934952D01*
X73402554Y-50982571D01*
X73735887Y-50982571D01*
X72878744Y-50506380D02*
X72307316Y-50506380D01*
X72593030Y-51506380D02*
X72593030Y-50506380D01*
X71450173Y-51506380D02*
X72021601Y-51506380D01*
X71735887Y-51506380D02*
X71735887Y-50506380D01*
X71831125Y-50649238D01*
X71926363Y-50744476D01*
X72021601Y-50792095D01*
%LPC*%
D15*
X69366000Y-82768000D03*
X75866000Y-82768000D03*
X69366000Y-78268000D03*
X75866000Y-78268000D03*
D16*
X72390000Y-38608000D03*
D17*
X72616840Y-73340000D03*
D18*
X72616840Y-53340000D03*
D19*
X59944000Y-58166000D03*
D20*
X59944000Y-60706000D03*
X85344000Y-60706000D03*
D19*
X85344000Y-58166000D03*
M02*
