G04 #@! TF.GenerationSoftware,KiCad,Pcbnew,(5.1.5)-3*
G04 #@! TF.CreationDate,2020-04-21T21:54:19-04:00*
G04 #@! TF.ProjectId,Tape and Crossbones 001,54617065-2061-46e6-9420-43726f737362,rev?*
G04 #@! TF.SameCoordinates,Original*
G04 #@! TF.FileFunction,Legend,Top*
G04 #@! TF.FilePolarity,Positive*
%FSLAX46Y46*%
G04 Gerber Fmt 4.6, Leading zero omitted, Abs format (unit mm)*
G04 Created by KiCad (PCBNEW (5.1.5)-3) date 2020-04-21 21:54:19*
%MOMM*%
%LPD*%
G04 APERTURE LIST*
%ADD10C,0.010000*%
%ADD11C,0.150000*%
%ADD12C,0.120000*%
%ADD13O,23.400000X7.400000*%
%ADD14C,2.900000*%
%ADD15R,2.570000X2.570000*%
%ADD16R,2.200000X2.200000*%
%ADD17C,2.200000*%
G04 APERTURE END LIST*
D10*
G36*
X104441638Y-72536552D02*
G01*
X104868659Y-72612761D01*
X105235027Y-72741040D01*
X105545202Y-72923302D01*
X105803647Y-73161461D01*
X105964014Y-73374496D01*
X106074946Y-73571325D01*
X106158254Y-73782559D01*
X106216791Y-74022743D01*
X106253411Y-74306421D01*
X106270968Y-74648139D01*
X106273343Y-74951167D01*
X106270656Y-75195640D01*
X106263928Y-75398803D01*
X106250684Y-75581996D01*
X106228453Y-75766559D01*
X106194762Y-75973830D01*
X106147138Y-76225149D01*
X106096752Y-76475167D01*
X106013086Y-76892031D01*
X105947704Y-77235322D01*
X105899336Y-77513848D01*
X105866712Y-77736414D01*
X105848560Y-77911824D01*
X105843612Y-78048886D01*
X105850595Y-78156405D01*
X105852369Y-78169045D01*
X105880936Y-78293088D01*
X105935435Y-78445251D01*
X106019701Y-78633285D01*
X106137572Y-78864941D01*
X106292883Y-79147970D01*
X106489472Y-79490123D01*
X106596315Y-79672032D01*
X106813738Y-80046871D01*
X107020966Y-80416895D01*
X107212507Y-80771446D01*
X107382869Y-81099867D01*
X107526563Y-81391503D01*
X107638095Y-81635695D01*
X107711975Y-81821788D01*
X107725676Y-81863703D01*
X107761227Y-82036280D01*
X107785085Y-82264676D01*
X107796875Y-82522589D01*
X107796221Y-82783720D01*
X107782750Y-83021769D01*
X107756086Y-83210435D01*
X107745485Y-83253380D01*
X107653138Y-83437356D01*
X107492661Y-83617615D01*
X107208640Y-83831118D01*
X106862717Y-84005798D01*
X106469233Y-84139646D01*
X106042531Y-84230650D01*
X105596952Y-84276802D01*
X105146839Y-84276089D01*
X104706533Y-84226503D01*
X104290378Y-84126034D01*
X104167108Y-84083721D01*
X103781888Y-83902552D01*
X103392732Y-83646469D01*
X103009516Y-83324087D01*
X102642115Y-82944025D01*
X102300403Y-82514899D01*
X102192956Y-82361022D01*
X102010346Y-82096016D01*
X101860926Y-81893716D01*
X101735281Y-81743665D01*
X101623997Y-81635403D01*
X101517660Y-81558471D01*
X101428670Y-81511933D01*
X101317327Y-81468924D01*
X101216043Y-81453908D01*
X101088848Y-81464255D01*
X100993264Y-81480081D01*
X100538660Y-81561866D01*
X100012638Y-81657187D01*
X99426984Y-81763892D01*
X98793480Y-81879828D01*
X98123910Y-82002845D01*
X97451334Y-82126860D01*
X97151581Y-82181860D01*
X96778848Y-82249646D01*
X96343540Y-82328354D01*
X95856068Y-82416119D01*
X95326838Y-82511077D01*
X94766258Y-82611363D01*
X94184737Y-82715113D01*
X93592682Y-82820462D01*
X93000503Y-82925546D01*
X92418605Y-83028501D01*
X92371334Y-83036851D01*
X91650290Y-83164242D01*
X91007635Y-83277924D01*
X90438363Y-83378815D01*
X89937469Y-83467831D01*
X89499948Y-83545887D01*
X89120794Y-83613902D01*
X88795002Y-83672791D01*
X88517567Y-83723471D01*
X88283483Y-83766858D01*
X88087746Y-83803868D01*
X87925348Y-83835420D01*
X87791287Y-83862428D01*
X87680555Y-83885809D01*
X87588148Y-83906480D01*
X87509060Y-83925358D01*
X87481834Y-83932157D01*
X87253496Y-83998715D01*
X87083299Y-84066981D01*
X86980401Y-84132637D01*
X86952667Y-84181774D01*
X86992564Y-84258077D01*
X87104024Y-84338948D01*
X87274701Y-84417658D01*
X87492248Y-84487480D01*
X87532911Y-84497959D01*
X87655778Y-84524304D01*
X87851954Y-84560912D01*
X88113813Y-84606634D01*
X88433728Y-84660323D01*
X88804072Y-84720833D01*
X89217218Y-84787016D01*
X89665540Y-84857725D01*
X90141411Y-84931813D01*
X90637204Y-85008133D01*
X91145292Y-85085538D01*
X91658048Y-85162880D01*
X92167846Y-85239013D01*
X92667059Y-85312788D01*
X93148059Y-85383061D01*
X93603221Y-85448682D01*
X94024918Y-85508505D01*
X94405522Y-85561383D01*
X94737407Y-85606169D01*
X95012946Y-85641715D01*
X95224513Y-85666874D01*
X95364480Y-85680500D01*
X95409558Y-85682667D01*
X95552651Y-85674151D01*
X95676807Y-85642514D01*
X95794267Y-85578621D01*
X95917275Y-85473337D01*
X96058070Y-85317528D01*
X96228896Y-85102059D01*
X96282843Y-85031028D01*
X96596758Y-84634982D01*
X96923975Y-84258611D01*
X97254657Y-83911450D01*
X97578964Y-83603036D01*
X97887057Y-83342905D01*
X98169098Y-83140594D01*
X98330569Y-83046288D01*
X98603724Y-82923955D01*
X98876192Y-82847712D01*
X99178168Y-82810811D01*
X99411334Y-82804735D01*
X99853355Y-82834466D01*
X100261032Y-82925609D01*
X100651058Y-83084038D01*
X101040125Y-83315630D01*
X101209138Y-83437547D01*
X101541046Y-83726736D01*
X101796854Y-84038387D01*
X101980135Y-84380546D01*
X102094461Y-84761261D01*
X102143403Y-85188580D01*
X102139902Y-85534500D01*
X102128584Y-85700860D01*
X102110609Y-85834385D01*
X102079087Y-85958809D01*
X102027126Y-86097864D01*
X101947836Y-86275283D01*
X101887934Y-86402334D01*
X101726803Y-86720544D01*
X101549121Y-87027714D01*
X101343934Y-87340390D01*
X101100291Y-87675117D01*
X100807238Y-88048440D01*
X100758012Y-88109197D01*
X100544513Y-88371720D01*
X100377860Y-88577793D01*
X100251845Y-88736949D01*
X100160262Y-88858722D01*
X100096903Y-88952644D01*
X100055562Y-89028249D01*
X100030030Y-89095070D01*
X100014100Y-89162641D01*
X100001566Y-89240495D01*
X99995572Y-89280178D01*
X99975644Y-89430651D01*
X99952434Y-89638554D01*
X99928774Y-89876874D01*
X99907494Y-90118594D01*
X99906756Y-90127667D01*
X99838944Y-90829436D01*
X99754325Y-91452613D01*
X99650371Y-92002059D01*
X99524553Y-92482633D01*
X99374343Y-92899199D01*
X99197213Y-93256618D01*
X98990633Y-93559749D01*
X98752076Y-93813456D01*
X98479012Y-94022598D01*
X98168914Y-94192038D01*
X97819253Y-94326636D01*
X97704642Y-94361413D01*
X97470198Y-94412121D01*
X97178528Y-94450410D01*
X96856345Y-94474959D01*
X96530359Y-94484449D01*
X96227282Y-94477561D01*
X95973823Y-94452976D01*
X95945415Y-94448324D01*
X95554728Y-94339820D01*
X95205400Y-94157589D01*
X94898048Y-93902127D01*
X94633289Y-93573926D01*
X94448525Y-93251118D01*
X94368707Y-93076661D01*
X94302283Y-92901113D01*
X94246325Y-92710947D01*
X94197902Y-92492633D01*
X94154086Y-92232645D01*
X94111946Y-91917453D01*
X94068554Y-91533529D01*
X94060916Y-91461167D01*
X94032008Y-91199581D01*
X94002551Y-90958560D01*
X93974721Y-90754114D01*
X93950696Y-90602255D01*
X93932950Y-90519912D01*
X93894893Y-90432628D01*
X93835149Y-90354544D01*
X93746425Y-90282955D01*
X93621427Y-90215151D01*
X93452862Y-90148425D01*
X93233437Y-90080070D01*
X92955857Y-90007378D01*
X92612829Y-89927641D01*
X92197061Y-89838151D01*
X91969167Y-89790866D01*
X91613463Y-89717341D01*
X91217663Y-89634905D01*
X90811449Y-89549780D01*
X90424501Y-89468189D01*
X90086501Y-89396354D01*
X90043000Y-89387050D01*
X89798374Y-89335101D01*
X89485612Y-89269353D01*
X89119544Y-89192886D01*
X88715001Y-89108784D01*
X88286815Y-89020126D01*
X87849815Y-88929993D01*
X87418833Y-88841468D01*
X87291334Y-88815358D01*
X86875164Y-88730056D01*
X86456963Y-88644075D01*
X86050015Y-88560163D01*
X85667605Y-88481071D01*
X85323018Y-88409548D01*
X85029537Y-88348342D01*
X84800447Y-88300205D01*
X84730167Y-88285299D01*
X84551248Y-88247328D01*
X84300003Y-88194191D01*
X83986966Y-88128108D01*
X83622675Y-88051300D01*
X83217664Y-87965986D01*
X82782469Y-87874385D01*
X82327626Y-87778718D01*
X81863672Y-87681204D01*
X81618667Y-87629738D01*
X81098814Y-87520450D01*
X80537826Y-87402316D01*
X79953421Y-87279080D01*
X79363317Y-87154484D01*
X78785230Y-87032272D01*
X78236879Y-86916188D01*
X77735980Y-86809974D01*
X77300667Y-86717463D01*
X76779219Y-86607257D01*
X76331490Y-86514863D01*
X75948653Y-86439260D01*
X75621880Y-86379427D01*
X75342344Y-86334342D01*
X75101219Y-86302983D01*
X74889678Y-86284331D01*
X74698892Y-86277362D01*
X74520037Y-86281056D01*
X74344284Y-86294392D01*
X74162806Y-86316348D01*
X74018578Y-86337710D01*
X73885510Y-86360313D01*
X73676796Y-86398193D01*
X73399791Y-86449903D01*
X73061849Y-86513996D01*
X72670322Y-86589027D01*
X72232566Y-86673549D01*
X71755933Y-86766116D01*
X71247778Y-86865282D01*
X70715454Y-86969601D01*
X70166314Y-87077625D01*
X69607714Y-87187909D01*
X69047005Y-87299007D01*
X68491543Y-87409473D01*
X67948681Y-87517859D01*
X67425772Y-87622720D01*
X66930171Y-87722609D01*
X66469230Y-87816081D01*
X66050305Y-87901689D01*
X65722500Y-87969317D01*
X65035076Y-88111876D01*
X64403174Y-88242791D01*
X63815117Y-88364458D01*
X63259230Y-88479275D01*
X62723837Y-88589637D01*
X62197261Y-88697941D01*
X61667828Y-88806582D01*
X61123860Y-88917958D01*
X60553682Y-89034465D01*
X59945617Y-89158498D01*
X59287991Y-89292455D01*
X58569126Y-89438732D01*
X57890834Y-89576655D01*
X57338551Y-89689008D01*
X56796045Y-89799529D01*
X56271059Y-89906630D01*
X55771335Y-90008726D01*
X55304617Y-90104230D01*
X54878647Y-90191555D01*
X54501170Y-90269115D01*
X54179926Y-90335324D01*
X53922661Y-90388594D01*
X53737115Y-90427340D01*
X53678667Y-90439702D01*
X53392485Y-90500196D01*
X53084276Y-90564582D01*
X52785291Y-90626380D01*
X52526781Y-90679106D01*
X52451000Y-90694347D01*
X51891735Y-90808409D01*
X51391924Y-90914790D01*
X50955509Y-91012543D01*
X50586434Y-91100723D01*
X50288644Y-91178383D01*
X50066081Y-91244576D01*
X49922689Y-91298356D01*
X49911000Y-91303926D01*
X49791926Y-91369198D01*
X49694239Y-91442309D01*
X49613957Y-91533296D01*
X49547100Y-91652196D01*
X49489687Y-91809045D01*
X49437736Y-92013881D01*
X49387266Y-92276740D01*
X49334296Y-92607658D01*
X49299184Y-92846333D01*
X49240993Y-93240837D01*
X49189703Y-93563922D01*
X49142299Y-93828255D01*
X49095766Y-94046502D01*
X49047089Y-94231328D01*
X48993252Y-94395398D01*
X48931239Y-94551380D01*
X48858036Y-94711938D01*
X48852060Y-94724414D01*
X48646049Y-95081220D01*
X48405339Y-95368923D01*
X48134702Y-95582009D01*
X48084247Y-95611423D01*
X47857834Y-95736834D01*
X46926500Y-95746007D01*
X46555750Y-95747397D01*
X46262593Y-95743270D01*
X46040119Y-95733346D01*
X45881416Y-95717350D01*
X45797994Y-95700627D01*
X45463700Y-95565099D01*
X45155391Y-95353936D01*
X44881255Y-95074276D01*
X44649484Y-94733261D01*
X44614397Y-94668773D01*
X44463719Y-94382167D01*
X44497264Y-92138500D01*
X44530810Y-89894834D01*
X44241153Y-89238667D01*
X44129169Y-88980787D01*
X44015473Y-88711667D01*
X43910704Y-88456975D01*
X43825506Y-88242380D01*
X43796811Y-88166873D01*
X43576291Y-87493742D01*
X43430265Y-86859718D01*
X43358719Y-86264988D01*
X43361635Y-85709740D01*
X43438996Y-85194162D01*
X43590787Y-84718441D01*
X43816991Y-84282765D01*
X44117590Y-83887322D01*
X44180813Y-83819156D01*
X44525302Y-83496809D01*
X44896737Y-83218124D01*
X45285398Y-82986408D01*
X45681565Y-82804965D01*
X46075518Y-82677100D01*
X46457536Y-82606118D01*
X46817898Y-82595324D01*
X47146884Y-82648022D01*
X47372695Y-82733941D01*
X47725530Y-82950390D01*
X48040965Y-83230913D01*
X48214751Y-83430467D01*
X48339361Y-83595453D01*
X48447835Y-83762734D01*
X48544776Y-83943936D01*
X48634789Y-84150686D01*
X48722478Y-84394610D01*
X48812445Y-84687334D01*
X48909294Y-85040484D01*
X49012523Y-85445158D01*
X49085385Y-85737304D01*
X49151352Y-86000968D01*
X49207733Y-86225459D01*
X49251835Y-86400090D01*
X49280969Y-86514172D01*
X49292443Y-86557015D01*
X49292477Y-86557076D01*
X49334078Y-86557297D01*
X49446603Y-86553843D01*
X49616416Y-86547240D01*
X49829878Y-86538013D01*
X50038000Y-86528377D01*
X50188217Y-86520515D01*
X50339736Y-86510858D01*
X50498016Y-86498676D01*
X50668511Y-86483240D01*
X50856678Y-86463820D01*
X51067974Y-86439685D01*
X51307854Y-86410106D01*
X51581776Y-86374352D01*
X51895194Y-86331694D01*
X52253567Y-86281403D01*
X52662349Y-86222747D01*
X53126997Y-86154997D01*
X53652967Y-86077424D01*
X54245716Y-85989297D01*
X54910699Y-85889886D01*
X55653374Y-85778461D01*
X55731834Y-85766674D01*
X56302402Y-85680980D01*
X56921827Y-85588011D01*
X57572508Y-85490405D01*
X58236844Y-85390800D01*
X58897236Y-85291835D01*
X59536083Y-85196146D01*
X60135785Y-85106372D01*
X60678741Y-85025150D01*
X60938834Y-84986271D01*
X61384775Y-84919575D01*
X61808749Y-84856060D01*
X62202799Y-84796925D01*
X62558970Y-84743367D01*
X62869306Y-84696587D01*
X63125850Y-84657783D01*
X63320647Y-84628153D01*
X63445742Y-84608898D01*
X63489417Y-84601919D01*
X63574809Y-84580983D01*
X63614742Y-84539936D01*
X63626401Y-84452443D01*
X63627000Y-84391071D01*
X63616345Y-84259049D01*
X63578270Y-84184413D01*
X63542914Y-84158977D01*
X63457760Y-84130754D01*
X63293341Y-84093616D01*
X63054501Y-84048370D01*
X62746083Y-83995819D01*
X62372929Y-83936770D01*
X61939882Y-83872026D01*
X61451785Y-83802392D01*
X61129334Y-83757892D01*
X60904339Y-83726604D01*
X60603899Y-83683885D01*
X60236283Y-83630961D01*
X59809760Y-83569057D01*
X59332600Y-83499400D01*
X58813074Y-83423215D01*
X58259449Y-83341728D01*
X57679997Y-83256165D01*
X57082986Y-83167751D01*
X56476687Y-83077713D01*
X55869368Y-82987276D01*
X55269300Y-82897667D01*
X54684752Y-82810110D01*
X54123993Y-82725831D01*
X53595294Y-82646058D01*
X53106924Y-82572014D01*
X52667152Y-82504927D01*
X52408667Y-82465228D01*
X52107522Y-82419426D01*
X51740972Y-82364650D01*
X51327468Y-82303601D01*
X50885462Y-82238978D01*
X50433406Y-82173482D01*
X49989753Y-82109813D01*
X49657000Y-82062535D01*
X49243343Y-82003606D01*
X48815615Y-81941844D01*
X48390475Y-81879711D01*
X47984579Y-81819669D01*
X47614585Y-81764181D01*
X47297149Y-81715707D01*
X47074667Y-81680834D01*
X46475734Y-81588604D01*
X45951027Y-81514999D01*
X45502420Y-81460239D01*
X45131789Y-81424546D01*
X44841012Y-81408144D01*
X44760249Y-81407000D01*
X44654016Y-81406674D01*
X44568988Y-81411152D01*
X44497226Y-81428616D01*
X44430794Y-81467247D01*
X44361755Y-81535228D01*
X44282172Y-81640741D01*
X44184107Y-81791969D01*
X44059623Y-81997093D01*
X43900783Y-82264296D01*
X43856809Y-82338334D01*
X43641941Y-82695492D01*
X43456530Y-82992196D01*
X43290180Y-83242688D01*
X43132496Y-83461215D01*
X42973082Y-83662020D01*
X42801541Y-83859348D01*
X42607477Y-84067445D01*
X42555228Y-84121782D01*
X42197498Y-84467881D01*
X41862618Y-84740405D01*
X41543037Y-84944795D01*
X41231205Y-85086498D01*
X41204129Y-85096063D01*
X41088222Y-85133429D01*
X40979422Y-85160139D01*
X40860173Y-85177910D01*
X40712921Y-85188458D01*
X40520112Y-85193499D01*
X40264192Y-85194749D01*
X40195500Y-85194682D01*
X39925594Y-85193353D01*
X39721933Y-85189006D01*
X39566101Y-85179622D01*
X39439683Y-85163183D01*
X39324262Y-85137669D01*
X39201423Y-85101059D01*
X39131641Y-85078022D01*
X38739590Y-84908433D01*
X38355997Y-84670522D01*
X38003970Y-84379357D01*
X37898434Y-84273910D01*
X37698972Y-84040875D01*
X37553437Y-83811035D01*
X37461915Y-83575301D01*
X37424492Y-83324586D01*
X37441254Y-83049801D01*
X37512285Y-82741859D01*
X37637673Y-82391670D01*
X37817502Y-81990148D01*
X37921957Y-81778934D01*
X38103487Y-81433062D01*
X38286256Y-81113205D01*
X38482299Y-80800797D01*
X38703655Y-80477276D01*
X38962360Y-80124078D01*
X39178752Y-79840667D01*
X39348398Y-79618870D01*
X39515823Y-79395539D01*
X39667520Y-79189006D01*
X39789980Y-79017605D01*
X39851951Y-78927018D01*
X40050311Y-78627203D01*
X39923169Y-77923283D01*
X39818927Y-77283730D01*
X39751197Y-76713605D01*
X39720787Y-76205566D01*
X39728505Y-75752271D01*
X39775161Y-75346378D01*
X39861561Y-74980545D01*
X39988515Y-74647430D01*
X40156832Y-74339691D01*
X40346853Y-74075230D01*
X40694309Y-73704255D01*
X41084823Y-73405259D01*
X41522655Y-73175486D01*
X41975956Y-73021529D01*
X42225160Y-72969900D01*
X42515625Y-72932155D01*
X42821391Y-72909685D01*
X43116494Y-72903884D01*
X43374974Y-72916145D01*
X43529783Y-72938157D01*
X43885493Y-73050353D01*
X44232613Y-73230639D01*
X44552843Y-73465367D01*
X44827885Y-73740887D01*
X45039441Y-74043550D01*
X45058202Y-74078203D01*
X45164971Y-74304985D01*
X45256992Y-74554978D01*
X45336390Y-74838337D01*
X45405291Y-75165215D01*
X45465820Y-75545768D01*
X45520103Y-75990150D01*
X45570263Y-76508516D01*
X45572698Y-76536523D01*
X45604743Y-76889796D01*
X45636412Y-77168713D01*
X45673239Y-77383381D01*
X45720755Y-77543904D01*
X45784494Y-77660387D01*
X45869988Y-77742936D01*
X45982768Y-77801656D01*
X46128368Y-77846652D01*
X46312321Y-77888030D01*
X46312667Y-77888102D01*
X46433182Y-77912689D01*
X46577645Y-77940885D01*
X46749908Y-77973350D01*
X46953818Y-78010747D01*
X47193226Y-78053734D01*
X47471981Y-78102975D01*
X47793931Y-78159129D01*
X48162928Y-78222857D01*
X48582819Y-78294821D01*
X49057456Y-78375681D01*
X49590686Y-78466099D01*
X50186359Y-78566735D01*
X50848325Y-78678250D01*
X51580434Y-78801305D01*
X52386534Y-78936561D01*
X53270475Y-79084680D01*
X53721000Y-79160113D01*
X54424899Y-79277954D01*
X55157738Y-79400657D01*
X55908869Y-79526440D01*
X56667641Y-79653517D01*
X57423406Y-79780106D01*
X58165514Y-79904422D01*
X58883315Y-80024680D01*
X59566160Y-80139098D01*
X60203400Y-80245891D01*
X60784385Y-80343274D01*
X61298465Y-80429465D01*
X61552667Y-80472095D01*
X62681646Y-80660940D01*
X63737596Y-80836474D01*
X64730819Y-81000364D01*
X65671617Y-81154278D01*
X66570293Y-81299882D01*
X67437148Y-81438842D01*
X68282486Y-81572826D01*
X69116608Y-81703500D01*
X69949816Y-81832531D01*
X70188667Y-81869254D01*
X70627489Y-81936822D01*
X71078154Y-82006586D01*
X71525796Y-82076220D01*
X71955548Y-82143396D01*
X72352542Y-82205789D01*
X72701912Y-82261073D01*
X72988791Y-82306920D01*
X73088500Y-82323035D01*
X73423144Y-82376280D01*
X73695068Y-82416184D01*
X73924844Y-82444624D01*
X74133041Y-82463472D01*
X74340229Y-82474605D01*
X74566977Y-82479896D01*
X74824167Y-82481220D01*
X75212247Y-82476642D01*
X75532465Y-82462119D01*
X75801154Y-82436621D01*
X75988334Y-82407932D01*
X76281427Y-82352731D01*
X76655121Y-82279422D01*
X77107404Y-82188432D01*
X77636262Y-82080189D01*
X78239684Y-81955122D01*
X78915658Y-81813658D01*
X79662171Y-81656226D01*
X80477211Y-81483254D01*
X81358767Y-81295170D01*
X82304825Y-81092401D01*
X83313373Y-80875376D01*
X84382401Y-80644523D01*
X85509894Y-80400270D01*
X86693841Y-80143045D01*
X87932231Y-79873277D01*
X89035836Y-79632316D01*
X89681001Y-79490841D01*
X90368774Y-79339159D01*
X91090095Y-79179315D01*
X91835902Y-79013354D01*
X92597135Y-78843321D01*
X93364731Y-78671259D01*
X94129630Y-78499213D01*
X94882771Y-78329228D01*
X95615093Y-78163349D01*
X96317535Y-78003619D01*
X96981035Y-77852083D01*
X97596532Y-77710787D01*
X98154965Y-77581773D01*
X98647274Y-77467088D01*
X98999563Y-77384154D01*
X99430130Y-77273481D01*
X99776222Y-77165443D01*
X100037988Y-77059981D01*
X100215575Y-76957035D01*
X100301371Y-76870024D01*
X100333449Y-76791930D01*
X100375888Y-76650152D01*
X100423373Y-76464206D01*
X100470583Y-76253610D01*
X100474644Y-76234081D01*
X100612881Y-75664694D01*
X100785525Y-75119310D01*
X100986408Y-74613858D01*
X101209364Y-74164267D01*
X101390177Y-73869152D01*
X101491504Y-73737379D01*
X101633854Y-73574813D01*
X101794649Y-73406541D01*
X101889838Y-73313980D01*
X102276536Y-73000088D01*
X102687255Y-72765645D01*
X103128194Y-72608233D01*
X103605551Y-72525434D01*
X103949500Y-72510499D01*
X104441638Y-72536552D01*
G37*
X104441638Y-72536552D02*
X104868659Y-72612761D01*
X105235027Y-72741040D01*
X105545202Y-72923302D01*
X105803647Y-73161461D01*
X105964014Y-73374496D01*
X106074946Y-73571325D01*
X106158254Y-73782559D01*
X106216791Y-74022743D01*
X106253411Y-74306421D01*
X106270968Y-74648139D01*
X106273343Y-74951167D01*
X106270656Y-75195640D01*
X106263928Y-75398803D01*
X106250684Y-75581996D01*
X106228453Y-75766559D01*
X106194762Y-75973830D01*
X106147138Y-76225149D01*
X106096752Y-76475167D01*
X106013086Y-76892031D01*
X105947704Y-77235322D01*
X105899336Y-77513848D01*
X105866712Y-77736414D01*
X105848560Y-77911824D01*
X105843612Y-78048886D01*
X105850595Y-78156405D01*
X105852369Y-78169045D01*
X105880936Y-78293088D01*
X105935435Y-78445251D01*
X106019701Y-78633285D01*
X106137572Y-78864941D01*
X106292883Y-79147970D01*
X106489472Y-79490123D01*
X106596315Y-79672032D01*
X106813738Y-80046871D01*
X107020966Y-80416895D01*
X107212507Y-80771446D01*
X107382869Y-81099867D01*
X107526563Y-81391503D01*
X107638095Y-81635695D01*
X107711975Y-81821788D01*
X107725676Y-81863703D01*
X107761227Y-82036280D01*
X107785085Y-82264676D01*
X107796875Y-82522589D01*
X107796221Y-82783720D01*
X107782750Y-83021769D01*
X107756086Y-83210435D01*
X107745485Y-83253380D01*
X107653138Y-83437356D01*
X107492661Y-83617615D01*
X107208640Y-83831118D01*
X106862717Y-84005798D01*
X106469233Y-84139646D01*
X106042531Y-84230650D01*
X105596952Y-84276802D01*
X105146839Y-84276089D01*
X104706533Y-84226503D01*
X104290378Y-84126034D01*
X104167108Y-84083721D01*
X103781888Y-83902552D01*
X103392732Y-83646469D01*
X103009516Y-83324087D01*
X102642115Y-82944025D01*
X102300403Y-82514899D01*
X102192956Y-82361022D01*
X102010346Y-82096016D01*
X101860926Y-81893716D01*
X101735281Y-81743665D01*
X101623997Y-81635403D01*
X101517660Y-81558471D01*
X101428670Y-81511933D01*
X101317327Y-81468924D01*
X101216043Y-81453908D01*
X101088848Y-81464255D01*
X100993264Y-81480081D01*
X100538660Y-81561866D01*
X100012638Y-81657187D01*
X99426984Y-81763892D01*
X98793480Y-81879828D01*
X98123910Y-82002845D01*
X97451334Y-82126860D01*
X97151581Y-82181860D01*
X96778848Y-82249646D01*
X96343540Y-82328354D01*
X95856068Y-82416119D01*
X95326838Y-82511077D01*
X94766258Y-82611363D01*
X94184737Y-82715113D01*
X93592682Y-82820462D01*
X93000503Y-82925546D01*
X92418605Y-83028501D01*
X92371334Y-83036851D01*
X91650290Y-83164242D01*
X91007635Y-83277924D01*
X90438363Y-83378815D01*
X89937469Y-83467831D01*
X89499948Y-83545887D01*
X89120794Y-83613902D01*
X88795002Y-83672791D01*
X88517567Y-83723471D01*
X88283483Y-83766858D01*
X88087746Y-83803868D01*
X87925348Y-83835420D01*
X87791287Y-83862428D01*
X87680555Y-83885809D01*
X87588148Y-83906480D01*
X87509060Y-83925358D01*
X87481834Y-83932157D01*
X87253496Y-83998715D01*
X87083299Y-84066981D01*
X86980401Y-84132637D01*
X86952667Y-84181774D01*
X86992564Y-84258077D01*
X87104024Y-84338948D01*
X87274701Y-84417658D01*
X87492248Y-84487480D01*
X87532911Y-84497959D01*
X87655778Y-84524304D01*
X87851954Y-84560912D01*
X88113813Y-84606634D01*
X88433728Y-84660323D01*
X88804072Y-84720833D01*
X89217218Y-84787016D01*
X89665540Y-84857725D01*
X90141411Y-84931813D01*
X90637204Y-85008133D01*
X91145292Y-85085538D01*
X91658048Y-85162880D01*
X92167846Y-85239013D01*
X92667059Y-85312788D01*
X93148059Y-85383061D01*
X93603221Y-85448682D01*
X94024918Y-85508505D01*
X94405522Y-85561383D01*
X94737407Y-85606169D01*
X95012946Y-85641715D01*
X95224513Y-85666874D01*
X95364480Y-85680500D01*
X95409558Y-85682667D01*
X95552651Y-85674151D01*
X95676807Y-85642514D01*
X95794267Y-85578621D01*
X95917275Y-85473337D01*
X96058070Y-85317528D01*
X96228896Y-85102059D01*
X96282843Y-85031028D01*
X96596758Y-84634982D01*
X96923975Y-84258611D01*
X97254657Y-83911450D01*
X97578964Y-83603036D01*
X97887057Y-83342905D01*
X98169098Y-83140594D01*
X98330569Y-83046288D01*
X98603724Y-82923955D01*
X98876192Y-82847712D01*
X99178168Y-82810811D01*
X99411334Y-82804735D01*
X99853355Y-82834466D01*
X100261032Y-82925609D01*
X100651058Y-83084038D01*
X101040125Y-83315630D01*
X101209138Y-83437547D01*
X101541046Y-83726736D01*
X101796854Y-84038387D01*
X101980135Y-84380546D01*
X102094461Y-84761261D01*
X102143403Y-85188580D01*
X102139902Y-85534500D01*
X102128584Y-85700860D01*
X102110609Y-85834385D01*
X102079087Y-85958809D01*
X102027126Y-86097864D01*
X101947836Y-86275283D01*
X101887934Y-86402334D01*
X101726803Y-86720544D01*
X101549121Y-87027714D01*
X101343934Y-87340390D01*
X101100291Y-87675117D01*
X100807238Y-88048440D01*
X100758012Y-88109197D01*
X100544513Y-88371720D01*
X100377860Y-88577793D01*
X100251845Y-88736949D01*
X100160262Y-88858722D01*
X100096903Y-88952644D01*
X100055562Y-89028249D01*
X100030030Y-89095070D01*
X100014100Y-89162641D01*
X100001566Y-89240495D01*
X99995572Y-89280178D01*
X99975644Y-89430651D01*
X99952434Y-89638554D01*
X99928774Y-89876874D01*
X99907494Y-90118594D01*
X99906756Y-90127667D01*
X99838944Y-90829436D01*
X99754325Y-91452613D01*
X99650371Y-92002059D01*
X99524553Y-92482633D01*
X99374343Y-92899199D01*
X99197213Y-93256618D01*
X98990633Y-93559749D01*
X98752076Y-93813456D01*
X98479012Y-94022598D01*
X98168914Y-94192038D01*
X97819253Y-94326636D01*
X97704642Y-94361413D01*
X97470198Y-94412121D01*
X97178528Y-94450410D01*
X96856345Y-94474959D01*
X96530359Y-94484449D01*
X96227282Y-94477561D01*
X95973823Y-94452976D01*
X95945415Y-94448324D01*
X95554728Y-94339820D01*
X95205400Y-94157589D01*
X94898048Y-93902127D01*
X94633289Y-93573926D01*
X94448525Y-93251118D01*
X94368707Y-93076661D01*
X94302283Y-92901113D01*
X94246325Y-92710947D01*
X94197902Y-92492633D01*
X94154086Y-92232645D01*
X94111946Y-91917453D01*
X94068554Y-91533529D01*
X94060916Y-91461167D01*
X94032008Y-91199581D01*
X94002551Y-90958560D01*
X93974721Y-90754114D01*
X93950696Y-90602255D01*
X93932950Y-90519912D01*
X93894893Y-90432628D01*
X93835149Y-90354544D01*
X93746425Y-90282955D01*
X93621427Y-90215151D01*
X93452862Y-90148425D01*
X93233437Y-90080070D01*
X92955857Y-90007378D01*
X92612829Y-89927641D01*
X92197061Y-89838151D01*
X91969167Y-89790866D01*
X91613463Y-89717341D01*
X91217663Y-89634905D01*
X90811449Y-89549780D01*
X90424501Y-89468189D01*
X90086501Y-89396354D01*
X90043000Y-89387050D01*
X89798374Y-89335101D01*
X89485612Y-89269353D01*
X89119544Y-89192886D01*
X88715001Y-89108784D01*
X88286815Y-89020126D01*
X87849815Y-88929993D01*
X87418833Y-88841468D01*
X87291334Y-88815358D01*
X86875164Y-88730056D01*
X86456963Y-88644075D01*
X86050015Y-88560163D01*
X85667605Y-88481071D01*
X85323018Y-88409548D01*
X85029537Y-88348342D01*
X84800447Y-88300205D01*
X84730167Y-88285299D01*
X84551248Y-88247328D01*
X84300003Y-88194191D01*
X83986966Y-88128108D01*
X83622675Y-88051300D01*
X83217664Y-87965986D01*
X82782469Y-87874385D01*
X82327626Y-87778718D01*
X81863672Y-87681204D01*
X81618667Y-87629738D01*
X81098814Y-87520450D01*
X80537826Y-87402316D01*
X79953421Y-87279080D01*
X79363317Y-87154484D01*
X78785230Y-87032272D01*
X78236879Y-86916188D01*
X77735980Y-86809974D01*
X77300667Y-86717463D01*
X76779219Y-86607257D01*
X76331490Y-86514863D01*
X75948653Y-86439260D01*
X75621880Y-86379427D01*
X75342344Y-86334342D01*
X75101219Y-86302983D01*
X74889678Y-86284331D01*
X74698892Y-86277362D01*
X74520037Y-86281056D01*
X74344284Y-86294392D01*
X74162806Y-86316348D01*
X74018578Y-86337710D01*
X73885510Y-86360313D01*
X73676796Y-86398193D01*
X73399791Y-86449903D01*
X73061849Y-86513996D01*
X72670322Y-86589027D01*
X72232566Y-86673549D01*
X71755933Y-86766116D01*
X71247778Y-86865282D01*
X70715454Y-86969601D01*
X70166314Y-87077625D01*
X69607714Y-87187909D01*
X69047005Y-87299007D01*
X68491543Y-87409473D01*
X67948681Y-87517859D01*
X67425772Y-87622720D01*
X66930171Y-87722609D01*
X66469230Y-87816081D01*
X66050305Y-87901689D01*
X65722500Y-87969317D01*
X65035076Y-88111876D01*
X64403174Y-88242791D01*
X63815117Y-88364458D01*
X63259230Y-88479275D01*
X62723837Y-88589637D01*
X62197261Y-88697941D01*
X61667828Y-88806582D01*
X61123860Y-88917958D01*
X60553682Y-89034465D01*
X59945617Y-89158498D01*
X59287991Y-89292455D01*
X58569126Y-89438732D01*
X57890834Y-89576655D01*
X57338551Y-89689008D01*
X56796045Y-89799529D01*
X56271059Y-89906630D01*
X55771335Y-90008726D01*
X55304617Y-90104230D01*
X54878647Y-90191555D01*
X54501170Y-90269115D01*
X54179926Y-90335324D01*
X53922661Y-90388594D01*
X53737115Y-90427340D01*
X53678667Y-90439702D01*
X53392485Y-90500196D01*
X53084276Y-90564582D01*
X52785291Y-90626380D01*
X52526781Y-90679106D01*
X52451000Y-90694347D01*
X51891735Y-90808409D01*
X51391924Y-90914790D01*
X50955509Y-91012543D01*
X50586434Y-91100723D01*
X50288644Y-91178383D01*
X50066081Y-91244576D01*
X49922689Y-91298356D01*
X49911000Y-91303926D01*
X49791926Y-91369198D01*
X49694239Y-91442309D01*
X49613957Y-91533296D01*
X49547100Y-91652196D01*
X49489687Y-91809045D01*
X49437736Y-92013881D01*
X49387266Y-92276740D01*
X49334296Y-92607658D01*
X49299184Y-92846333D01*
X49240993Y-93240837D01*
X49189703Y-93563922D01*
X49142299Y-93828255D01*
X49095766Y-94046502D01*
X49047089Y-94231328D01*
X48993252Y-94395398D01*
X48931239Y-94551380D01*
X48858036Y-94711938D01*
X48852060Y-94724414D01*
X48646049Y-95081220D01*
X48405339Y-95368923D01*
X48134702Y-95582009D01*
X48084247Y-95611423D01*
X47857834Y-95736834D01*
X46926500Y-95746007D01*
X46555750Y-95747397D01*
X46262593Y-95743270D01*
X46040119Y-95733346D01*
X45881416Y-95717350D01*
X45797994Y-95700627D01*
X45463700Y-95565099D01*
X45155391Y-95353936D01*
X44881255Y-95074276D01*
X44649484Y-94733261D01*
X44614397Y-94668773D01*
X44463719Y-94382167D01*
X44497264Y-92138500D01*
X44530810Y-89894834D01*
X44241153Y-89238667D01*
X44129169Y-88980787D01*
X44015473Y-88711667D01*
X43910704Y-88456975D01*
X43825506Y-88242380D01*
X43796811Y-88166873D01*
X43576291Y-87493742D01*
X43430265Y-86859718D01*
X43358719Y-86264988D01*
X43361635Y-85709740D01*
X43438996Y-85194162D01*
X43590787Y-84718441D01*
X43816991Y-84282765D01*
X44117590Y-83887322D01*
X44180813Y-83819156D01*
X44525302Y-83496809D01*
X44896737Y-83218124D01*
X45285398Y-82986408D01*
X45681565Y-82804965D01*
X46075518Y-82677100D01*
X46457536Y-82606118D01*
X46817898Y-82595324D01*
X47146884Y-82648022D01*
X47372695Y-82733941D01*
X47725530Y-82950390D01*
X48040965Y-83230913D01*
X48214751Y-83430467D01*
X48339361Y-83595453D01*
X48447835Y-83762734D01*
X48544776Y-83943936D01*
X48634789Y-84150686D01*
X48722478Y-84394610D01*
X48812445Y-84687334D01*
X48909294Y-85040484D01*
X49012523Y-85445158D01*
X49085385Y-85737304D01*
X49151352Y-86000968D01*
X49207733Y-86225459D01*
X49251835Y-86400090D01*
X49280969Y-86514172D01*
X49292443Y-86557015D01*
X49292477Y-86557076D01*
X49334078Y-86557297D01*
X49446603Y-86553843D01*
X49616416Y-86547240D01*
X49829878Y-86538013D01*
X50038000Y-86528377D01*
X50188217Y-86520515D01*
X50339736Y-86510858D01*
X50498016Y-86498676D01*
X50668511Y-86483240D01*
X50856678Y-86463820D01*
X51067974Y-86439685D01*
X51307854Y-86410106D01*
X51581776Y-86374352D01*
X51895194Y-86331694D01*
X52253567Y-86281403D01*
X52662349Y-86222747D01*
X53126997Y-86154997D01*
X53652967Y-86077424D01*
X54245716Y-85989297D01*
X54910699Y-85889886D01*
X55653374Y-85778461D01*
X55731834Y-85766674D01*
X56302402Y-85680980D01*
X56921827Y-85588011D01*
X57572508Y-85490405D01*
X58236844Y-85390800D01*
X58897236Y-85291835D01*
X59536083Y-85196146D01*
X60135785Y-85106372D01*
X60678741Y-85025150D01*
X60938834Y-84986271D01*
X61384775Y-84919575D01*
X61808749Y-84856060D01*
X62202799Y-84796925D01*
X62558970Y-84743367D01*
X62869306Y-84696587D01*
X63125850Y-84657783D01*
X63320647Y-84628153D01*
X63445742Y-84608898D01*
X63489417Y-84601919D01*
X63574809Y-84580983D01*
X63614742Y-84539936D01*
X63626401Y-84452443D01*
X63627000Y-84391071D01*
X63616345Y-84259049D01*
X63578270Y-84184413D01*
X63542914Y-84158977D01*
X63457760Y-84130754D01*
X63293341Y-84093616D01*
X63054501Y-84048370D01*
X62746083Y-83995819D01*
X62372929Y-83936770D01*
X61939882Y-83872026D01*
X61451785Y-83802392D01*
X61129334Y-83757892D01*
X60904339Y-83726604D01*
X60603899Y-83683885D01*
X60236283Y-83630961D01*
X59809760Y-83569057D01*
X59332600Y-83499400D01*
X58813074Y-83423215D01*
X58259449Y-83341728D01*
X57679997Y-83256165D01*
X57082986Y-83167751D01*
X56476687Y-83077713D01*
X55869368Y-82987276D01*
X55269300Y-82897667D01*
X54684752Y-82810110D01*
X54123993Y-82725831D01*
X53595294Y-82646058D01*
X53106924Y-82572014D01*
X52667152Y-82504927D01*
X52408667Y-82465228D01*
X52107522Y-82419426D01*
X51740972Y-82364650D01*
X51327468Y-82303601D01*
X50885462Y-82238978D01*
X50433406Y-82173482D01*
X49989753Y-82109813D01*
X49657000Y-82062535D01*
X49243343Y-82003606D01*
X48815615Y-81941844D01*
X48390475Y-81879711D01*
X47984579Y-81819669D01*
X47614585Y-81764181D01*
X47297149Y-81715707D01*
X47074667Y-81680834D01*
X46475734Y-81588604D01*
X45951027Y-81514999D01*
X45502420Y-81460239D01*
X45131789Y-81424546D01*
X44841012Y-81408144D01*
X44760249Y-81407000D01*
X44654016Y-81406674D01*
X44568988Y-81411152D01*
X44497226Y-81428616D01*
X44430794Y-81467247D01*
X44361755Y-81535228D01*
X44282172Y-81640741D01*
X44184107Y-81791969D01*
X44059623Y-81997093D01*
X43900783Y-82264296D01*
X43856809Y-82338334D01*
X43641941Y-82695492D01*
X43456530Y-82992196D01*
X43290180Y-83242688D01*
X43132496Y-83461215D01*
X42973082Y-83662020D01*
X42801541Y-83859348D01*
X42607477Y-84067445D01*
X42555228Y-84121782D01*
X42197498Y-84467881D01*
X41862618Y-84740405D01*
X41543037Y-84944795D01*
X41231205Y-85086498D01*
X41204129Y-85096063D01*
X41088222Y-85133429D01*
X40979422Y-85160139D01*
X40860173Y-85177910D01*
X40712921Y-85188458D01*
X40520112Y-85193499D01*
X40264192Y-85194749D01*
X40195500Y-85194682D01*
X39925594Y-85193353D01*
X39721933Y-85189006D01*
X39566101Y-85179622D01*
X39439683Y-85163183D01*
X39324262Y-85137669D01*
X39201423Y-85101059D01*
X39131641Y-85078022D01*
X38739590Y-84908433D01*
X38355997Y-84670522D01*
X38003970Y-84379357D01*
X37898434Y-84273910D01*
X37698972Y-84040875D01*
X37553437Y-83811035D01*
X37461915Y-83575301D01*
X37424492Y-83324586D01*
X37441254Y-83049801D01*
X37512285Y-82741859D01*
X37637673Y-82391670D01*
X37817502Y-81990148D01*
X37921957Y-81778934D01*
X38103487Y-81433062D01*
X38286256Y-81113205D01*
X38482299Y-80800797D01*
X38703655Y-80477276D01*
X38962360Y-80124078D01*
X39178752Y-79840667D01*
X39348398Y-79618870D01*
X39515823Y-79395539D01*
X39667520Y-79189006D01*
X39789980Y-79017605D01*
X39851951Y-78927018D01*
X40050311Y-78627203D01*
X39923169Y-77923283D01*
X39818927Y-77283730D01*
X39751197Y-76713605D01*
X39720787Y-76205566D01*
X39728505Y-75752271D01*
X39775161Y-75346378D01*
X39861561Y-74980545D01*
X39988515Y-74647430D01*
X40156832Y-74339691D01*
X40346853Y-74075230D01*
X40694309Y-73704255D01*
X41084823Y-73405259D01*
X41522655Y-73175486D01*
X41975956Y-73021529D01*
X42225160Y-72969900D01*
X42515625Y-72932155D01*
X42821391Y-72909685D01*
X43116494Y-72903884D01*
X43374974Y-72916145D01*
X43529783Y-72938157D01*
X43885493Y-73050353D01*
X44232613Y-73230639D01*
X44552843Y-73465367D01*
X44827885Y-73740887D01*
X45039441Y-74043550D01*
X45058202Y-74078203D01*
X45164971Y-74304985D01*
X45256992Y-74554978D01*
X45336390Y-74838337D01*
X45405291Y-75165215D01*
X45465820Y-75545768D01*
X45520103Y-75990150D01*
X45570263Y-76508516D01*
X45572698Y-76536523D01*
X45604743Y-76889796D01*
X45636412Y-77168713D01*
X45673239Y-77383381D01*
X45720755Y-77543904D01*
X45784494Y-77660387D01*
X45869988Y-77742936D01*
X45982768Y-77801656D01*
X46128368Y-77846652D01*
X46312321Y-77888030D01*
X46312667Y-77888102D01*
X46433182Y-77912689D01*
X46577645Y-77940885D01*
X46749908Y-77973350D01*
X46953818Y-78010747D01*
X47193226Y-78053734D01*
X47471981Y-78102975D01*
X47793931Y-78159129D01*
X48162928Y-78222857D01*
X48582819Y-78294821D01*
X49057456Y-78375681D01*
X49590686Y-78466099D01*
X50186359Y-78566735D01*
X50848325Y-78678250D01*
X51580434Y-78801305D01*
X52386534Y-78936561D01*
X53270475Y-79084680D01*
X53721000Y-79160113D01*
X54424899Y-79277954D01*
X55157738Y-79400657D01*
X55908869Y-79526440D01*
X56667641Y-79653517D01*
X57423406Y-79780106D01*
X58165514Y-79904422D01*
X58883315Y-80024680D01*
X59566160Y-80139098D01*
X60203400Y-80245891D01*
X60784385Y-80343274D01*
X61298465Y-80429465D01*
X61552667Y-80472095D01*
X62681646Y-80660940D01*
X63737596Y-80836474D01*
X64730819Y-81000364D01*
X65671617Y-81154278D01*
X66570293Y-81299882D01*
X67437148Y-81438842D01*
X68282486Y-81572826D01*
X69116608Y-81703500D01*
X69949816Y-81832531D01*
X70188667Y-81869254D01*
X70627489Y-81936822D01*
X71078154Y-82006586D01*
X71525796Y-82076220D01*
X71955548Y-82143396D01*
X72352542Y-82205789D01*
X72701912Y-82261073D01*
X72988791Y-82306920D01*
X73088500Y-82323035D01*
X73423144Y-82376280D01*
X73695068Y-82416184D01*
X73924844Y-82444624D01*
X74133041Y-82463472D01*
X74340229Y-82474605D01*
X74566977Y-82479896D01*
X74824167Y-82481220D01*
X75212247Y-82476642D01*
X75532465Y-82462119D01*
X75801154Y-82436621D01*
X75988334Y-82407932D01*
X76281427Y-82352731D01*
X76655121Y-82279422D01*
X77107404Y-82188432D01*
X77636262Y-82080189D01*
X78239684Y-81955122D01*
X78915658Y-81813658D01*
X79662171Y-81656226D01*
X80477211Y-81483254D01*
X81358767Y-81295170D01*
X82304825Y-81092401D01*
X83313373Y-80875376D01*
X84382401Y-80644523D01*
X85509894Y-80400270D01*
X86693841Y-80143045D01*
X87932231Y-79873277D01*
X89035836Y-79632316D01*
X89681001Y-79490841D01*
X90368774Y-79339159D01*
X91090095Y-79179315D01*
X91835902Y-79013354D01*
X92597135Y-78843321D01*
X93364731Y-78671259D01*
X94129630Y-78499213D01*
X94882771Y-78329228D01*
X95615093Y-78163349D01*
X96317535Y-78003619D01*
X96981035Y-77852083D01*
X97596532Y-77710787D01*
X98154965Y-77581773D01*
X98647274Y-77467088D01*
X98999563Y-77384154D01*
X99430130Y-77273481D01*
X99776222Y-77165443D01*
X100037988Y-77059981D01*
X100215575Y-76957035D01*
X100301371Y-76870024D01*
X100333449Y-76791930D01*
X100375888Y-76650152D01*
X100423373Y-76464206D01*
X100470583Y-76253610D01*
X100474644Y-76234081D01*
X100612881Y-75664694D01*
X100785525Y-75119310D01*
X100986408Y-74613858D01*
X101209364Y-74164267D01*
X101390177Y-73869152D01*
X101491504Y-73737379D01*
X101633854Y-73574813D01*
X101794649Y-73406541D01*
X101889838Y-73313980D01*
X102276536Y-73000088D01*
X102687255Y-72765645D01*
X103128194Y-72608233D01*
X103605551Y-72525434D01*
X103949500Y-72510499D01*
X104441638Y-72536552D01*
G36*
X96063611Y-43099566D02*
G01*
X96436369Y-43295681D01*
X96746825Y-43481774D01*
X97014125Y-43670957D01*
X97257414Y-43876337D01*
X97405399Y-44018365D01*
X97793919Y-44456949D01*
X98099480Y-44911639D01*
X98322308Y-45382786D01*
X98359737Y-45487167D01*
X98396038Y-45640312D01*
X98428372Y-45870434D01*
X98455810Y-46169899D01*
X98470536Y-46397334D01*
X98474784Y-46511857D01*
X98479330Y-46706423D01*
X98484133Y-46976408D01*
X98489151Y-47317188D01*
X98494340Y-47724139D01*
X98499659Y-48192639D01*
X98505065Y-48718063D01*
X98510517Y-49295788D01*
X98515971Y-49921190D01*
X98521387Y-50589646D01*
X98526720Y-51296532D01*
X98531930Y-52037224D01*
X98536974Y-52807099D01*
X98541810Y-53601534D01*
X98546395Y-54415904D01*
X98549839Y-55075667D01*
X98554119Y-55896952D01*
X98558578Y-56698735D01*
X98563178Y-57476632D01*
X98567884Y-58226264D01*
X98572659Y-58943247D01*
X98577468Y-59623200D01*
X98582273Y-60261742D01*
X98587038Y-60854491D01*
X98591727Y-61397065D01*
X98596304Y-61885083D01*
X98600732Y-62314162D01*
X98604975Y-62679921D01*
X98608997Y-62977979D01*
X98612761Y-63203953D01*
X98616232Y-63353463D01*
X98618988Y-63417987D01*
X98647938Y-63780473D01*
X98877590Y-63900712D01*
X99079341Y-64014650D01*
X99215767Y-64118620D01*
X99301138Y-64231520D01*
X99349722Y-64372249D01*
X99375789Y-64559704D01*
X99375873Y-64560636D01*
X99380199Y-64649923D01*
X99384501Y-64817150D01*
X99388718Y-65055592D01*
X99392791Y-65358522D01*
X99396659Y-65719213D01*
X99400263Y-66130941D01*
X99403542Y-66586977D01*
X99406437Y-67080597D01*
X99408888Y-67605075D01*
X99410835Y-68153683D01*
X99412011Y-68615739D01*
X99419834Y-72355645D01*
X99300819Y-72450568D01*
X99202253Y-72516989D01*
X99057608Y-72600368D01*
X98897962Y-72682804D01*
X98895863Y-72683820D01*
X98609922Y-72822149D01*
X98539185Y-73505658D01*
X98508841Y-73765120D01*
X98472778Y-74020734D01*
X98434708Y-74249141D01*
X98398346Y-74426983D01*
X98383621Y-74483979D01*
X98190469Y-75004376D01*
X97918895Y-75494784D01*
X97568296Y-75956143D01*
X97201878Y-76331540D01*
X97031253Y-76482289D01*
X96868063Y-76608917D01*
X96702853Y-76713769D01*
X96526163Y-76799188D01*
X96328536Y-76867518D01*
X96100513Y-76921104D01*
X95832638Y-76962289D01*
X95515452Y-76993418D01*
X95139497Y-77016834D01*
X94695315Y-77034882D01*
X94318667Y-77046119D01*
X94174091Y-77048875D01*
X93948172Y-77051615D01*
X93644236Y-77054334D01*
X93265608Y-77057028D01*
X92815611Y-77059694D01*
X92297570Y-77062327D01*
X91714811Y-77064925D01*
X91070656Y-77067482D01*
X90368432Y-77069996D01*
X89611463Y-77072461D01*
X88803073Y-77074876D01*
X87946587Y-77077235D01*
X87045330Y-77079535D01*
X86102625Y-77081772D01*
X85121799Y-77083942D01*
X84106174Y-77086042D01*
X83059077Y-77088067D01*
X81983831Y-77090014D01*
X80883762Y-77091878D01*
X79762193Y-77093657D01*
X78622449Y-77095346D01*
X77467855Y-77096941D01*
X76301736Y-77098439D01*
X75127416Y-77099835D01*
X73948219Y-77101126D01*
X72767471Y-77102308D01*
X71588496Y-77103378D01*
X70414619Y-77104331D01*
X69249163Y-77105163D01*
X68095454Y-77105871D01*
X66956817Y-77106450D01*
X65836575Y-77106898D01*
X64738054Y-77107210D01*
X63664578Y-77107382D01*
X62619472Y-77107410D01*
X61606060Y-77107292D01*
X60627667Y-77107022D01*
X59687618Y-77106597D01*
X58789237Y-77106013D01*
X57935848Y-77105267D01*
X57130777Y-77104354D01*
X56377347Y-77103270D01*
X55678884Y-77102013D01*
X55038713Y-77100577D01*
X54460157Y-77098960D01*
X53946541Y-77097157D01*
X53501190Y-77095164D01*
X53213000Y-77093537D01*
X49127834Y-77067834D01*
X48746834Y-76860965D01*
X48310933Y-76608347D01*
X47947537Y-76360381D01*
X47645784Y-76106926D01*
X47394814Y-75837840D01*
X47183768Y-75542980D01*
X47019140Y-75247500D01*
X46823102Y-74772389D01*
X46674933Y-74230505D01*
X46660816Y-74144927D01*
X57821820Y-74144927D01*
X57827828Y-74513521D01*
X57912276Y-74883646D01*
X57991555Y-75080524D01*
X58195358Y-75423504D01*
X58452963Y-75705728D01*
X58755795Y-75922879D01*
X59095276Y-76070638D01*
X59462829Y-76144686D01*
X59849878Y-76140706D01*
X60037166Y-76110425D01*
X60402445Y-75991961D01*
X60728858Y-75803035D01*
X61008601Y-75551951D01*
X61233866Y-75247011D01*
X61396849Y-74896519D01*
X61479322Y-74576440D01*
X61498930Y-74220535D01*
X61442301Y-73864048D01*
X61380134Y-73694253D01*
X63722808Y-73694253D01*
X63770873Y-73984426D01*
X63890411Y-74309139D01*
X64065600Y-74617135D01*
X64281988Y-74888313D01*
X64525126Y-75102570D01*
X64617912Y-75162773D01*
X64925069Y-75297418D01*
X65278771Y-75373710D01*
X65662162Y-75389410D01*
X66021642Y-75349334D01*
X66379960Y-75244025D01*
X66689849Y-75072789D01*
X66947421Y-74841700D01*
X67148794Y-74556833D01*
X67290080Y-74224261D01*
X67367396Y-73850058D01*
X67373250Y-73596500D01*
X77724827Y-73596500D01*
X77726309Y-73830283D01*
X77732573Y-73999605D01*
X77746343Y-74124648D01*
X77770347Y-74225592D01*
X77807310Y-74322618D01*
X77829542Y-74371765D01*
X77950165Y-74570187D01*
X78124234Y-74779878D01*
X78328176Y-74976941D01*
X78538420Y-75137481D01*
X78647981Y-75201441D01*
X79028767Y-75353251D01*
X79406653Y-75422075D01*
X79778511Y-75407499D01*
X79945020Y-75373107D01*
X80126666Y-75314981D01*
X80313904Y-75238627D01*
X80401348Y-75195449D01*
X80630052Y-75036001D01*
X80853747Y-74817397D01*
X81059011Y-74559035D01*
X81232425Y-74280311D01*
X81256945Y-74226792D01*
X83546584Y-74226792D01*
X83556029Y-74351076D01*
X83586305Y-74519066D01*
X83591421Y-74544167D01*
X83713455Y-74965445D01*
X83893741Y-75327830D01*
X84130482Y-75629241D01*
X84421880Y-75867597D01*
X84766137Y-76040818D01*
X84931279Y-76095128D01*
X85184730Y-76139869D01*
X85472769Y-76148092D01*
X85764539Y-76122028D01*
X86029186Y-76063908D01*
X86183273Y-76004616D01*
X86369885Y-75888576D01*
X86577465Y-75719779D01*
X86784985Y-75518985D01*
X86971417Y-75306953D01*
X87115732Y-75104442D01*
X87143167Y-75057000D01*
X87199506Y-74948136D01*
X87236169Y-74853915D01*
X87257354Y-74751235D01*
X87267258Y-74616993D01*
X87270076Y-74428085D01*
X87270167Y-74357832D01*
X87268676Y-74148267D01*
X87261047Y-73998321D01*
X87242549Y-73882960D01*
X87208449Y-73777146D01*
X87154013Y-73655846D01*
X87126992Y-73600446D01*
X87002315Y-73391790D01*
X86834455Y-73172550D01*
X86642871Y-72963698D01*
X86447018Y-72786202D01*
X86266353Y-72661034D01*
X86244754Y-72649576D01*
X86070894Y-72584770D01*
X85842322Y-72532115D01*
X85588645Y-72496106D01*
X85339471Y-72481235D01*
X85172018Y-72486774D01*
X84931230Y-72534258D01*
X84692005Y-72637937D01*
X84442144Y-72804608D01*
X84169450Y-73041072D01*
X84158056Y-73051924D01*
X83957250Y-73256172D01*
X83812055Y-73438855D01*
X83707203Y-73624715D01*
X83627422Y-73838492D01*
X83589800Y-73972667D01*
X83557873Y-74112045D01*
X83546584Y-74226792D01*
X81256945Y-74226792D01*
X81360569Y-74000621D01*
X81430023Y-73739361D01*
X81434652Y-73701961D01*
X81423599Y-73439495D01*
X81344778Y-73148461D01*
X81204076Y-72842041D01*
X81007380Y-72533421D01*
X80798115Y-72276509D01*
X80608247Y-72086950D01*
X80425603Y-71956155D01*
X80223277Y-71870459D01*
X79974363Y-71816197D01*
X79861834Y-71800960D01*
X79505941Y-71767470D01*
X79214080Y-71764864D01*
X78969623Y-71798289D01*
X78755940Y-71872895D01*
X78556404Y-71993829D01*
X78354386Y-72166241D01*
X78210088Y-72312353D01*
X78028074Y-72515310D01*
X77897465Y-72692484D01*
X77810049Y-72865605D01*
X77757615Y-73056406D01*
X77731950Y-73286616D01*
X77724843Y-73577968D01*
X77724827Y-73596500D01*
X67373250Y-73596500D01*
X67376857Y-73440300D01*
X67359483Y-73257676D01*
X67325407Y-73060715D01*
X67278367Y-72874249D01*
X67227332Y-72733121D01*
X67221247Y-72720657D01*
X67109345Y-72550042D01*
X66946280Y-72361188D01*
X66755224Y-72176388D01*
X66559348Y-72017936D01*
X66381822Y-71908124D01*
X66371758Y-71903335D01*
X66271819Y-71860170D01*
X66177484Y-71830656D01*
X66069314Y-71812225D01*
X65927869Y-71802311D01*
X65733708Y-71798347D01*
X65572062Y-71797747D01*
X65336215Y-71798698D01*
X65165907Y-71803711D01*
X65042020Y-71815430D01*
X64945439Y-71836498D01*
X64857047Y-71869559D01*
X64776703Y-71907755D01*
X64458286Y-72109056D01*
X64189222Y-72364945D01*
X63975327Y-72663416D01*
X63822416Y-72992462D01*
X63736305Y-73340076D01*
X63722808Y-73694253D01*
X61380134Y-73694253D01*
X61316631Y-73520812D01*
X61129112Y-73204660D01*
X60886940Y-72929426D01*
X60597308Y-72708941D01*
X60472511Y-72640519D01*
X60361736Y-72587293D01*
X60270930Y-72551181D01*
X60180262Y-72529424D01*
X60069902Y-72519260D01*
X59920022Y-72517931D01*
X59710789Y-72522674D01*
X59640294Y-72524674D01*
X59405162Y-72532714D01*
X59235045Y-72543370D01*
X59110292Y-72559971D01*
X59011255Y-72585845D01*
X58918284Y-72624323D01*
X58850098Y-72658553D01*
X58514597Y-72876507D01*
X58240640Y-73143654D01*
X58031605Y-73450461D01*
X57890872Y-73787397D01*
X57821820Y-74144927D01*
X46660816Y-74144927D01*
X46574286Y-73620402D01*
X46539971Y-73267326D01*
X46511675Y-72895819D01*
X46080367Y-72664468D01*
X45649060Y-72433117D01*
X45621030Y-70965308D01*
X45611814Y-70415097D01*
X45604615Y-69842766D01*
X45599407Y-69258128D01*
X45596165Y-68670994D01*
X45594864Y-68091178D01*
X45595476Y-67528492D01*
X45597977Y-66992747D01*
X45602341Y-66493757D01*
X45608542Y-66041335D01*
X45616554Y-65645292D01*
X45626352Y-65315440D01*
X45636442Y-65087500D01*
X45653793Y-64787807D01*
X45672716Y-64559729D01*
X45699463Y-64390346D01*
X45740283Y-64266737D01*
X45801429Y-64175980D01*
X45889151Y-64105155D01*
X46009700Y-64041339D01*
X46169328Y-63971612D01*
X46178080Y-63967895D01*
X46336442Y-63894956D01*
X46464103Y-63825578D01*
X46540945Y-63771121D01*
X46552868Y-63756228D01*
X46555940Y-63708154D01*
X46559075Y-63579329D01*
X46562254Y-63373673D01*
X46565455Y-63095101D01*
X46568660Y-62747531D01*
X46571847Y-62334881D01*
X46574996Y-61861066D01*
X46578087Y-61330005D01*
X46581100Y-60745614D01*
X46584015Y-60111810D01*
X46586811Y-59432512D01*
X46588146Y-59070121D01*
X55590637Y-59070121D01*
X55593145Y-59415659D01*
X55595219Y-59499500D01*
X55604060Y-59777463D01*
X55615069Y-59990133D01*
X55630676Y-60156886D01*
X55653308Y-60297095D01*
X55685394Y-60430135D01*
X55729362Y-60575380D01*
X55730526Y-60579000D01*
X55938262Y-61121021D01*
X56196724Y-61606068D01*
X56512450Y-62042077D01*
X56891978Y-62436986D01*
X57341847Y-62798732D01*
X57806412Y-63099062D01*
X58238869Y-63329085D01*
X58637740Y-63490991D01*
X58997900Y-63582711D01*
X59009584Y-63584599D01*
X59177942Y-63601933D01*
X59403423Y-63611907D01*
X59668262Y-63615061D01*
X59954693Y-63611933D01*
X60244951Y-63603062D01*
X60521271Y-63588989D01*
X60765888Y-63570251D01*
X60961036Y-63547389D01*
X61087000Y-63521553D01*
X61422828Y-63391454D01*
X61788745Y-63204647D01*
X62166012Y-62973590D01*
X62535888Y-62710742D01*
X62879634Y-62428563D01*
X63178511Y-62139509D01*
X63199067Y-62117389D01*
X63522416Y-61704555D01*
X63783191Y-61237940D01*
X63979577Y-60722729D01*
X64109758Y-60164104D01*
X64171919Y-59567252D01*
X64177334Y-59323706D01*
X64139615Y-58712070D01*
X64052285Y-58270310D01*
X67023454Y-58270310D01*
X67024320Y-58624035D01*
X67027504Y-58951987D01*
X67033149Y-59243122D01*
X67041397Y-59486395D01*
X67047076Y-59595514D01*
X67064929Y-59843079D01*
X67085477Y-60055760D01*
X67107004Y-60219439D01*
X67127798Y-60319997D01*
X67137776Y-60342683D01*
X67193621Y-60371498D01*
X67313356Y-60395305D01*
X67504111Y-60415137D01*
X67745575Y-60430606D01*
X67869348Y-60435207D01*
X68071571Y-60440282D01*
X68346032Y-60445762D01*
X68686515Y-60451579D01*
X69086807Y-60457665D01*
X69540694Y-60463950D01*
X70041962Y-60470367D01*
X70584396Y-60476847D01*
X71161783Y-60483322D01*
X71767909Y-60489722D01*
X72396559Y-60495980D01*
X73041520Y-60502027D01*
X73696578Y-60507795D01*
X74355517Y-60513215D01*
X75012126Y-60518218D01*
X75660189Y-60522737D01*
X76293492Y-60526702D01*
X76644500Y-60528683D01*
X77787500Y-60534859D01*
X77897949Y-60377013D01*
X77949215Y-60302271D01*
X77992164Y-60231867D01*
X78027527Y-60157861D01*
X78056037Y-60072313D01*
X78078425Y-59967284D01*
X78095422Y-59834834D01*
X78107761Y-59667023D01*
X78116173Y-59455912D01*
X78121003Y-59213007D01*
X80903706Y-59213007D01*
X80919515Y-59720476D01*
X80984064Y-60218243D01*
X81096542Y-60680588D01*
X81097557Y-60683832D01*
X81300291Y-61193088D01*
X81578451Y-61679050D01*
X81924123Y-62133337D01*
X82329390Y-62547568D01*
X82786337Y-62913362D01*
X83287048Y-63222339D01*
X83666008Y-63403145D01*
X83841180Y-63472957D01*
X84003621Y-63526273D01*
X84168417Y-63564964D01*
X84350657Y-63590900D01*
X84565427Y-63605952D01*
X84827816Y-63611990D01*
X85152910Y-63610885D01*
X85322834Y-63608569D01*
X85625256Y-63602796D01*
X85858562Y-63595206D01*
X86038301Y-63584329D01*
X86180024Y-63568695D01*
X86299281Y-63546834D01*
X86411621Y-63517276D01*
X86465834Y-63500505D01*
X86941147Y-63309356D01*
X87414965Y-63043524D01*
X87873063Y-62712030D01*
X88266422Y-62358781D01*
X88668869Y-61909366D01*
X88990824Y-61438298D01*
X89235035Y-60939392D01*
X89404252Y-60406461D01*
X89501225Y-59833322D01*
X89523433Y-59530786D01*
X89511708Y-58919330D01*
X89421479Y-58339087D01*
X89253571Y-57791687D01*
X89008810Y-57278760D01*
X88688021Y-56801936D01*
X88292030Y-56362844D01*
X87821662Y-55963115D01*
X87655941Y-55844037D01*
X87186844Y-55551437D01*
X86732976Y-55333945D01*
X86282254Y-55186530D01*
X85902239Y-55113837D01*
X85677598Y-55093094D01*
X85408482Y-55082547D01*
X85114454Y-55081518D01*
X84815075Y-55089330D01*
X84529907Y-55105304D01*
X84278511Y-55128764D01*
X84080448Y-55159031D01*
X83996309Y-55179875D01*
X83490300Y-55379650D01*
X83004057Y-55652205D01*
X82546841Y-55987915D01*
X82127910Y-56377156D01*
X81756523Y-56810305D01*
X81441939Y-57277738D01*
X81193418Y-57769831D01*
X81021550Y-58271834D01*
X80937448Y-58721553D01*
X80903706Y-59213007D01*
X78121003Y-59213007D01*
X78121390Y-59193561D01*
X78124145Y-58872030D01*
X78125167Y-58483379D01*
X78125190Y-58019668D01*
X78125137Y-57912000D01*
X78124630Y-57446151D01*
X78123465Y-57057306D01*
X78121385Y-56737805D01*
X78118128Y-56479984D01*
X78113437Y-56276185D01*
X78107051Y-56118744D01*
X78098710Y-56000000D01*
X78088157Y-55912293D01*
X78075131Y-55847961D01*
X78059372Y-55799342D01*
X78053101Y-55784481D01*
X77963437Y-55649483D01*
X77863631Y-55579000D01*
X77779270Y-55557564D01*
X77639844Y-55538442D01*
X77442915Y-55521591D01*
X77186044Y-55506967D01*
X76866793Y-55494528D01*
X76482723Y-55484229D01*
X76031395Y-55476029D01*
X75510371Y-55469884D01*
X74917213Y-55465750D01*
X74249482Y-55463585D01*
X73504739Y-55463346D01*
X72680546Y-55464989D01*
X71774464Y-55468471D01*
X71649167Y-55469063D01*
X70918127Y-55472807D01*
X70267650Y-55476634D01*
X69693631Y-55480614D01*
X69191967Y-55484815D01*
X68758555Y-55489309D01*
X68389289Y-55494163D01*
X68080066Y-55499449D01*
X67826783Y-55505234D01*
X67625335Y-55511589D01*
X67471618Y-55518582D01*
X67361528Y-55526284D01*
X67290962Y-55534765D01*
X67257213Y-55543408D01*
X67145873Y-55640444D01*
X67096554Y-55749153D01*
X67082946Y-55837881D01*
X67070379Y-56000228D01*
X67058993Y-56225149D01*
X67048931Y-56501602D01*
X67040335Y-56818542D01*
X67033347Y-57164927D01*
X67028110Y-57529712D01*
X67024765Y-57901854D01*
X67023454Y-58270310D01*
X64052285Y-58270310D01*
X64026096Y-58137839D01*
X63836233Y-57599626D01*
X63569481Y-57096042D01*
X63225296Y-56625698D01*
X63038004Y-56417168D01*
X62623965Y-56024554D01*
X62196975Y-55704685D01*
X61747384Y-55453617D01*
X61265541Y-55267407D01*
X60741797Y-55142111D01*
X60166503Y-55073786D01*
X59711167Y-55057631D01*
X59421217Y-55062337D01*
X59170386Y-55083680D01*
X58937397Y-55127098D01*
X58700978Y-55198027D01*
X58439853Y-55301905D01*
X58132748Y-55444168D01*
X58060167Y-55479555D01*
X57508888Y-55791070D01*
X57025755Y-56152032D01*
X56608600Y-56564724D01*
X56255255Y-57031430D01*
X55963553Y-57554434D01*
X55854080Y-57803209D01*
X55753949Y-58064912D01*
X55680732Y-58301527D01*
X55631238Y-58533982D01*
X55602270Y-58783204D01*
X55590637Y-59070121D01*
X46588146Y-59070121D01*
X46589468Y-58711635D01*
X46591966Y-57953097D01*
X46594285Y-57160815D01*
X46596404Y-56338707D01*
X46598303Y-55490688D01*
X46599902Y-54655019D01*
X46615755Y-45619538D01*
X46744524Y-45362853D01*
X47065534Y-44803782D01*
X47435699Y-44305415D01*
X47850868Y-43871587D01*
X48306885Y-43506135D01*
X48799597Y-43212897D01*
X49297167Y-43004943D01*
X49593500Y-42904834D01*
X95628388Y-42881584D01*
X96063611Y-43099566D01*
G37*
X96063611Y-43099566D02*
X96436369Y-43295681D01*
X96746825Y-43481774D01*
X97014125Y-43670957D01*
X97257414Y-43876337D01*
X97405399Y-44018365D01*
X97793919Y-44456949D01*
X98099480Y-44911639D01*
X98322308Y-45382786D01*
X98359737Y-45487167D01*
X98396038Y-45640312D01*
X98428372Y-45870434D01*
X98455810Y-46169899D01*
X98470536Y-46397334D01*
X98474784Y-46511857D01*
X98479330Y-46706423D01*
X98484133Y-46976408D01*
X98489151Y-47317188D01*
X98494340Y-47724139D01*
X98499659Y-48192639D01*
X98505065Y-48718063D01*
X98510517Y-49295788D01*
X98515971Y-49921190D01*
X98521387Y-50589646D01*
X98526720Y-51296532D01*
X98531930Y-52037224D01*
X98536974Y-52807099D01*
X98541810Y-53601534D01*
X98546395Y-54415904D01*
X98549839Y-55075667D01*
X98554119Y-55896952D01*
X98558578Y-56698735D01*
X98563178Y-57476632D01*
X98567884Y-58226264D01*
X98572659Y-58943247D01*
X98577468Y-59623200D01*
X98582273Y-60261742D01*
X98587038Y-60854491D01*
X98591727Y-61397065D01*
X98596304Y-61885083D01*
X98600732Y-62314162D01*
X98604975Y-62679921D01*
X98608997Y-62977979D01*
X98612761Y-63203953D01*
X98616232Y-63353463D01*
X98618988Y-63417987D01*
X98647938Y-63780473D01*
X98877590Y-63900712D01*
X99079341Y-64014650D01*
X99215767Y-64118620D01*
X99301138Y-64231520D01*
X99349722Y-64372249D01*
X99375789Y-64559704D01*
X99375873Y-64560636D01*
X99380199Y-64649923D01*
X99384501Y-64817150D01*
X99388718Y-65055592D01*
X99392791Y-65358522D01*
X99396659Y-65719213D01*
X99400263Y-66130941D01*
X99403542Y-66586977D01*
X99406437Y-67080597D01*
X99408888Y-67605075D01*
X99410835Y-68153683D01*
X99412011Y-68615739D01*
X99419834Y-72355645D01*
X99300819Y-72450568D01*
X99202253Y-72516989D01*
X99057608Y-72600368D01*
X98897962Y-72682804D01*
X98895863Y-72683820D01*
X98609922Y-72822149D01*
X98539185Y-73505658D01*
X98508841Y-73765120D01*
X98472778Y-74020734D01*
X98434708Y-74249141D01*
X98398346Y-74426983D01*
X98383621Y-74483979D01*
X98190469Y-75004376D01*
X97918895Y-75494784D01*
X97568296Y-75956143D01*
X97201878Y-76331540D01*
X97031253Y-76482289D01*
X96868063Y-76608917D01*
X96702853Y-76713769D01*
X96526163Y-76799188D01*
X96328536Y-76867518D01*
X96100513Y-76921104D01*
X95832638Y-76962289D01*
X95515452Y-76993418D01*
X95139497Y-77016834D01*
X94695315Y-77034882D01*
X94318667Y-77046119D01*
X94174091Y-77048875D01*
X93948172Y-77051615D01*
X93644236Y-77054334D01*
X93265608Y-77057028D01*
X92815611Y-77059694D01*
X92297570Y-77062327D01*
X91714811Y-77064925D01*
X91070656Y-77067482D01*
X90368432Y-77069996D01*
X89611463Y-77072461D01*
X88803073Y-77074876D01*
X87946587Y-77077235D01*
X87045330Y-77079535D01*
X86102625Y-77081772D01*
X85121799Y-77083942D01*
X84106174Y-77086042D01*
X83059077Y-77088067D01*
X81983831Y-77090014D01*
X80883762Y-77091878D01*
X79762193Y-77093657D01*
X78622449Y-77095346D01*
X77467855Y-77096941D01*
X76301736Y-77098439D01*
X75127416Y-77099835D01*
X73948219Y-77101126D01*
X72767471Y-77102308D01*
X71588496Y-77103378D01*
X70414619Y-77104331D01*
X69249163Y-77105163D01*
X68095454Y-77105871D01*
X66956817Y-77106450D01*
X65836575Y-77106898D01*
X64738054Y-77107210D01*
X63664578Y-77107382D01*
X62619472Y-77107410D01*
X61606060Y-77107292D01*
X60627667Y-77107022D01*
X59687618Y-77106597D01*
X58789237Y-77106013D01*
X57935848Y-77105267D01*
X57130777Y-77104354D01*
X56377347Y-77103270D01*
X55678884Y-77102013D01*
X55038713Y-77100577D01*
X54460157Y-77098960D01*
X53946541Y-77097157D01*
X53501190Y-77095164D01*
X53213000Y-77093537D01*
X49127834Y-77067834D01*
X48746834Y-76860965D01*
X48310933Y-76608347D01*
X47947537Y-76360381D01*
X47645784Y-76106926D01*
X47394814Y-75837840D01*
X47183768Y-75542980D01*
X47019140Y-75247500D01*
X46823102Y-74772389D01*
X46674933Y-74230505D01*
X46660816Y-74144927D01*
X57821820Y-74144927D01*
X57827828Y-74513521D01*
X57912276Y-74883646D01*
X57991555Y-75080524D01*
X58195358Y-75423504D01*
X58452963Y-75705728D01*
X58755795Y-75922879D01*
X59095276Y-76070638D01*
X59462829Y-76144686D01*
X59849878Y-76140706D01*
X60037166Y-76110425D01*
X60402445Y-75991961D01*
X60728858Y-75803035D01*
X61008601Y-75551951D01*
X61233866Y-75247011D01*
X61396849Y-74896519D01*
X61479322Y-74576440D01*
X61498930Y-74220535D01*
X61442301Y-73864048D01*
X61380134Y-73694253D01*
X63722808Y-73694253D01*
X63770873Y-73984426D01*
X63890411Y-74309139D01*
X64065600Y-74617135D01*
X64281988Y-74888313D01*
X64525126Y-75102570D01*
X64617912Y-75162773D01*
X64925069Y-75297418D01*
X65278771Y-75373710D01*
X65662162Y-75389410D01*
X66021642Y-75349334D01*
X66379960Y-75244025D01*
X66689849Y-75072789D01*
X66947421Y-74841700D01*
X67148794Y-74556833D01*
X67290080Y-74224261D01*
X67367396Y-73850058D01*
X67373250Y-73596500D01*
X77724827Y-73596500D01*
X77726309Y-73830283D01*
X77732573Y-73999605D01*
X77746343Y-74124648D01*
X77770347Y-74225592D01*
X77807310Y-74322618D01*
X77829542Y-74371765D01*
X77950165Y-74570187D01*
X78124234Y-74779878D01*
X78328176Y-74976941D01*
X78538420Y-75137481D01*
X78647981Y-75201441D01*
X79028767Y-75353251D01*
X79406653Y-75422075D01*
X79778511Y-75407499D01*
X79945020Y-75373107D01*
X80126666Y-75314981D01*
X80313904Y-75238627D01*
X80401348Y-75195449D01*
X80630052Y-75036001D01*
X80853747Y-74817397D01*
X81059011Y-74559035D01*
X81232425Y-74280311D01*
X81256945Y-74226792D01*
X83546584Y-74226792D01*
X83556029Y-74351076D01*
X83586305Y-74519066D01*
X83591421Y-74544167D01*
X83713455Y-74965445D01*
X83893741Y-75327830D01*
X84130482Y-75629241D01*
X84421880Y-75867597D01*
X84766137Y-76040818D01*
X84931279Y-76095128D01*
X85184730Y-76139869D01*
X85472769Y-76148092D01*
X85764539Y-76122028D01*
X86029186Y-76063908D01*
X86183273Y-76004616D01*
X86369885Y-75888576D01*
X86577465Y-75719779D01*
X86784985Y-75518985D01*
X86971417Y-75306953D01*
X87115732Y-75104442D01*
X87143167Y-75057000D01*
X87199506Y-74948136D01*
X87236169Y-74853915D01*
X87257354Y-74751235D01*
X87267258Y-74616993D01*
X87270076Y-74428085D01*
X87270167Y-74357832D01*
X87268676Y-74148267D01*
X87261047Y-73998321D01*
X87242549Y-73882960D01*
X87208449Y-73777146D01*
X87154013Y-73655846D01*
X87126992Y-73600446D01*
X87002315Y-73391790D01*
X86834455Y-73172550D01*
X86642871Y-72963698D01*
X86447018Y-72786202D01*
X86266353Y-72661034D01*
X86244754Y-72649576D01*
X86070894Y-72584770D01*
X85842322Y-72532115D01*
X85588645Y-72496106D01*
X85339471Y-72481235D01*
X85172018Y-72486774D01*
X84931230Y-72534258D01*
X84692005Y-72637937D01*
X84442144Y-72804608D01*
X84169450Y-73041072D01*
X84158056Y-73051924D01*
X83957250Y-73256172D01*
X83812055Y-73438855D01*
X83707203Y-73624715D01*
X83627422Y-73838492D01*
X83589800Y-73972667D01*
X83557873Y-74112045D01*
X83546584Y-74226792D01*
X81256945Y-74226792D01*
X81360569Y-74000621D01*
X81430023Y-73739361D01*
X81434652Y-73701961D01*
X81423599Y-73439495D01*
X81344778Y-73148461D01*
X81204076Y-72842041D01*
X81007380Y-72533421D01*
X80798115Y-72276509D01*
X80608247Y-72086950D01*
X80425603Y-71956155D01*
X80223277Y-71870459D01*
X79974363Y-71816197D01*
X79861834Y-71800960D01*
X79505941Y-71767470D01*
X79214080Y-71764864D01*
X78969623Y-71798289D01*
X78755940Y-71872895D01*
X78556404Y-71993829D01*
X78354386Y-72166241D01*
X78210088Y-72312353D01*
X78028074Y-72515310D01*
X77897465Y-72692484D01*
X77810049Y-72865605D01*
X77757615Y-73056406D01*
X77731950Y-73286616D01*
X77724843Y-73577968D01*
X77724827Y-73596500D01*
X67373250Y-73596500D01*
X67376857Y-73440300D01*
X67359483Y-73257676D01*
X67325407Y-73060715D01*
X67278367Y-72874249D01*
X67227332Y-72733121D01*
X67221247Y-72720657D01*
X67109345Y-72550042D01*
X66946280Y-72361188D01*
X66755224Y-72176388D01*
X66559348Y-72017936D01*
X66381822Y-71908124D01*
X66371758Y-71903335D01*
X66271819Y-71860170D01*
X66177484Y-71830656D01*
X66069314Y-71812225D01*
X65927869Y-71802311D01*
X65733708Y-71798347D01*
X65572062Y-71797747D01*
X65336215Y-71798698D01*
X65165907Y-71803711D01*
X65042020Y-71815430D01*
X64945439Y-71836498D01*
X64857047Y-71869559D01*
X64776703Y-71907755D01*
X64458286Y-72109056D01*
X64189222Y-72364945D01*
X63975327Y-72663416D01*
X63822416Y-72992462D01*
X63736305Y-73340076D01*
X63722808Y-73694253D01*
X61380134Y-73694253D01*
X61316631Y-73520812D01*
X61129112Y-73204660D01*
X60886940Y-72929426D01*
X60597308Y-72708941D01*
X60472511Y-72640519D01*
X60361736Y-72587293D01*
X60270930Y-72551181D01*
X60180262Y-72529424D01*
X60069902Y-72519260D01*
X59920022Y-72517931D01*
X59710789Y-72522674D01*
X59640294Y-72524674D01*
X59405162Y-72532714D01*
X59235045Y-72543370D01*
X59110292Y-72559971D01*
X59011255Y-72585845D01*
X58918284Y-72624323D01*
X58850098Y-72658553D01*
X58514597Y-72876507D01*
X58240640Y-73143654D01*
X58031605Y-73450461D01*
X57890872Y-73787397D01*
X57821820Y-74144927D01*
X46660816Y-74144927D01*
X46574286Y-73620402D01*
X46539971Y-73267326D01*
X46511675Y-72895819D01*
X46080367Y-72664468D01*
X45649060Y-72433117D01*
X45621030Y-70965308D01*
X45611814Y-70415097D01*
X45604615Y-69842766D01*
X45599407Y-69258128D01*
X45596165Y-68670994D01*
X45594864Y-68091178D01*
X45595476Y-67528492D01*
X45597977Y-66992747D01*
X45602341Y-66493757D01*
X45608542Y-66041335D01*
X45616554Y-65645292D01*
X45626352Y-65315440D01*
X45636442Y-65087500D01*
X45653793Y-64787807D01*
X45672716Y-64559729D01*
X45699463Y-64390346D01*
X45740283Y-64266737D01*
X45801429Y-64175980D01*
X45889151Y-64105155D01*
X46009700Y-64041339D01*
X46169328Y-63971612D01*
X46178080Y-63967895D01*
X46336442Y-63894956D01*
X46464103Y-63825578D01*
X46540945Y-63771121D01*
X46552868Y-63756228D01*
X46555940Y-63708154D01*
X46559075Y-63579329D01*
X46562254Y-63373673D01*
X46565455Y-63095101D01*
X46568660Y-62747531D01*
X46571847Y-62334881D01*
X46574996Y-61861066D01*
X46578087Y-61330005D01*
X46581100Y-60745614D01*
X46584015Y-60111810D01*
X46586811Y-59432512D01*
X46588146Y-59070121D01*
X55590637Y-59070121D01*
X55593145Y-59415659D01*
X55595219Y-59499500D01*
X55604060Y-59777463D01*
X55615069Y-59990133D01*
X55630676Y-60156886D01*
X55653308Y-60297095D01*
X55685394Y-60430135D01*
X55729362Y-60575380D01*
X55730526Y-60579000D01*
X55938262Y-61121021D01*
X56196724Y-61606068D01*
X56512450Y-62042077D01*
X56891978Y-62436986D01*
X57341847Y-62798732D01*
X57806412Y-63099062D01*
X58238869Y-63329085D01*
X58637740Y-63490991D01*
X58997900Y-63582711D01*
X59009584Y-63584599D01*
X59177942Y-63601933D01*
X59403423Y-63611907D01*
X59668262Y-63615061D01*
X59954693Y-63611933D01*
X60244951Y-63603062D01*
X60521271Y-63588989D01*
X60765888Y-63570251D01*
X60961036Y-63547389D01*
X61087000Y-63521553D01*
X61422828Y-63391454D01*
X61788745Y-63204647D01*
X62166012Y-62973590D01*
X62535888Y-62710742D01*
X62879634Y-62428563D01*
X63178511Y-62139509D01*
X63199067Y-62117389D01*
X63522416Y-61704555D01*
X63783191Y-61237940D01*
X63979577Y-60722729D01*
X64109758Y-60164104D01*
X64171919Y-59567252D01*
X64177334Y-59323706D01*
X64139615Y-58712070D01*
X64052285Y-58270310D01*
X67023454Y-58270310D01*
X67024320Y-58624035D01*
X67027504Y-58951987D01*
X67033149Y-59243122D01*
X67041397Y-59486395D01*
X67047076Y-59595514D01*
X67064929Y-59843079D01*
X67085477Y-60055760D01*
X67107004Y-60219439D01*
X67127798Y-60319997D01*
X67137776Y-60342683D01*
X67193621Y-60371498D01*
X67313356Y-60395305D01*
X67504111Y-60415137D01*
X67745575Y-60430606D01*
X67869348Y-60435207D01*
X68071571Y-60440282D01*
X68346032Y-60445762D01*
X68686515Y-60451579D01*
X69086807Y-60457665D01*
X69540694Y-60463950D01*
X70041962Y-60470367D01*
X70584396Y-60476847D01*
X71161783Y-60483322D01*
X71767909Y-60489722D01*
X72396559Y-60495980D01*
X73041520Y-60502027D01*
X73696578Y-60507795D01*
X74355517Y-60513215D01*
X75012126Y-60518218D01*
X75660189Y-60522737D01*
X76293492Y-60526702D01*
X76644500Y-60528683D01*
X77787500Y-60534859D01*
X77897949Y-60377013D01*
X77949215Y-60302271D01*
X77992164Y-60231867D01*
X78027527Y-60157861D01*
X78056037Y-60072313D01*
X78078425Y-59967284D01*
X78095422Y-59834834D01*
X78107761Y-59667023D01*
X78116173Y-59455912D01*
X78121003Y-59213007D01*
X80903706Y-59213007D01*
X80919515Y-59720476D01*
X80984064Y-60218243D01*
X81096542Y-60680588D01*
X81097557Y-60683832D01*
X81300291Y-61193088D01*
X81578451Y-61679050D01*
X81924123Y-62133337D01*
X82329390Y-62547568D01*
X82786337Y-62913362D01*
X83287048Y-63222339D01*
X83666008Y-63403145D01*
X83841180Y-63472957D01*
X84003621Y-63526273D01*
X84168417Y-63564964D01*
X84350657Y-63590900D01*
X84565427Y-63605952D01*
X84827816Y-63611990D01*
X85152910Y-63610885D01*
X85322834Y-63608569D01*
X85625256Y-63602796D01*
X85858562Y-63595206D01*
X86038301Y-63584329D01*
X86180024Y-63568695D01*
X86299281Y-63546834D01*
X86411621Y-63517276D01*
X86465834Y-63500505D01*
X86941147Y-63309356D01*
X87414965Y-63043524D01*
X87873063Y-62712030D01*
X88266422Y-62358781D01*
X88668869Y-61909366D01*
X88990824Y-61438298D01*
X89235035Y-60939392D01*
X89404252Y-60406461D01*
X89501225Y-59833322D01*
X89523433Y-59530786D01*
X89511708Y-58919330D01*
X89421479Y-58339087D01*
X89253571Y-57791687D01*
X89008810Y-57278760D01*
X88688021Y-56801936D01*
X88292030Y-56362844D01*
X87821662Y-55963115D01*
X87655941Y-55844037D01*
X87186844Y-55551437D01*
X86732976Y-55333945D01*
X86282254Y-55186530D01*
X85902239Y-55113837D01*
X85677598Y-55093094D01*
X85408482Y-55082547D01*
X85114454Y-55081518D01*
X84815075Y-55089330D01*
X84529907Y-55105304D01*
X84278511Y-55128764D01*
X84080448Y-55159031D01*
X83996309Y-55179875D01*
X83490300Y-55379650D01*
X83004057Y-55652205D01*
X82546841Y-55987915D01*
X82127910Y-56377156D01*
X81756523Y-56810305D01*
X81441939Y-57277738D01*
X81193418Y-57769831D01*
X81021550Y-58271834D01*
X80937448Y-58721553D01*
X80903706Y-59213007D01*
X78121003Y-59213007D01*
X78121390Y-59193561D01*
X78124145Y-58872030D01*
X78125167Y-58483379D01*
X78125190Y-58019668D01*
X78125137Y-57912000D01*
X78124630Y-57446151D01*
X78123465Y-57057306D01*
X78121385Y-56737805D01*
X78118128Y-56479984D01*
X78113437Y-56276185D01*
X78107051Y-56118744D01*
X78098710Y-56000000D01*
X78088157Y-55912293D01*
X78075131Y-55847961D01*
X78059372Y-55799342D01*
X78053101Y-55784481D01*
X77963437Y-55649483D01*
X77863631Y-55579000D01*
X77779270Y-55557564D01*
X77639844Y-55538442D01*
X77442915Y-55521591D01*
X77186044Y-55506967D01*
X76866793Y-55494528D01*
X76482723Y-55484229D01*
X76031395Y-55476029D01*
X75510371Y-55469884D01*
X74917213Y-55465750D01*
X74249482Y-55463585D01*
X73504739Y-55463346D01*
X72680546Y-55464989D01*
X71774464Y-55468471D01*
X71649167Y-55469063D01*
X70918127Y-55472807D01*
X70267650Y-55476634D01*
X69693631Y-55480614D01*
X69191967Y-55484815D01*
X68758555Y-55489309D01*
X68389289Y-55494163D01*
X68080066Y-55499449D01*
X67826783Y-55505234D01*
X67625335Y-55511589D01*
X67471618Y-55518582D01*
X67361528Y-55526284D01*
X67290962Y-55534765D01*
X67257213Y-55543408D01*
X67145873Y-55640444D01*
X67096554Y-55749153D01*
X67082946Y-55837881D01*
X67070379Y-56000228D01*
X67058993Y-56225149D01*
X67048931Y-56501602D01*
X67040335Y-56818542D01*
X67033347Y-57164927D01*
X67028110Y-57529712D01*
X67024765Y-57901854D01*
X67023454Y-58270310D01*
X64052285Y-58270310D01*
X64026096Y-58137839D01*
X63836233Y-57599626D01*
X63569481Y-57096042D01*
X63225296Y-56625698D01*
X63038004Y-56417168D01*
X62623965Y-56024554D01*
X62196975Y-55704685D01*
X61747384Y-55453617D01*
X61265541Y-55267407D01*
X60741797Y-55142111D01*
X60166503Y-55073786D01*
X59711167Y-55057631D01*
X59421217Y-55062337D01*
X59170386Y-55083680D01*
X58937397Y-55127098D01*
X58700978Y-55198027D01*
X58439853Y-55301905D01*
X58132748Y-55444168D01*
X58060167Y-55479555D01*
X57508888Y-55791070D01*
X57025755Y-56152032D01*
X56608600Y-56564724D01*
X56255255Y-57031430D01*
X55963553Y-57554434D01*
X55854080Y-57803209D01*
X55753949Y-58064912D01*
X55680732Y-58301527D01*
X55631238Y-58533982D01*
X55602270Y-58783204D01*
X55590637Y-59070121D01*
X46588146Y-59070121D01*
X46589468Y-58711635D01*
X46591966Y-57953097D01*
X46594285Y-57160815D01*
X46596404Y-56338707D01*
X46598303Y-55490688D01*
X46599902Y-54655019D01*
X46615755Y-45619538D01*
X46744524Y-45362853D01*
X47065534Y-44803782D01*
X47435699Y-44305415D01*
X47850868Y-43871587D01*
X48306885Y-43506135D01*
X48799597Y-43212897D01*
X49297167Y-43004943D01*
X49593500Y-42904834D01*
X95628388Y-42881584D01*
X96063611Y-43099566D01*
D11*
X59944000Y-59944000D02*
X59944000Y-60452000D01*
X59944000Y-59182000D02*
X59944000Y-58674000D01*
X60706000Y-59182000D02*
X59182000Y-59182000D01*
X59944000Y-59182000D02*
X60706000Y-59944000D01*
X59182000Y-59944000D02*
X59944000Y-59182000D01*
X60706000Y-59944000D02*
X59182000Y-59944000D01*
D12*
X59943538Y-62426000D02*
G75*
G03X61488830Y-56876000I462J2990000D01*
G01*
X59944462Y-62426000D02*
G75*
G02X58399170Y-56876000I-462J2990000D01*
G01*
X61489000Y-56876000D02*
X58399000Y-56876000D01*
X59944000Y-60706000D02*
X57844000Y-60706000D01*
X59944000Y-58166000D02*
X58444000Y-58166000D01*
X85344000Y-58166000D02*
X83844000Y-58166000D01*
X85344000Y-60706000D02*
X83244000Y-60706000D01*
X86889000Y-56876000D02*
X83799000Y-56876000D01*
X85344462Y-62426000D02*
G75*
G02X83799170Y-56876000I-462J2990000D01*
G01*
X85343538Y-62426000D02*
G75*
G03X86888830Y-56876000I462J2990000D01*
G01*
D11*
X86106000Y-59944000D02*
X84582000Y-59944000D01*
X84582000Y-59944000D02*
X85344000Y-59182000D01*
X85344000Y-59182000D02*
X86106000Y-59944000D01*
X86106000Y-59182000D02*
X84582000Y-59182000D01*
X85344000Y-59182000D02*
X85344000Y-58674000D01*
X85344000Y-59944000D02*
X85344000Y-60452000D01*
X61572571Y-57674095D02*
X61572571Y-58436000D01*
X61572571Y-60436000D02*
X61572571Y-61197904D01*
X61191619Y-60816952D02*
X61953523Y-60816952D01*
X86972571Y-57674095D02*
X86972571Y-58436000D01*
X86972571Y-60436000D02*
X86972571Y-61197904D01*
X86591619Y-60816952D02*
X87353523Y-60816952D01*
%LPC*%
D13*
X72390000Y-38608000D03*
D14*
X72616840Y-73340000D03*
D15*
X72616840Y-53340000D03*
D16*
X59944000Y-58166000D03*
D17*
X59944000Y-60706000D03*
X85344000Y-60706000D03*
D16*
X85344000Y-58166000D03*
M02*
